<svg width="440" height="519" viewBox="0 0 440 519" fill="none" xmlns="http://www.w3.org/2000/svg">
<path d="M235.247 507.392C235.315 510.648 234.87 513.895 233.928 517.01C233.895 517.123 233.855 517.236 233.816 517.349H214.401C214.679 515.97 215.119 514.629 215.713 513.356C217.329 509.895 219.966 506.934 222.572 503.992C226.159 499.938 229.66 495.919 230.211 490.648C231.633 492.836 232.768 495.2 233.588 497.682C232.584 498.058 231.664 498.627 230.877 499.36C230.66 499.566 230.429 499.865 230.541 500.154C230.647 500.393 230.935 500.472 231.194 500.527C231.814 500.647 232.434 500.766 233.054 500.88C233.542 500.98 234.036 501.073 234.531 501.166C234.965 503.215 235.202 505.301 235.24 507.395L235.247 507.392Z" fill="#181545"/>
<path d="M251.554 505.235C248.442 507.143 246.463 510.101 244.847 513.408C243.441 513.731 242.143 514.42 241.082 515.405C240.857 515.611 240.627 515.91 240.746 516.199C240.845 516.438 241.139 516.517 241.398 516.572C242.012 516.692 242.638 516.811 243.252 516.925C243.192 517.065 243.133 517.211 243.074 517.351H222.499C223.433 516.08 224.467 514.887 225.592 513.784C225.836 513.538 226.086 513.307 226.344 513.069C228.966 510.677 231.976 508.759 235.243 507.398C240.392 505.223 246.024 504.477 251.554 505.235Z" fill="#4D4FB0"/>
<path d="M225.927 517.349H207.607C207.507 515.869 207.516 514.383 207.633 512.904C208.03 508.325 209.406 503.888 211.666 499.897C213.925 495.907 217.016 492.459 220.723 489.79C219.774 493.207 220.262 496.598 221.251 500.006C221.113 500.053 220.974 500.092 220.849 500.146C219.845 500.521 218.925 501.09 218.139 501.823C217.921 502.029 217.691 502.328 217.802 502.618C217.902 502.856 218.196 502.936 218.455 502.99C219.075 503.11 219.695 503.229 220.308 503.343C220.803 503.443 221.298 503.536 221.792 503.636C222.023 503.676 222.254 503.722 222.485 503.769C222.518 503.848 222.537 503.922 222.57 503.995C223.845 507.168 224.855 510.443 225.591 513.785C225.738 514.615 225.839 515.453 225.894 516.294C225.914 516.644 225.927 516.996 225.927 517.349Z" fill="#4D4FB0"/>
<path d="M10.896 500.087C11.0148 505.732 10.2438 511.361 8.61194 516.761C8.55444 516.958 8.48592 517.154 8.4174 517.35H-25.2458C-24.7646 514.958 -24.0006 512.634 -22.9704 510.427C-20.169 504.426 -15.5954 499.292 -11.0778 494.191C-4.85585 487.164 1.21331 480.194 2.17417 471.056C4.63964 474.849 6.60746 478.949 8.02836 483.253C6.2887 483.903 4.69209 484.891 3.32878 486.161C2.95152 486.519 2.55143 487.035 2.74597 487.534C2.92869 487.95 3.43197 488.091 3.87774 488.181C4.9528 488.388 6.02707 488.596 7.10213 488.792C7.94801 488.965 8.8057 489.126 9.66339 489.288C10.4172 492.84 10.8307 496.456 10.8983 500.088L10.896 500.087Z" fill="#181545"/>
<path d="M39.1722 496.351C33.7757 499.663 30.3457 504.786 27.5443 510.521C25.1067 511.081 22.8564 512.274 21.016 513.982C20.6269 514.34 20.2284 514.856 20.4331 515.356C20.6048 515.771 21.1191 515.912 21.5649 516.002C22.6281 516.209 23.7142 516.418 24.7775 516.613C24.6743 516.852 24.5719 517.109 24.4687 517.351H-11.2051C-9.58561 515.147 -7.79219 513.079 -5.84237 511.167C-5.41944 510.74 -4.98471 510.336 -4.53894 509.921C0.00886059 505.773 5.23082 502.447 10.8978 500.089C19.8243 496.323 29.5857 495.033 39.1722 496.351Z" fill="#4D4FB0"/>
<path d="M73.4941 93.2382C64.7251 78.602 54.3345 62.9738 38.0613 58.1944C19.2167 52.6599 -0.142197 63.6549 -16.5626 74.5046C-65.6693 106.951 -112.96 142.115 -158.218 179.833L-158.169 180.402L-52.4632 173.045C-27.006 171.273 -0.673813 169.256 21.8236 157.102C30.3603 152.492 38.6819 146.33 48.3559 145.901C60.3745 145.367 70.8541 153.839 79.09 162.689C127.806 215.045 141.903 295.107 196.558 341.107C162.095 255.331 120.944 172.448 73.4941 93.2382Z" fill="#100F4A"/>
<path d="M361.406 517.348H356.581C314.585 462.284 275.07 405.412 238.036 346.733C212.174 305.793 187.595 264.06 164.301 221.535C162.929 219.031 161.561 216.523 160.196 214.011C150.556 196.264 141.142 178.398 131.954 160.413C123.816 144.489 115.861 128.473 108.09 112.364C105.872 107.761 103.711 103.144 101.562 98.5063C96.4968 87.617 91.5341 76.6632 86.1951 65.9177C80.8096 55.0594 74.3813 43.7511 65.2374 35.5929C64.0622 34.5295 62.8335 33.528 61.5562 32.5923C60.1081 31.521 58.5875 30.5531 57.0056 29.6959C56.8481 29.6037 56.6858 29.5226 56.5251 29.4304C52.6611 27.3504 48.4076 26.1121 44.0395 25.7956C34.95 25.1955 26.5685 28.9917 18.6792 33.1225C5.37054 40.1266 -7.73621 47.5346 -20.6411 55.3463C-63.5177 81.3505 -103.977 111.213 -141.526 144.569L-141.812 144.823C-190.772 188.214 -234.532 237.238 -272.202 290.893C-273.357 292.555 -276.078 290.963 -274.911 289.304C-270.338 282.761 -265.669 276.292 -260.905 269.895C-225.374 222.179 -184.937 178.394 -140.269 139.273C-135.273 134.888 -130.219 130.565 -125.108 126.304C-100.018 105.34 -73.7413 85.8678 -46.4102 67.9851C-38.0407 62.5044 -29.576 57.1888 -21.016 52.0382C-15.3454 48.6113 -9.63614 45.2534 -3.88834 41.9643C3.38345 37.8105 10.6899 33.7027 18.1216 29.8596C25.4044 26.0746 33.1338 22.6822 41.4578 22.5558C47.4546 22.4453 53.378 23.9 58.654 26.7788C58.8115 26.871 58.9856 26.9521 59.1454 27.0554C62.37 28.8769 65.3643 31.0854 68.0633 33.6328C80.1488 44.9291 88.2326 62.6533 94.5207 76.2579C97.6879 83.1237 100.893 89.9594 104.136 96.7648C116.382 122.624 129.104 148.252 142.302 173.649C149.357 187.208 156.545 200.708 163.866 214.151C164.987 216.24 166.13 218.328 167.273 220.405C193.731 268.649 221.85 315.921 251.631 362.22C286.995 417.19 322.12 466.416 361.406 517.348Z" fill="#100F4A"/>
<path d="M216.195 279.891L258.391 264.312L279.341 256.579C286.164 254.06 292.971 251.193 300.025 249.39C306.154 247.622 312.662 247.705 318.746 249.628C324.17 251.654 329.136 254.761 333.347 258.763C337.65 262.762 341.653 267.076 345.324 271.671C349.886 277.203 354.382 282.794 358.894 288.363C377.524 311.357 396.032 334.451 414.419 357.645C432.805 380.838 451.069 404.13 469.209 427.52C487.394 450.967 505.454 474.513 523.388 498.157C525.586 501.053 527.781 503.951 529.974 506.851C531.186 508.452 533.918 506.873 532.69 505.249C514.622 481.368 496.429 457.584 478.11 433.899C459.746 410.156 441.255 386.514 422.637 362.973C404.02 339.432 385.277 315.994 366.408 292.658C361.707 286.844 356.999 281.037 352.283 275.235C348.305 270.342 344.371 265.396 340.007 260.842C331.998 252.481 321.99 245.093 310.012 244.893C302.969 244.775 296.15 247.03 289.613 249.424C282.559 251.999 275.522 254.623 268.477 257.223L225.986 272.91L215.363 276.831C213.477 277.526 214.292 280.594 216.198 279.891H216.195Z" fill="#100F4A"/>
<path d="M331.76 280.046C327.606 274.943 323.115 269.601 316.902 267.528L311.102 267.758C355.256 346.499 414.888 415.302 486.34 469.945L331.76 280.046Z" fill="#100F4A"/>
<path d="M77.1721 441.884L76.3632 442.838L76.8032 442.983L77.1721 441.884Z" fill="#090814"/>
<path d="M405.112 62.2304C421.973 62.2304 435.641 48.4365 435.641 31.4208C435.641 14.4051 421.973 0.611115 405.112 0.611115C388.252 0.611115 374.584 14.4051 374.584 31.4208C374.584 48.4365 388.252 62.2304 405.112 62.2304Z" fill="#EFCA4E"/>
<path d="M473.435 16.833C472.574 13.9839 470.907 11.4511 468.637 9.54635C466.368 7.64164 463.597 6.44823 460.664 6.11301C460.595 6.10725 460.527 6.10725 460.458 6.11301C460.376 6.08701 460.292 6.06761 460.207 6.05499C449.985 4.71648 438.62 7.97054 430.971 15.0558C428.131 17.6444 425.86 20.8047 424.305 24.3332C422.887 22.3786 421.018 20.8023 418.861 19.7407C416.703 18.6791 414.321 18.1643 411.922 18.2407C408.828 18.4472 405.872 19.6118 403.458 21.5756C401.044 23.5393 399.288 26.2068 398.431 29.2143C398.337 29.5815 398.362 29.9697 398.504 30.321C398.646 30.6723 398.897 30.968 399.218 31.164C400.138 31.9576 401.231 32.5191 402.408 32.8022C404.935 33.3443 407.485 33.8411 410.034 34.2909C415.019 35.1679 420.031 35.8796 425.069 36.4259C428.397 36.7836 431.731 37.0681 435.072 37.2796C441.978 37.7183 448.918 37.8216 455.836 37.6022C459.266 37.487 462.559 37.3717 465.692 35.848C467.975 34.715 469.925 33.0008 471.351 30.8747C472.694 28.83 473.577 26.5132 473.937 24.0872C474.297 21.6612 474.126 19.1851 473.435 16.833Z" fill="#4D4FB0"/>
<path d="M410.631 61.7187C410.573 60.4277 410.358 59.1487 409.991 57.9107C409.126 55.0617 407.455 52.5296 405.185 50.6252C402.914 48.7209 400.141 47.5272 397.208 47.1906C397.143 47.1849 397.078 47.1849 397.014 47.1906C396.927 47.1657 396.84 47.1463 396.751 47.1326C391.093 46.4332 385.353 47.0287 379.955 48.8749C371.653 51.6791 364.371 57.3328 360.86 65.4076C359.441 63.4517 357.57 61.8747 355.41 60.813C353.251 59.7514 350.867 59.2373 348.466 59.3151C345.372 59.5217 342.416 60.6862 340.002 62.65C337.587 64.6138 335.832 67.2813 334.975 70.2887C334.886 70.656 334.914 71.0423 335.055 71.3924C335.197 71.7425 335.444 72.0386 335.762 72.2385C336.683 73.0299 337.776 73.5911 338.952 73.8766C341.49 74.4187 344.029 74.9155 346.592 75.3654C351.576 76.2424 356.584 76.954 361.616 77.5003C371.836 78.6077 382.121 79.001 392.395 78.6775C395.814 78.5622 399.118 78.447 402.251 76.9233C404.531 75.7899 406.478 74.0756 407.9 71.95C409.904 68.9357 410.865 65.3373 410.633 61.7148L410.631 61.7187Z" fill="#4F4C76"/>
<path d="M421.964 137.006C421.599 138.612 421.855 140.297 422.679 141.719C423.161 142.441 423.868 142.982 424.688 143.255C425.507 143.528 426.394 143.519 427.208 143.229C430.406 142.227 433.561 141.053 436.732 139.966C437.165 139.835 437.531 139.54 437.754 139.144C437.977 138.747 438.04 138.279 437.93 137.837C437.805 137.397 437.514 137.024 437.12 136.798C436.725 136.572 436.259 136.511 435.82 136.628L427.897 139.345C427.299 139.55 426.704 139.783 426.095 139.952C426.031 139.969 425.799 140.021 425.812 140.02C425.841 140.02 426.021 140.037 425.821 140.02C425.707 139.985 425.707 139.993 425.821 140.043L425.67 139.957C425.809 140.073 425.653 139.941 425.605 139.892C425.557 139.844 425.44 139.678 425.535 139.818C425.467 139.718 425.406 139.611 425.356 139.5C425.439 139.687 425.282 139.224 425.271 139.161C425.207 138.439 425.248 137.712 425.393 137.002C425.391 136.544 425.209 136.104 424.888 135.78C424.567 135.456 424.132 135.273 423.677 135.271C423.225 135.282 422.795 135.469 422.476 135.792C422.157 136.115 421.974 136.55 421.964 137.006Z" fill="#100F4A"/>
<path d="M294.271 143.084L302.724 153.841C303.8 155.21 306.106 153.728 305.591 152.156C304.537 148.944 308.174 147.154 310.685 146.624C314.016 145.923 317.359 146.036 320.519 144.591C322.527 143.673 320.785 140.689 318.786 141.602C315.089 143.292 310.778 142.517 307.034 144.161C303.688 145.631 301.042 149.295 302.282 153.076L305.149 151.392L296.695 140.635C296.372 140.314 295.937 140.134 295.483 140.134C295.029 140.134 294.594 140.314 294.27 140.635C293.958 140.965 293.784 141.403 293.784 141.859C293.784 142.315 293.958 142.754 294.27 143.083L294.271 143.084Z" fill="#4D4FB0"/>
<path d="M277.12 17.3092L285.573 28.0657C286.649 29.4345 288.955 27.9529 288.44 26.3815C287.386 23.1687 291.023 21.3787 293.534 20.8494C296.865 20.1475 300.207 20.2612 303.368 18.8162C305.375 17.8981 303.634 14.9143 301.635 15.8268C297.938 17.5166 293.627 16.7424 289.883 18.3862C286.536 19.8558 283.891 23.52 285.13 27.3011L287.997 25.6168L279.544 14.8602C279.221 14.5385 278.785 14.3582 278.331 14.3582C277.877 14.3582 277.442 14.5385 277.118 14.8602C276.806 15.1898 276.632 15.6283 276.632 16.0843C276.632 16.5403 276.806 16.9788 277.118 17.3084L277.12 17.3092Z" fill="#100F4A"/>
<path d="M236.645 464.325H235.489V336.753C235.49 336.233 235.376 335.72 235.155 335.25C234.934 334.781 234.611 334.368 234.211 334.04L234.941 333.136C235.474 333.573 235.904 334.124 236.199 334.75C236.494 335.376 236.646 336.06 236.645 336.753V464.325Z" fill="#3F3D56"/>
<path d="M118.964 136.928C119.245 137.616 119.454 138.336 119.588 139.074C119.284 137.947 119.046 137.184 118.964 136.928Z" fill="#3F3D56"/>
<path d="M129.212 172.582C129.063 173.846 128.774 175.089 128.351 176.289L129.212 172.582Z" fill="#3F3D56"/>
<path d="M234.678 294.012C211.961 305.961 182.243 316.279 173.342 319.27C180.129 317.487 199.884 315.085 230.491 334.356C268.948 358.566 310.068 342.424 310.068 342.424C310.068 342.424 300.932 360.105 281.51 361.252C262.089 362.4 211.452 330.129 194.324 339.352C177.197 348.575 169.192 337.047 162.336 360.105C155.481 383.162 142.918 446.173 157.388 481.527L171.851 516.876H89.612C89.612 516.876 119.313 436.951 102.937 387.77C93.7721 360.226 81.1092 323.621 85.4236 325.518C85.4236 325.518 65.6228 305.921 59.1544 305.921C52.6859 305.921 22.2165 302.849 12.322 292.473C12.322 292.473 -1.76564 282.482 -26.9 307.075C-52.0343 331.668 -45.9376 331.669 -68.4012 329.745C-90.512 327.85 -107.834 317.027 -108.371 316.687C-107.73 316.949 -81.9084 327.366 -66.1195 322.062C-50.126 316.681 -36.4188 296.314 -22.3296 289.4C-8.2404 282.486 0.133247 273.258 19.1716 283.25L6.62614 253.398L3.18909 245.22L3.18359 245.208C3.18359 245.208 -1.00954 189.107 -9.00356 185.266C-16.9976 181.424 -12.0476 171.436 -26.8976 169.51C-26.8976 169.51 -8.62554 167.205 -5.19717 179.886C-1.76879 192.567 21.8408 260.965 21.8408 260.965C21.8408 260.965 36.3041 290.164 52.2976 283.25C68.2912 276.337 46.2041 237.525 46.2041 237.525L18.7936 224.841C18.7936 224.841 39.3568 224.072 51.9196 235.986C64.4824 247.901 65.2448 286.322 65.2448 286.322C65.2448 286.322 96.846 290.932 104.467 308.229C104.467 308.229 130.355 292.473 129.218 315.527C129.218 315.527 152.062 293.627 150.537 286.322C149.012 279.018 147.112 261.728 132.643 251.358C118.174 240.988 108.654 224.456 118.939 200.632C124.72 187.23 127.25 180.031 128.36 176.294L122.356 202.169C122.356 202.169 118.55 228.683 129.214 237.904C129.243 237.927 129.266 237.951 129.292 237.974C139.937 247.208 153.956 264.037 153.956 264.037L153.916 263.297L163.474 289.401C163.474 289.401 219.827 287.476 232.388 262.498C244.948 237.519 255.238 236.371 255.238 236.371L248.003 257.888L240.009 276.328C240.009 276.328 272.754 277.097 289.886 296.696C307.017 316.294 349.664 322.059 349.664 322.059L325.682 328.588C325.682 328.588 302.831 320.905 281.131 306.688C259.43 292.47 261.71 279.794 234.678 294.012Z" fill="#4F4C76"/>
<path opacity="0.1" d="M246.817 241.583C244.409 252.344 241.573 262.738 237.587 270.659C225.025 295.638 168.673 297.561 168.673 297.561C168.673 297.561 168.939 294.262 169.344 289.057C183.651 287.864 222.76 282.79 232.967 262.499C233.902 260.645 234.769 258.651 235.589 256.552L246.817 241.583Z" fill="black"/>
<path opacity="0.1" d="M167.31 223.68C167.226 233.141 175.353 214.858 167.31 223.68V223.68Z" fill="black"/>
<path opacity="0.1" d="M134.408 315.235V323.689C134.408 323.689 157.253 301.786 155.731 294.485C154.566 288.901 153.172 277.476 146.112 267.77C149.294 275.106 150.262 282.262 151.11 286.325C152.202 291.56 140.764 304.303 134.205 311.095C134.435 312.462 134.503 313.852 134.408 315.235Z" fill="black"/>
<path opacity="0.1" d="M103.76 257.221C103.942 257.61 104.128 257.993 104.326 258.364C110.164 269.307 118.967 280.937 125.553 291.624C120.233 281.043 110.969 268.943 103.76 257.221Z" fill="black"/>
<path opacity="0.1" d="M231.067 334.355C218.545 326.47 207.833 322.215 199.091 320.06C189.917 323.544 182.367 326.143 178.568 327.419C185.381 325.638 205.122 323.274 235.689 342.516C259.672 357.613 284.689 357.018 300.125 354.431C304.393 351.18 307.971 347.096 310.644 342.421C310.644 342.421 269.527 358.563 231.067 334.355Z" fill="black"/>
<path opacity="0.1" d="M122.327 240.862C119.255 233.27 118.75 224.235 122.278 213.649C122.234 209.812 122.453 205.977 122.935 202.171L128.93 176.289C127.827 180.025 125.295 187.222 119.508 200.635C112.181 217.614 114.915 230.883 122.327 240.862Z" fill="black"/>
<path opacity="0.1" d="M290.464 296.699C278.582 283.107 259.197 278.576 248.425 277.071L245.207 284.494C245.207 284.494 277.951 285.263 295.085 304.859C304.586 315.727 321.931 322.339 335.499 326.075L350.242 322.06C350.242 322.06 307.599 316.296 290.464 296.699Z" fill="black"/>
<path opacity="0.1" d="M57.4954 291.411C73.4835 284.496 51.4034 245.684 51.4034 245.684L50.7993 245.404C56.3045 257.128 64.2891 278.311 52.8746 283.249C42.1933 287.869 32.1924 276.376 26.7266 268.232L27.0337 269.124C27.0337 269.124 41.5073 298.327 57.4954 291.411Z" fill="black"/>
<path opacity="0.1" d="M128.93 176.288C129.352 175.089 129.64 173.847 129.788 172.583L128.93 176.288Z" fill="black"/>
<path opacity="0.1" d="M-61.1486 330.294C-61.0698 330.269 -60.991 330.246 -60.9178 330.22C-44.9297 324.841 -31.2194 304.475 -17.1279 297.559C-3.03635 290.642 5.33648 281.423 24.3741 291.411C24.3741 291.411 21.0434 277.652 14.5891 268.613C16.7267 273.332 18.4543 278.229 19.7525 283.249C0.714928 273.259 -7.66108 282.481 -21.7495 289.397C-35.8378 296.314 -49.5442 316.679 -65.5394 322.059C-81.5345 327.438 -107.803 316.679 -107.803 316.679C-107.803 316.679 -90.2885 327.823 -67.8242 329.744C-65.2527 329.967 -63.06 330.158 -61.1486 330.294Z" fill="black"/>
<path opacity="0.1" d="M8.38301 253.369C8.38301 253.369 7.75924 253.381 6.62747 253.398L3.19045 245.22C3.56613 245.214 3.76222 245.208 3.76222 245.208C3.76222 245.208 1.11671 209.824 -3.97742 193.333C-3.91362 193.363 -3.86164 193.398 -3.80415 193.426C4.1891 197.269 8.38301 253.369 8.38301 253.369Z" fill="black"/>
<path opacity="0.1" d="M97.5911 516.878C104.568 495.295 121.345 435.612 108.136 395.928C102.432 378.791 97.1438 367.863 92.6742 360.892C96.9341 369.571 100.557 378.554 103.515 387.768C119.889 436.948 90.1877 516.878 90.1877 516.878H97.5911Z" fill="black"/>
<path opacity="0.1" d="M57.1152 244.143C57.7048 244.704 58.2573 245.304 58.7692 245.939C57.101 241.893 55.0415 238.394 52.4976 235.982C39.9332 224.07 19.3723 224.838 19.3723 224.838L45.1572 236.765C49.5745 238.429 53.634 240.934 57.1152 244.143Z" fill="black"/>
<path opacity="0.1" d="M120.156 139.059C120.013 138.299 119.795 137.558 119.507 136.847C119.507 136.847 119.782 137.677 120.156 139.059Z" fill="black"/>
<path d="M344.771 497.136C339.093 505.925 340.649 517.103 340.649 517.103C340.649 517.103 351.411 514.031 357.09 505.243C362.768 496.454 361.212 485.277 361.212 485.277C361.212 485.277 350.45 488.348 344.771 497.136Z" fill="#4D4FB0"/>
<path d="M349.038 498.687C348.589 509.169 340.879 517.346 340.879 517.346C340.879 517.346 333.897 508.528 334.342 498.047C334.787 487.565 342.501 479.388 342.501 479.388C342.501 479.388 349.487 488.206 349.038 498.687Z" fill="#181545"/>
<path d="M249.022 432.36C249.022 432.36 255.559 425.445 258.231 426.834C260.902 428.223 250.542 434.412 250.542 434.412L249.022 432.36Z" fill="#FFB9B9"/>
<path opacity="0.1" d="M249.022 432.36C249.022 432.36 255.559 425.445 258.231 426.834C260.902 428.223 250.542 434.412 250.542 434.412L249.022 432.36Z" fill="black"/>
<path d="M229.088 417.258C229.088 417.258 226.686 421.602 227.314 426.286C227.943 430.97 233.694 445.999 235.644 445.732C237.595 445.466 252.074 434.701 252.074 434.701L249.313 430.811L238.739 437.277C238.739 437.277 237.128 414.151 229.088 417.258Z" fill="#D0CDE1"/>
<path d="M268.296 427.834L251.815 436.972C251.719 437.035 251.611 437.077 251.497 437.094C251.384 437.111 251.269 437.103 251.159 437.07C251.049 437.038 250.947 436.981 250.861 436.905C250.775 436.829 250.707 436.734 250.661 436.629L246.617 428.11C246.54 427.867 246.552 427.605 246.652 427.37C246.751 427.136 246.93 426.945 247.157 426.833L260.844 419.714C261.012 419.611 261.212 419.575 261.405 419.612C261.599 419.65 261.772 419.758 261.891 419.915L268.727 426.416C268.795 426.537 268.837 426.67 268.851 426.808C268.866 426.946 268.853 427.086 268.812 427.219C268.772 427.351 268.705 427.474 268.616 427.58C268.527 427.686 268.417 427.773 268.294 427.834H268.296Z" fill="#090814"/>
<path d="M267.195 426.576L251.741 435.491L247.628 428.011L260.886 420.735L267.195 426.576Z" fill="#EFCA4E"/>
<path d="M254.185 423.995C254.256 423.909 254.254 423.789 254.181 423.727C254.107 423.665 253.99 423.684 253.918 423.77C253.847 423.856 253.849 423.976 253.923 424.038C253.997 424.1 254.114 424.081 254.185 423.995Z" fill="#F2F2F2"/>
<path d="M259.888 431.607C259.936 431.549 259.934 431.469 259.885 431.428C259.836 431.386 259.758 431.399 259.71 431.457C259.663 431.514 259.664 431.594 259.713 431.636C259.763 431.677 259.841 431.664 259.888 431.607Z" fill="#F2F2F2"/>
<path opacity="0.1" d="M229.088 417.258C229.088 417.258 226.686 421.602 227.314 426.286C227.943 430.97 233.694 445.999 235.644 445.732C237.595 445.466 252.074 434.701 252.074 434.701L249.313 430.811L238.739 437.277C238.739 437.277 237.128 414.151 229.088 417.258Z" fill="black"/>
<path d="M244.604 433.682C244.604 433.682 251.999 427.712 254.464 429.453C256.929 431.195 245.837 435.921 245.837 435.921L244.604 433.682Z" fill="#FFB9B9"/>
<path d="M234.745 409.796C238.693 409.796 241.894 406.567 241.894 402.582C241.894 398.598 238.693 395.368 234.745 395.368C230.798 395.368 227.597 398.598 227.597 402.582C227.597 406.567 230.798 409.796 234.745 409.796Z" fill="#FFB9B9"/>
<path d="M259.394 452.832C259.394 452.832 267.033 453.827 266.788 458.555C266.543 463.283 260.874 482.93 260.874 482.93L260.381 490.64C260.381 490.64 260.874 503.575 259.394 503.326C257.915 503.077 254.465 494.122 254.465 494.122C254.465 494.122 250.275 491.385 252.246 488.898C254.218 486.411 255.698 486.659 255.205 483.923C254.712 481.187 254.958 469.744 256.437 466.261C257.916 462.778 258.778 460.856 258.778 460.856L253.974 460.538L259.394 452.832Z" fill="#FFB9B9"/>
<path opacity="0.1" d="M259.394 452.832C259.394 452.832 267.033 453.827 266.788 458.555C266.543 463.283 260.874 482.93 260.874 482.93L260.381 490.64C260.381 490.64 260.874 503.575 259.394 503.326C257.915 503.077 254.465 494.122 254.465 494.122C254.465 494.122 250.275 491.385 252.246 488.898C254.218 486.411 255.698 486.659 255.205 483.923C254.712 481.187 254.958 469.744 256.437 466.261C257.916 462.778 258.778 460.856 258.778 460.856L253.974 460.538L259.394 452.832Z" fill="black"/>
<path d="M259.888 454.075C259.888 454.075 267.283 455.817 268.022 460.792C268.762 465.767 272.459 480.443 272.459 480.443L276.403 489.648C276.403 489.648 282.565 500.842 279.853 500.593C277.142 500.345 273.445 494.871 272.214 494.871C270.983 494.871 267.284 493.378 267.531 492.383C268.085 491.007 268.743 489.676 269.5 488.403L263.536 477.919C262.385 475.895 261.514 473.721 260.95 471.458C260.359 469.347 259.921 467.195 259.64 465.02C259.64 463.279 254.71 462.532 254.71 462.532L259.888 454.075Z" fill="#FFB9B9"/>
<path d="M235.732 438.155L239.184 448.105C239.184 448.105 244.606 449.598 248.55 450.842C252.495 452.086 259.892 450.344 260.628 453.33C261.364 456.315 259.149 461.539 256.93 462.783C254.712 464.027 253.479 465.271 246.331 463.28C239.183 461.29 222.175 460.793 222.175 460.793C220.526 461.791 218.669 462.387 216.752 462.534C213.547 462.783 212.809 463.032 211.823 462.285C210.837 461.539 212.316 461.539 212.809 459.549C213.302 457.558 213.548 458.305 215.767 456.066C217.986 453.827 219.711 447.11 220.943 444.872C222.175 442.634 222.912 438.155 222.912 438.155L235.732 438.155Z" fill="#090814"/>
<path d="M235.238 408.552C234.343 409.213 233.61 410.073 233.097 411.065C232.584 412.058 232.305 413.156 232.281 414.275C232.281 418.007 224.886 410.295 224.886 410.295C224.886 410.295 228.83 405.321 228.83 403.828C228.83 402.335 235.238 408.552 235.238 408.552Z" fill="#FFB9B9"/>
<path d="M225.873 407.06C225.873 407.06 230.31 408.802 231.296 411.289C232.282 413.776 235.979 418.999 235.979 418.999C235.979 418.999 241.155 424.471 239.43 430.445C237.705 436.418 236.225 437.907 236.225 438.903C236.225 439.898 233.76 441.639 231.789 441.39C229.817 441.142 222.422 440.146 221.929 439.151C221.436 438.156 218.478 423.977 220.45 418.753C222.049 414.761 223.859 410.859 225.872 407.062L225.873 407.06Z" fill="#D6D6E3"/>
<path d="M236.819 402.911C238.419 403.294 239.988 402.265 241.299 401.242C242.043 400.662 242.862 399.836 242.638 398.905C242.436 398.078 241.471 397.609 241.33 396.769C241.232 396.185 241.57 395.617 241.598 395.025C241.573 394.574 241.427 394.138 241.173 393.766C240.92 393.393 240.571 393.098 240.163 392.912C239.383 392.489 238.499 392.312 237.698 391.933C236.476 391.354 235.459 390.311 234.154 389.977C232.37 389.521 230.554 390.493 228.72 390.618C227.61 390.698 226.486 390.459 225.387 390.642C224.34 390.856 223.395 391.419 222.704 392.241C222.013 393.063 221.616 394.096 221.577 395.173C221.563 395.968 221.72 396.848 221.252 397.478C221.066 397.694 220.854 397.887 220.622 398.051C219.841 398.775 219.219 399.656 218.796 400.637C218.373 401.618 218.158 402.678 218.166 403.748C218.124 404.803 218.343 406.054 219.269 406.503C219.765 406.675 220.29 406.749 220.814 406.72C221.077 406.709 221.339 406.763 221.577 406.878C221.815 406.993 222.021 407.164 222.178 407.378C222.6 408.13 221.968 409.24 222.52 409.896C222.763 410.103 223.075 410.208 223.392 410.191C223.709 410.175 224.009 410.037 224.229 409.805C224.713 409.386 225.016 408.781 225.475 408.332C226.368 407.458 227.693 407.299 228.918 407.168C229.281 407.165 229.634 407.048 229.929 406.833C230.151 406.598 230.296 406.298 230.343 405.976C230.504 405.235 230.506 404.468 230.349 403.725C230.271 403.495 230.261 403.246 230.321 403.01C230.402 402.843 230.527 402.702 230.682 402.602C231.442 402.026 232.771 401.188 233.754 401.346C234.853 401.528 235.715 402.646 236.819 402.911Z" fill="#090814"/>
<path d="M226.859 416.016C226.859 416.016 223.902 419.997 223.902 424.723C223.902 429.449 227.599 445.121 229.572 445.121C231.545 445.121 247.32 436.414 247.32 436.414L245.101 432.186L233.76 437.161C233.76 437.161 235.24 414.026 226.859 416.016Z" fill="#D6D6E3"/>
<path d="M260.327 460.917H203.722V471.992H260.327V460.917Z" fill="#181545"/>
<path d="M232.025 472.576C230.8 472.574 229.625 472.082 228.759 471.208C227.893 470.334 227.405 469.149 227.404 467.912V336.753C227.404 335.872 227.652 335.008 228.118 334.262C228.585 333.517 229.252 332.92 230.041 332.542C230.83 332.163 231.709 332.018 232.577 332.123C233.444 332.229 234.264 332.58 234.942 333.137L234.212 334.041C233.704 333.623 233.089 333.359 232.438 333.28C231.787 333.201 231.128 333.31 230.536 333.594C229.944 333.878 229.444 334.326 229.094 334.885C228.744 335.444 228.559 336.092 228.559 336.753V467.912C228.56 468.839 228.925 469.728 229.575 470.384C230.224 471.04 231.105 471.408 232.024 471.41L232.025 472.576Z" fill="#3F3D56"/>
<path d="M223.291 399.328C223.54 399.126 223.255 398.352 222.656 397.599C222.057 396.846 221.37 396.399 221.121 396.601C220.872 396.802 221.157 397.576 221.756 398.329C222.355 399.082 223.042 399.529 223.291 399.328Z" fill="#181545"/>
<path d="M173.8 497.136C168.122 505.925 169.678 517.103 169.678 517.103C169.678 517.103 180.44 514.031 186.119 505.243C191.797 496.454 190.241 485.277 190.241 485.277C190.241 485.277 179.479 488.348 173.8 497.136Z" fill="#4D4FB0"/>
<path d="M178.066 498.687C177.617 509.169 169.907 517.346 169.907 517.346C169.907 517.346 162.925 508.528 163.37 498.047C163.815 487.565 171.529 479.388 171.529 479.388C171.529 479.388 178.515 488.206 178.066 498.687Z" fill="#181545"/>
<path d="M80.3491 500.46C83.0639 510.588 92.3622 516.86 92.3622 516.86C92.3622 516.86 97.2594 506.712 94.5446 496.584C91.8298 486.456 82.5315 480.184 82.5315 480.184C82.5315 480.184 77.6343 490.333 80.3491 500.46Z" fill="#4D4FB0"/>
<path d="M84.339 498.282C91.788 505.6 92.6985 516.85 92.6985 516.85C92.6985 516.85 81.5305 516.235 74.0814 508.916C66.6324 501.597 65.722 490.348 65.722 490.348C65.722 490.348 76.89 490.964 84.339 498.282Z" fill="#181545"/>
<path d="M59.6489 223.689C59.0015 234.161 51.1374 242.187 51.1374 242.187C51.1374 242.187 44.324 233.236 44.9737 222.766C45.6235 212.297 53.4797 204.267 53.4797 204.267C53.4797 204.267 60.2971 213.217 59.6489 223.689Z" fill="#4D4FB0"/>
<path d="M136.819 176.154C134.168 186.298 124.908 192.629 124.908 192.629C124.908 192.629 119.946 182.512 122.6 172.368C125.254 162.223 134.512 155.892 134.512 155.892C134.512 155.892 139.472 166.009 136.819 176.154Z" fill="#181545"/>
<path d="M310.899 295.46C305.252 304.269 294.501 307.382 294.501 307.382C294.501 307.382 292.905 296.211 298.551 287.401C304.197 278.591 314.949 275.478 314.949 275.478C314.949 275.478 316.545 286.65 310.899 295.46Z" fill="#4D4FB0"/>
<path d="M372.792 516.693H-66.7482V519H372.792V516.693Z" fill="#3F3D56"/>
</svg>
