<svg width="32" height="32" viewBox="0 0 32 32" fill="none" xmlns="http://www.w3.org/2000/svg">
<path d="M17.7778 2.1125V10H2.69444C5.56667 5.175 10.45 2 16 2C16.6 2 17.1944 2.0375 17.7778 2.1125ZM19.5556 10V2.44375C23.6056 3.48125 27.0667 6.2375 29.3056 10H19.5556ZM1.66111 12H5.33333V20H0C0 17.125 0.6 14.4125 1.66111 12ZM10.6667 20H7.11111V12H24.8889V20H21.3333V22H32V27C32 28.6562 30.8056 30 29.3333 30H19.5556V22C19.5556 19.7938 17.9611 18 16 18C14.0389 18 12.4444 19.7938 12.4444 22V30H2.66667C1.19444 30 0 28.6562 0 27V22H10.6667V20ZM26.6667 20V12H30.3389C31.4056 14.4125 32 17.125 32 20H26.6667Z" fill="#4D4FB0"/>
</svg>
