<svg width="30" height="30" viewBox="0 0 30 30" fill="none" xmlns="http://www.w3.org/2000/svg">
<g clip-path="url(#clip0_17_35)">
<path d="M4.47089 9.2986H4.50202C4.84405 9.2971 5.17277 9.43408 5.41634 9.67963C5.6599 9.92518 5.79852 10.2593 5.80191 10.609V19.4078C5.80094 19.7585 5.66426 20.0946 5.42172 20.3426C5.17918 20.5906 4.85051 20.7304 4.50751 20.7314C4.16579 20.7324 3.83754 20.5952 3.59437 20.3497C3.3512 20.1042 3.21283 19.7703 3.20945 19.4209V10.5903C3.20945 10.2477 3.34254 9.91918 3.57945 9.67694C3.81636 9.43469 4.13768 9.2986 4.47272 9.2986H4.47089Z" fill="#606060"/>
<path d="M8.89418 5.22119H0.126328V6.81807H8.89418V5.22119Z" fill="#606060"/>
<path d="M8.89418 22.9984H0.126328V24.5953H8.89418V22.9984Z" fill="#606060"/>
<path d="M14.9066 22.0306C14.708 22.0306 14.5176 21.9499 14.3771 21.8063C14.2367 21.6627 14.1578 21.4679 14.1578 21.2649V12.2789C14.1626 12.0789 14.2435 11.8888 14.3834 11.7489C14.5233 11.609 14.711 11.5305 14.9066 11.5301H14.9725C15.1711 11.5301 15.3616 11.6108 15.502 11.7544C15.6425 11.8979 15.7213 12.0927 15.7213 12.2958V21.2012C15.7213 21.4217 15.6357 21.6331 15.4833 21.789C15.3308 21.9449 15.124 22.0324 14.9085 22.0324L14.9066 22.0306Z" fill="#606060"/>
<path d="M19.3189 7.63434H10.5584V9.23122H19.3189V7.63434Z" fill="#606060"/>
<path d="M19.3226 24.614H10.5547V26.2109H19.3226V24.614Z" fill="#606060"/>
<path d="M25.5181 9.39221C25.8197 9.39221 26.1089 9.5147 26.3221 9.73272C26.5353 9.95074 26.6551 10.2464 26.6551 10.5548V19.6568C26.6551 19.9651 26.5353 20.2608 26.3221 20.4789C26.1089 20.6969 25.8197 20.8194 25.5181 20.8194H25.2087C24.9072 20.8194 24.618 20.6969 24.4048 20.4789C24.1916 20.2608 24.0718 19.9651 24.0718 19.6568V10.8768C24.0718 10.6818 24.1093 10.4888 24.1823 10.3087C24.2552 10.1285 24.3622 9.96488 24.497 9.82703C24.6318 9.68917 24.7919 9.57982 24.968 9.50522C25.1442 9.43061 25.333 9.39221 25.5236 9.39221H25.5181Z" fill="#606060"/>
<path d="M29.751 5.31482H20.9832V6.9117H29.751V5.31482Z" fill="#606060"/>
<path d="M29.751 23.092H20.9832V24.6889H29.751V23.092Z" fill="#606060"/>
<path d="M7.45514 0H1.55621C1.14362 0.000495452 0.748078 0.168305 0.456337 0.466617C0.164597 0.76493 0.000484537 1.16939 0 1.59126L0 28.3788C0.000484537 28.8007 0.164597 29.2051 0.456337 29.5034C0.748078 29.8017 1.14362 29.9695 1.55621 29.97H7.45514C7.86773 29.9695 8.26327 29.8017 8.55501 29.5034C8.84675 29.2051 9.01087 28.8007 9.01135 28.3788V1.59126C9.01087 1.16939 8.84675 0.76493 8.55501 0.466617C8.26327 0.168305 7.86773 0.000495452 7.45514 0ZM7.45514 27.5775C7.45514 27.7885 7.37317 27.9909 7.22724 28.1401C7.08132 28.2893 6.88341 28.3732 6.67704 28.3732H2.3398C2.13344 28.3732 1.93552 28.2893 1.7896 28.1401C1.64368 27.9909 1.5617 27.7885 1.5617 27.5775V2.39251C1.5617 2.1815 1.64368 1.97912 1.7896 1.82991C1.93552 1.68071 2.13344 1.59688 2.3398 1.59688H6.67155C6.87791 1.59688 7.07583 1.68071 7.22175 1.82991C7.36767 1.97912 7.44965 2.1815 7.44965 2.39251L7.45514 27.5775Z" fill="#606060"/>
<path d="M28.4438 0.0299683H22.5449C22.1323 0.0304637 21.7367 0.198273 21.445 0.496586C21.1532 0.794898 20.9891 1.19935 20.9886 1.62123V28.4087C20.9891 28.8306 21.1532 29.2351 21.445 29.5334C21.7367 29.8317 22.1323 29.9995 22.5449 30H28.4438C28.8564 29.9995 29.2519 29.8317 29.5437 29.5334C29.8354 29.2351 29.9995 28.8306 30 28.4087V1.62123C29.9995 1.19935 29.8354 0.794898 29.5437 0.496586C29.2519 0.198273 28.8564 0.0304637 28.4438 0.0299683ZM28.4438 27.6075C28.4438 27.8185 28.3618 28.0209 28.2159 28.1701C28.07 28.3193 27.8721 28.4031 27.6657 28.4031H23.3284C23.1221 28.4031 22.9242 28.3193 22.7782 28.1701C22.6323 28.0209 22.5503 27.8185 22.5503 27.6075V2.42248C22.5503 2.21147 22.6323 2.00909 22.7782 1.85988C22.9242 1.71067 23.1221 1.62685 23.3284 1.62685H27.6602C27.8666 1.62685 28.0645 1.71067 28.2104 1.85988C28.3563 2.00909 28.4383 2.21147 28.4383 2.42248L28.4438 27.6075Z" fill="#606060"/>
<path d="M17.9421 4.02686H12.0505C11.19 4.02686 10.4925 4.64464 10.4925 5.40657V28.6203C10.4925 29.3822 11.19 30 12.0505 30H17.9421C18.8026 30 19.5002 29.3822 19.5002 28.6203V5.40657C19.5057 4.64464 18.8081 4.02686 17.9421 4.02686ZM17.9421 27.9258C17.9276 28.1228 17.8375 28.3061 17.6914 28.4355C17.5453 28.5649 17.3551 28.63 17.1622 28.6166H12.8341C12.6413 28.63 12.4511 28.5649 12.305 28.4355C12.1589 28.3061 12.0687 28.1228 12.0542 27.9258V6.10111C12.0692 5.90437 12.1595 5.72162 12.3056 5.59261C12.4516 5.46361 12.6416 5.39877 12.8341 5.41219H17.164C17.3563 5.39928 17.5458 5.46435 17.6914 5.59331C17.8371 5.72226 17.9271 5.90471 17.9421 6.10111V27.9258Z" fill="#606060"/>
</g>
<defs>
<clipPath id="clip0_17_35">
<rect width="30" height="30" fill="white"/>
</clipPath>
</defs>
</svg>
