<svg width="32" height="32" viewBox="0 0 32 32" fill="none" xmlns="http://www.w3.org/2000/svg">
<path d="M8.08332 0H1.71685C0.768658 0 0 0.755919 0 1.68839V29.6581C0 30.5906 0.768658 31.3465 1.71685 31.3465H8.08332C9.03151 31.3465 9.80016 30.5906 9.80016 29.6581V1.68839C9.80016 0.755919 9.03151 0 8.08332 0Z" fill="#181544"/>
<path d="M19.1842 4.07996H12.8178C11.8696 4.07996 11.1009 4.83587 11.1009 5.76835V29.6879C11.1009 30.6204 11.8696 31.3763 12.8178 31.3763H19.1842C20.1324 31.3763 20.9011 30.6204 20.9011 29.6879V5.76835C20.9011 4.83587 20.1324 4.07996 19.1842 4.07996Z" fill="#9D5E2F"/>
<path d="M4.84758 9.65958H4.88393C5.26749 9.65958 5.63533 9.80942 5.90655 10.0761C6.17776 10.3429 6.33013 10.7046 6.33013 11.0818V20.5249C6.33013 20.9021 6.17776 21.2638 5.90655 21.5305C5.63533 21.7973 5.26749 21.9471 4.88393 21.9471C4.50038 21.9471 4.13254 21.7973 3.86132 21.5305C3.59011 21.2638 3.43774 20.9021 3.43774 20.5249V11.048C3.43774 10.6793 3.58671 10.3256 3.85186 10.0648C4.11701 9.80409 4.47664 9.65759 4.85162 9.65759L4.84758 9.65958Z" fill="#494A8A"/>
<path d="M9.80017 6.99391V5.27771L6.67572e-06 5.27771V6.99391L9.80017 6.99391Z" fill="#494A8A"/>
<path d="M9.80219 26.1045V24.3883H0.00201988V26.1045H9.80219Z" fill="#494A8A"/>
<path d="M15.9626 23.3753C15.8521 23.3753 15.7427 23.3538 15.6408 23.312C15.5388 23.2701 15.4462 23.2088 15.3685 23.1316C15.2907 23.0544 15.2293 22.9628 15.1878 22.8622C15.1462 22.7615 15.1254 22.6537 15.1264 22.545L15.1264 12.8954C15.1264 12.6773 15.2145 12.4681 15.3714 12.3139C15.5282 12.1597 15.7409 12.073 15.9626 12.073H16.0434C16.2652 12.073 16.4779 12.1597 16.6347 12.3139C16.7915 12.4681 16.8796 12.6773 16.8796 12.8954V22.4815C16.8796 22.7185 16.7839 22.9459 16.6134 23.1135C16.443 23.2811 16.2118 23.3753 15.9707 23.3753H15.9626Z" fill="#EFCA4F"/>
<path d="M11.1029 7.89769V9.61389H20.897V7.89769L11.1029 7.89769Z" fill="#EFCA4F"/>
<path d="M11.0989 26.1502V27.8664H20.8991V26.1502H11.0989Z" fill="#EFCA4F"/>
<path d="M30.2831 0H23.9167C22.9685 0 22.1998 0.755919 22.1998 1.68839V29.6581C22.1998 30.5906 22.9685 31.3465 23.9167 31.3465H30.2831C31.2313 31.3465 32 30.5906 32 29.6581V1.68839C32 0.755919 31.2313 0 30.2831 0Z" fill="#5053A3"/>
<path d="M27.1524 9.65961C27.4894 9.65961 27.8125 9.79124 28.0508 10.0256C28.2891 10.2599 28.4229 10.5777 28.4229 10.909V20.6977C28.4229 21.0291 28.2891 21.3469 28.0508 21.5812C27.8125 21.8155 27.4894 21.9471 27.1524 21.9471H26.799C26.462 21.9471 26.1389 21.8155 25.9006 21.5812C25.6624 21.3469 25.5285 21.0291 25.5285 20.6977V11.2566C25.5285 10.8352 25.6987 10.431 26.0018 10.133C26.3048 9.83497 26.7158 9.66755 27.1444 9.66755L27.1524 9.65961Z" fill="#9A98CB"/>
<path d="M32 6.99391V5.27771L22.1998 5.27771V6.99391L32 6.99391Z" fill="#9A98CB"/>
<path d="M32.002 26.1045V24.3883H22.2018V26.1045H32.002Z" fill="#9A98CB"/>
</svg>
