<svg width="36" height="38" viewBox="0 0 36 38" fill="none" xmlns="http://www.w3.org/2000/svg">
<g clip-path="url(#clip0_22_457)" filter="url(#filter0_d_22_457)">
<path d="M23 7.5C23 6.2568 22.4732 5.06451 21.5355 4.18544C20.5979 3.30636 19.3261 2.8125 18 2.8125C16.6739 2.8125 15.4021 3.30636 14.4645 4.18544C13.5268 5.06451 13 6.2568 13 7.5C13 8.7432 13.5268 9.93549 14.4645 10.8146C15.4021 11.6936 16.6739 12.1875 18 12.1875C19.3261 12.1875 20.5979 11.6936 21.5355 10.8146C22.4732 9.93549 23 8.7432 23 7.5ZM10 7.5C10 5.51088 10.8429 3.60322 12.3431 2.1967C13.8434 0.790176 15.8783 0 18 0C20.1217 0 22.1566 0.790176 23.6569 2.1967C25.1571 3.60322 26 5.51088 26 7.5C26 9.48912 25.1571 11.3968 23.6569 12.8033C22.1566 14.2098 20.1217 15 18 15C15.8783 15 13.8434 14.2098 12.3431 12.8033C10.8429 11.3968 10 9.48912 10 7.5ZM7.08125 27.1875H28.925C28.3687 23.4785 24.9688 20.625 20.8625 20.625H15.15C11.0437 20.625 7.64375 23.4785 7.0875 27.1875H7.08125ZM4 28.2598C4 22.4883 8.9875 17.8125 15.1438 17.8125H20.8563C27.0125 17.8125 32 22.4883 32 28.2598C32 29.2207 31.1687 30 30.1437 30H5.85625C4.83125 30 4 29.2207 4 28.2598Z" fill="#9D5E30"/>
</g>
<defs>
<filter id="filter0_d_22_457" x="0" y="0" width="36" height="38" filterUnits="userSpaceOnUse" color-interpolation-filters="sRGB">
<feFlood flood-opacity="0" result="BackgroundImageFix"/>
<feColorMatrix in="SourceAlpha" type="matrix" values="0 0 0 0 0 0 0 0 0 0 0 0 0 0 0 0 0 0 127 0" result="hardAlpha"/>
<feOffset dy="4"/>
<feGaussianBlur stdDeviation="2"/>
<feComposite in2="hardAlpha" operator="out"/>
<feColorMatrix type="matrix" values="0 0 0 0 0 0 0 0 0 0 0 0 0 0 0 0 0 0 0.25 0"/>
<feBlend mode="normal" in2="BackgroundImageFix" result="effect1_dropShadow_22_457"/>
<feBlend mode="normal" in="SourceGraphic" in2="effect1_dropShadow_22_457" result="shape"/>
</filter>
<clipPath id="clip0_22_457">
<rect width="28" height="30" fill="white" transform="translate(4)"/>
</clipPath>
</defs>
</svg>
