<svg width="150" height="150" viewBox="0 0 150 150" fill="none" xmlns="http://www.w3.org/2000/svg">
<path d="M10.0199 71.64C10.0199 71.64 74.1599 60.12 81.6599 60.12C89.1599 60.12 129.75 74.64 135.51 78.9C141.27 83.16 142.77 99.93 136.02 105.72C129.27 111.51 52.3499 124.77 49.8299 124.77C47.3099 124.77 7.52994 99.69 7.52994 99.69L21.2999 94.92L16.5299 76.89L14.7299 74.04L10.0199 71.64Z" fill="#100F4A"/>
<path d="M10.6799 71.94C12.6899 71.58 14.6699 71.22 16.6799 70.86C21.5699 69.99 26.4599 69.15 31.3199 68.28C37.5299 67.2 43.7699 66.15 49.9799 65.1C55.9499 64.11 61.8899 63.12 67.8599 62.22C71.9399 61.59 76.0499 60.93 80.1899 60.54C81.2699 60.39 82.3799 60.39 83.4599 60.51C85.4999 60.81 87.5099 61.26 89.4899 61.8C95.6399 63.42 101.7 65.43 107.7 67.53C113.97 69.72 120.21 72.03 126.36 74.58C128.46 75.48 130.71 76.44 132.66 77.43C134.37 78.3 135.72 79.14 136.83 80.82C138.66 83.64 139.44 87.12 139.71 90.42C140.01 93.96 139.71 97.68 138.36 100.98C137.58 102.93 136.35 104.94 134.46 105.96C133.26 106.59 131.97 107.13 130.68 107.52C126.39 109.02 121.98 110.13 117.57 111.18C111.69 112.62 105.78 113.91 99.8699 115.14C93.5399 116.46 87.2399 117.72 80.8799 118.89C75.2399 119.97 69.5999 120.99 63.9299 121.98C60.0899 122.64 56.2199 123.33 52.3499 123.93C51.4199 124.08 50.5499 124.23 49.6499 124.32C49.5599 124.32 49.4399 124.32 49.3499 124.35C49.2599 124.38 49.4099 124.38 49.4699 124.38C49.4399 124.38 49.3799 124.35 49.3499 124.35C49.2899 124.38 49.4999 124.41 49.3799 124.35L49.0799 124.23C49.3499 124.35 48.9599 124.17 48.8999 124.14L48.4799 123.93C47.0099 123.21 45.3299 122.28 43.7999 121.38C41.5199 120.09 39.2699 118.74 36.9899 117.42C31.7099 114.3 26.4899 111.12 21.2999 107.91C17.4599 105.54 13.6199 103.17 9.80994 100.77L8.06994 99.69L8.18994 99.93L20.2199 95.76L21.9599 95.16C21.9899 95.16 22.0199 95.13 22.0199 95.1V95.07L19.0799 83.97L17.4599 78C17.3999 77.7 17.3099 77.4 17.2199 77.1C17.0099 76.68 16.7399 76.29 16.4699 75.9C16.1699 75.42 15.8699 74.91 15.5399 74.43C15.0899 73.77 14.0399 73.47 13.3499 73.11L10.4399 71.61C10.1999 71.49 9.71994 71.19 9.44994 71.31C9.17994 71.43 9.44994 71.55 9.59994 71.64L14.3099 74.04L14.0399 73.8L14.9999 75.33C15.2999 75.75 15.5999 76.2 15.8399 76.65C16.0499 77.28 16.2299 77.91 16.3499 78.57L18.8099 87.87L19.9799 92.37L20.3699 93.87C20.4599 94.11 20.5199 94.38 20.5799 94.62C20.5799 94.74 20.6399 94.56 20.6099 94.59C20.5199 94.62 20.4299 94.65 20.3399 94.68L19.1399 95.1L14.7599 96.6L6.83994 99.33C6.68994 99.39 6.92994 99.54 6.95994 99.57C9.23994 101.01 11.5199 102.42 13.7999 103.86C18.8099 106.98 23.7899 110.07 28.7999 113.1C33.6599 116.07 38.5199 119.01 43.4999 121.8C45.0599 122.67 46.6199 123.57 48.2399 124.32C49.0199 124.68 49.8599 125.13 50.7299 125.04C53.2499 124.8 55.7699 124.29 58.2599 123.87C63.2099 123.06 68.1299 122.19 73.0499 121.29C79.2599 120.15 85.4699 118.98 91.6799 117.75C98.0399 116.49 104.37 115.2 110.7 113.76C116.04 112.56 121.38 111.33 126.63 109.83C128.55 109.29 130.47 108.72 132.33 108.06C133.59 107.64 134.82 107.13 135.99 106.47C138.03 105.27 139.29 102.96 140.04 100.8C141.24 97.38 141.45 93.63 141.03 90.06C140.67 86.85 139.83 83.43 137.88 80.79C136.74 79.23 135.18 78.3 133.47 77.43C128.46 74.88 123.18 72.87 117.93 70.86C111.33 68.37 104.67 66.03 97.9499 63.9C95.0699 62.97 92.1299 62.1 89.2199 61.32C87.1199 60.72 84.9899 60.27 82.8299 59.91C80.0099 59.49 77.0699 60.09 74.2799 60.48C69.0299 61.2 63.7799 62.01 58.5599 62.85C52.1999 63.87 45.8099 64.95 39.4499 66.03C33.5999 67.02 27.7499 68.04 21.8999 69.06C18.2399 69.69 14.5799 70.35 10.8899 71.01L9.35994 71.28C9.14994 71.31 9.74994 71.67 9.77994 71.67C10.0499 71.88 10.3799 71.94 10.6799 71.94Z" fill="#4D4FB0"/>
<path d="M128.91 79.0378C128.91 79.0378 137.67 77.7778 137.16 89.8078C136.65 101.838 130.65 105.078 116.61 108.108C102.57 111.138 49.5 121.398 49.5 121.398L45 91.0678C45.03 91.0678 104.34 79.5478 128.91 79.0378Z" fill="white"/>
<path d="M129.48 79.53C129.66 79.5 129.3 79.53 129.42 79.53C129.54 79.53 129.66 79.5 129.78 79.5C129.96 79.5 130.14 79.5 130.32 79.5C130.41 79.5 130.53 79.5 130.62 79.53H130.77C131.01 79.56 130.74 79.53 130.83 79.53C131.1 79.56 131.37 79.62 131.64 79.68C131.79 79.71 131.94 79.74 132.06 79.8L132.27 79.86C132.45 79.92 132.24 79.83 132.39 79.89C132.72 80.01 133.02 80.16 133.32 80.34L133.53 80.46L133.65 80.52C133.8 80.64 133.95 80.76 134.1 80.88C135.51 82.08 136.26 83.97 136.59 85.86C136.8 87.3 136.86 88.77 136.74 90.21C136.68 91.44 136.53 92.64 136.29 93.84C135.9 95.85 135.12 97.74 133.95 99.39C132.81 100.92 131.34 102.21 129.66 103.11C125.43 105.48 120.48 106.47 115.8 107.46C112.53 108.15 109.29 108.81 106.02 109.47C101.67 110.34 97.2899 111.21 92.9399 112.08C88.1999 113.01 83.4599 113.94 78.7199 114.9L65.3699 117.51L55.0799 119.52L49.9499 120.51L49.7099 120.54L50.6099 120.99L49.1099 110.76L46.7099 94.44L46.1399 90.69L45.5999 91.47C47.6099 91.08 49.6499 90.69 51.6599 90.33C56.7899 89.37 61.9499 88.44 67.1099 87.57C73.9499 86.37 80.8199 85.23 87.7199 84.18C94.8899 83.07 102.09 82.05 109.29 81.18C115.32 80.46 121.38 79.8 127.47 79.56C128.07 79.53 128.67 79.53 129.3 79.5C130.23 79.47 130.26 78.18 129.33 78.21C123.36 78.33 117.42 78.93 111.48 79.62C104.34 80.43 97.1999 81.42 90.0899 82.5C83.0999 83.55 76.1099 84.69 69.1499 85.89C63.7199 86.82 58.2599 87.78 52.8299 88.8C50.3399 89.25 47.8199 89.64 45.3599 90.21L45.2399 90.24C44.8799 90.3 44.6399 90.63 44.6999 90.99V91.02L46.1999 101.25L48.5999 117.57L49.1699 121.32C49.2299 121.71 49.7699 121.86 50.0699 121.77L53.7599 121.05L63.3299 119.19L76.4399 116.64C81.2699 115.68 86.0999 114.75 90.8999 113.79C95.4599 112.89 100.02 111.99 104.58 111.06C108.12 110.34 111.63 109.65 115.14 108.9C119.76 107.94 124.5 106.98 128.82 105C130.77 104.16 132.54 102.96 134.04 101.49C135.48 100.02 136.53 98.25 137.19 96.3C137.97 93.87 138.36 91.32 138.33 88.77C138.36 86.31 138 83.67 136.62 81.57C135.09 79.29 132.48 77.97 129.75 78.12C129.54 78.12 129.33 78.15 129.12 78.18C128.76 78.24 128.52 78.57 128.58 78.93V78.96C128.67 79.47 129.12 79.59 129.48 79.53Z" fill="#4D4FB0"/>
<path d="M14.7299 74.04C14.7299 74.04 19.1999 87.48 14.3699 99.21C14.3699 99.21 47.0999 121.26 49.8599 121.26C49.8599 121.26 52.9499 104.01 45.3899 90.93L14.7299 74.04Z" fill="white"/>
<path d="M14.0099 73.86C14.5499 75.57 14.9699 77.31 15.2399 79.08C15.9599 83.07 16.0799 87.15 15.6599 91.2C15.3599 93.9 14.6999 96.51 13.6799 99.03C13.6799 99.06 13.7099 99.12 13.7699 99.12C14.8799 99.87 15.9899 100.62 17.1299 101.37C19.7999 103.14 22.4999 104.94 25.1699 106.68C28.4699 108.84 31.7999 111 35.1299 113.13C38.0699 114.99 41.0399 116.85 44.0399 118.62C45.0899 119.22 46.1699 119.85 47.2499 120.39C48.0299 120.81 48.8399 121.14 49.6799 121.35C49.9199 121.41 50.1599 121.44 50.3999 121.47C50.3999 121.47 50.6399 121.5 50.6399 121.44C50.8499 120.27 50.9699 119.04 51.0599 117.87C51.2999 114.93 51.3299 111.96 51.1199 108.99C50.8799 105.15 50.1899 101.34 49.0199 97.65C48.3899 95.7 47.6099 93.81 46.6499 92.01C46.4699 91.68 46.3199 91.2 46.0199 90.99C45.9299 90.93 45.8399 90.9 45.7499 90.84L42.5399 89.07L36.8999 85.98L30.1499 82.26L23.4899 78.57L18.1799 75.66C17.2799 75.18 16.3799 74.67 15.4799 74.19L15.3599 74.13C15.0599 73.98 14.6999 73.89 14.3699 73.86C14.2799 73.86 13.7999 73.83 14.0699 73.98L15.9299 75L20.6999 77.61L27.1199 81.15L33.9599 84.9L39.9599 88.2L43.9199 90.36C44.2199 90.48 44.4899 90.63 44.7299 90.81C44.7599 90.81 44.7599 90.81 44.7899 90.84C44.8199 90.87 44.8199 90.96 44.8499 90.99C44.9699 91.23 45.1199 91.47 45.2699 91.74C45.7499 92.67 46.1999 93.63 46.6199 94.59C48.0899 98.25 49.0499 102.12 49.4699 106.05C49.8299 109.26 49.9199 112.53 49.7399 115.77C49.6499 117.48 49.4999 119.16 49.2299 120.84L49.1999 121.08L49.4399 121.05C49.3199 121.05 49.6499 121.08 49.6199 121.08C49.7099 121.11 49.7699 121.11 49.8299 121.14C49.7099 121.11 50.0099 121.2 49.7999 121.14L49.7099 121.11C49.5899 121.08 49.8599 121.17 49.7099 121.11L49.2299 120.9L48.9599 120.78L48.8399 120.72C48.9599 120.78 48.7499 120.69 48.7199 120.66C47.6999 120.15 46.6799 119.58 45.6899 119.01C42.7499 117.3 39.8999 115.5 37.0199 113.7C33.7499 111.63 30.4799 109.53 27.2399 107.4C24.4799 105.6 21.7499 103.8 18.9899 101.97L16.3199 100.17C15.9299 99.87 15.5099 99.57 15.0599 99.3C15.0299 99.3 15.0299 99.27 14.9999 99.27L15.0899 99.36C16.8599 95.07 17.4599 90.39 17.3099 85.77C17.2199 82.47 16.7399 79.2 15.9299 75.99C15.7799 75.39 15.6299 74.79 15.4199 74.19C15.3599 74.01 14.8799 73.92 14.7299 73.89C14.6999 73.89 13.9799 73.8 14.0099 73.86Z" fill="#4D4FB0"/>
<path d="M7.52994 99.69C7.52994 99.69 8.00994 101.85 8.42994 102.66C8.84994 103.47 46.3799 128.1 48.8099 128.1C51.2399 128.1 129.81 112.53 136.68 107.49C143.55 102.45 144.75 85.47 137.88 79.2C131.01 72.93 45.3899 90.9 45.3899 90.9L10.0199 71.64C10.0199 71.64 10.5599 73.5 10.9199 73.86C11.2799 74.22 44.7299 92.85 45.8699 92.85C47.0099 92.85 129.81 77.64 134.79 79.74C139.77 81.84 143.16 98.58 135.27 105.33C127.38 112.08 49.8299 124.74 49.8299 124.74L7.52994 99.69Z" fill="white"/>
<path d="M6.83994 99.48C6.95994 100.05 7.10994 100.62 7.28994 101.19C7.40994 101.64 7.52994 102.21 7.82994 102.57C8.03994 102.81 8.27994 102.99 8.54994 103.17C9.71994 104.04 10.9199 104.85 12.1199 105.66C16.3199 108.51 20.5799 111.3 24.8099 114.06C29.5799 117.15 34.3499 120.21 39.1799 123.15C41.0099 124.29 42.8699 125.4 44.7599 126.45C45.8999 127.14 47.0999 127.74 48.3299 128.25C48.9299 128.49 49.5599 128.52 50.1899 128.4C51.1799 128.25 52.1699 128.07 53.1599 127.89C56.8499 127.23 60.5099 126.51 64.1699 125.79C69.3899 124.74 74.6099 123.69 79.8299 122.61C85.7399 121.38 91.6199 120.12 97.4999 118.8C103.2 117.54 108.9 116.22 114.57 114.84C119.25 113.7 123.9 112.53 128.52 111.18C131.25 110.37 134.19 109.62 136.71 108.27C138.54 107.28 139.89 105.39 140.82 103.59C142.35 100.56 143.07 97.14 143.19 93.75C143.31 90.36 142.89 86.91 141.57 83.79C140.76 81.9 139.5 79.71 137.58 78.75C135.18 77.55 132.15 77.61 129.54 77.61C125.22 77.67 120.9 77.94 116.58 78.45C111.12 79.02 105.69 79.77 100.26 80.58C94.4399 81.45 88.6199 82.41 82.8299 83.4C77.3699 84.33 71.9099 85.32 66.4799 86.37C62.1299 87.18 57.7799 88.02 53.4299 88.89C50.9099 89.4 48.4199 89.91 45.8999 90.42L44.9099 90.63L45.7199 90.84L33.7199 84.3L14.6699 73.92L10.2899 71.52C10.1999 71.49 9.23994 71.13 9.32994 71.43C9.53994 72.18 9.74994 73.32 10.4099 73.83C10.6799 74.01 10.9499 74.19 11.2499 74.34C12.4799 75.06 13.7399 75.75 14.9999 76.47C19.3499 78.9 23.6999 81.33 28.0499 83.73C32.3699 86.1 36.6899 88.47 41.0699 90.78C42.3299 91.44 43.5899 92.13 44.9099 92.73C45.4799 93 46.0799 93.3 46.7399 93.21C48.5699 93 50.3999 92.61 52.2299 92.28C55.9499 91.62 59.6699 90.99 63.3899 90.33C68.3099 89.49 73.2599 88.62 78.1799 87.78C83.6099 86.85 89.0699 85.95 94.4999 85.08C99.8099 84.21 105.15 83.37 110.46 82.59C114.96 81.93 119.46 81.27 123.96 80.73C126.96 80.37 129.96 79.98 132.99 79.92C133.5 79.92 133.77 79.92 134.22 79.92C134.37 79.92 134.55 79.95 134.7 79.95C134.85 79.95 134.64 79.95 134.76 79.95C134.88 79.95 135 80.04 134.79 79.95C134.97 80.04 134.67 79.89 134.76 79.92C134.85 79.98 134.97 80.04 135.06 80.1C135.42 80.37 135.75 80.7 136.05 81.06C136.77 82.02 137.37 83.07 137.79 84.21C138.87 87.03 139.41 90 139.35 93C139.32 96.06 138.75 99.24 137.22 101.94C136.32 103.53 135.12 104.94 133.5 105.84C132.36 106.44 131.16 106.98 129.93 107.4C126.21 108.78 122.37 109.8 118.5 110.79C113.46 112.08 108.39 113.25 103.29 114.33C97.7399 115.53 92.1299 116.67 86.5499 117.75C81.2399 118.77 75.9299 119.79 70.6199 120.75C66.3299 121.53 62.0699 122.28 57.7799 123C55.2899 123.42 52.8299 123.84 50.3399 124.26L49.3499 124.41L50.3399 124.71L46.1399 122.22L35.9999 116.22L23.7899 108.99L13.2299 102.75C11.5199 101.73 9.80994 100.71 8.06994 99.69L8.00994 99.66C7.79994 99.54 7.28994 99.24 7.01994 99.36C6.74994 99.48 6.98994 99.63 7.16994 99.75L14.7599 104.25L30.8099 113.7L45.4199 122.34L49.1099 124.53C49.6799 124.86 50.2199 125.13 50.8799 125.01C53.7299 124.53 56.5799 124.05 59.3999 123.57C64.8899 122.61 70.3799 121.65 75.8699 120.63C82.6199 119.4 89.3699 118.08 96.1199 116.73C102.69 115.38 109.23 114 115.74 112.41C120.75 111.21 125.79 109.95 130.68 108.21C132.21 107.7 133.65 107.07 135.06 106.29C137.37 104.94 138.9 102.39 139.74 99.93C140.94 96.36 141 92.4 140.34 88.71C139.8 85.86 138.81 82.5 136.56 80.49C134.4 78.57 131.22 79.14 128.58 79.35C123.75 79.77 118.95 80.43 114.15 81.12C107.79 82.02 101.46 83.01 95.1299 84.03C88.4399 85.11 81.7499 86.22 75.0599 87.36C69.2999 88.35 63.5399 89.34 57.7799 90.33C54.2399 90.96 50.6999 91.59 47.1299 92.19C46.7099 92.25 46.3199 92.34 45.8999 92.4C45.7799 92.43 45.6599 92.43 45.5399 92.46C45.5099 92.46 45.4799 92.46 45.4199 92.46C45.3299 92.49 45.4199 92.43 45.4199 92.46C45.4199 92.46 45.8399 92.52 45.6599 92.49C45.9299 92.52 45.7199 92.49 45.5699 92.46C45.5099 92.43 45.4499 92.43 45.4199 92.4L44.9999 92.19C44.2199 91.83 43.4699 91.44 42.6899 91.02C37.3799 88.26 32.1299 85.38 26.9099 82.47C22.2299 79.89 17.5199 77.31 12.8999 74.64C12.4499 74.4 12.0299 74.13 11.5799 73.86C11.5499 73.83 11.4899 73.8 11.4599 73.77C11.4299 73.74 11.5499 73.86 11.5499 73.83C11.5499 73.8 11.6399 74.01 11.5799 73.86C11.5499 73.8 11.5199 73.74 11.4899 73.68C11.1899 73.08 10.9499 72.42 10.7999 71.76L9.83994 71.67L18.8399 76.59L35.6999 85.77L42.2999 89.37C43.2599 89.91 44.2199 90.48 45.2099 90.96C45.9299 91.29 46.3799 91.11 47.0999 90.96C48.2999 90.72 49.5299 90.45 50.7599 90.21C55.1699 89.31 59.5799 88.44 64.0199 87.6C70.1399 86.43 76.2899 85.29 82.4099 84.24C89.1299 83.07 95.8499 81.96 102.6 80.97C108.72 80.07 114.87 79.26 121.05 78.69C125.4 78.3 129.87 77.91 134.25 78.3C134.91 78.36 135.57 78.45 136.23 78.6C136.29 78.6 136.38 78.63 136.47 78.66C136.65 78.69 136.41 78.63 136.5 78.66C136.59 78.69 136.77 78.75 136.92 78.78C137.01 78.81 136.74 78.72 136.95 78.78L137.1 78.84C136.8 78.72 137.4 78.99 137.13 78.84C137.25 78.9 137.34 78.99 137.28 78.93C137.43 79.05 137.55 79.17 137.7 79.29C138.33 79.92 138.87 80.61 139.32 81.36C140.28 82.98 140.97 84.78 141.36 86.61C142.2 90.6 142.11 94.74 141.09 98.67C140.28 101.76 138.81 105.3 136.05 107.16C135.06 107.82 133.86 108.24 132.75 108.66C130.86 109.35 128.94 109.92 127.02 110.49C121.53 112.08 115.98 113.46 110.43 114.78C103.68 116.4 96.8999 117.9 90.1199 119.37C83.5199 120.81 76.9499 122.19 70.3499 123.51C65.2799 124.53 60.1799 125.55 55.0799 126.51C53.5199 126.81 51.9899 127.08 50.4299 127.35C49.9799 127.44 49.4999 127.5 49.0499 127.56C48.8999 127.59 48.7799 127.59 48.6299 127.62C48.5999 127.62 48.5399 127.62 48.4799 127.62C48.3299 127.65 48.5099 127.62 48.4799 127.62C48.4499 127.62 48.5999 127.62 48.5699 127.65C48.5399 127.65 48.5099 127.62 48.4499 127.62C48.6899 127.77 48.5099 127.65 48.4199 127.62C48.2699 127.56 48.1199 127.47 48.2399 127.56L47.8199 127.35C47.0699 126.99 46.3799 126.6 45.7199 126.21C43.4999 124.95 41.3099 123.63 39.1199 122.28C33.4799 118.8 27.9299 115.23 22.3799 111.63C18.2999 108.96 14.1599 106.29 10.1999 103.47C9.86994 103.23 9.53994 102.96 9.20994 102.72C9.23994 102.75 9.26994 102.81 9.20994 102.72C9.32994 102.93 9.14994 102.54 9.11994 102.51C9.02994 102.3 8.96994 102.09 8.90994 101.91C8.69994 101.22 8.51994 100.53 8.33994 99.81C8.12994 99.54 6.77994 99.21 6.83994 99.48Z" fill="#4D4FB0"/>
<path d="M51.9899 107.64C59.6099 106.5 67.1999 105.24 74.7599 103.8C76.8899 103.41 79.0199 102.99 81.1499 102.54C81.4499 102.48 80.9399 102.36 80.8799 102.36C80.5499 102.3 80.1899 102.27 79.8599 102.33C72.2999 103.86 64.7399 105.21 57.1199 106.44C54.9899 106.8 52.8299 107.13 50.6699 107.43C50.3699 107.46 50.8799 107.61 50.9399 107.61C51.2999 107.67 51.6299 107.7 51.9899 107.64Z" fill="#4D4FB0"/>
<path d="M87.0599 96.69L105.69 92.88C106.02 92.82 106.44 92.61 106.44 92.22C106.41 91.89 106.11 91.65 105.78 91.71C105.75 91.71 105.75 91.71 105.72 91.71C99.5099 92.97 93.2999 94.26 87.0899 95.52C86.7599 95.58 86.3399 95.79 86.3399 96.18C86.3699 96.51 86.6699 96.75 86.9999 96.69C86.9999 96.69 87.0299 96.69 87.0599 96.69Z" fill="#4D4FB0"/>
<path d="M25.1399 91.26C29.7299 93.87 34.2899 96.6 38.8199 99.39C38.9999 99.51 39.2399 99.48 39.3599 99.3C39.4199 99.24 39.4499 99.15 39.4199 99.06C39.4199 98.67 39.2099 98.34 38.9099 98.13C34.4099 95.34 29.8499 92.61 25.2299 90C25.0499 89.88 24.8099 89.91 24.6899 90.09C24.6299 90.15 24.6299 90.24 24.6299 90.33C24.6299 90.72 24.8099 91.05 25.1399 91.26Z" fill="#4D4FB0"/>
<path d="M39.3299 108.36C39.7799 108.3 40.2599 108.57 40.6499 108.78C41.1599 109.05 41.6399 109.35 42.1199 109.62L45.2399 111.45C45.5399 111.63 45.9299 111.66 46.2599 111.54C46.4399 111.48 46.8299 111.24 46.5299 111.06L42.8399 108.9C41.6099 108.15 40.3799 107.52 38.9099 107.7C38.6999 107.73 38.2499 107.85 38.3999 108.15C38.5199 108.42 39.0899 108.39 39.3299 108.36Z" fill="#4D4FB0"/>
<path d="M50.91 34.8C50.91 34.8 40.26 30.99 39 30.39C37.74 29.79 34.62 29.22 36.69 32.1C38.76 34.98 43.5 37.2 43.98 37.68C44.46 38.16 48.72 38.61 49.53 38.04C50.34 37.47 50.91 34.8 50.91 34.8Z" fill="#100F4A"/>
<path d="M51.63 34.68C49.74 34.02 47.88 33.33 45.99 32.64C43.83 31.86 41.67 31.08 39.54 30.21C39 30 38.43 29.85 37.83 29.79C37.41 29.76 37.02 29.79 36.6 29.85C36.21 29.88 35.85 29.97 35.49 30.18C35.01 30.51 35.28 31.17 35.49 31.59C36 32.43 36.63 33.21 37.38 33.84C38.76 35.04 40.26 36.06 41.85 36.96C42.3 37.2 42.72 37.47 43.14 37.74C43.5 37.98 43.92 38.13 44.37 38.19C45.99 38.52 47.64 38.55 49.26 38.25C49.59 38.22 49.92 38.1 50.22 37.95C50.46 37.77 50.64 37.5 50.79 37.23C51.12 36.57 51.36 35.85 51.54 35.13C51.6 35.01 51.63 34.86 51.63 34.68C51.66 34.65 50.94 34.71 50.91 34.74C50.79 34.77 50.22 34.8 50.19 34.95C50.1 35.37 49.98 35.82 49.83 36.24C49.62 36.84 49.41 37.65 48.9 38.1C48.84 38.16 48.75 38.19 48.69 38.22C48.69 38.22 48.51 38.25 48.81 38.19C48.84 38.19 48.9 38.19 48.93 38.16C48.84 38.16 49.05 38.13 48.93 38.16H48.6C48.42 38.16 48.24 38.16 48.06 38.16C47.34 38.13 46.62 38.07 45.9 37.95C45.48 37.92 45.06 37.77 44.7 37.56C44.37 37.32 44.04 37.11 43.68 36.93C42.24 36.12 40.89 35.22 39.6 34.23C38.88 33.66 38.22 33.03 37.65 32.31C37.29 31.83 36.66 31.08 36.75 30.39C36.75 30.3 36.81 30.21 36.84 30.15C36.9 30.09 36.99 30.06 37.05 30C37.05 30 36.42 30.12 36.39 30.09C36.36 30.06 36.42 30.09 36.45 30.09C36.57 30.12 36.72 30.12 36.84 30.12C37.35 30.21 37.83 30.36 38.28 30.57C40.23 31.41 42.27 32.1 44.25 32.82L47.94 34.17C48.66 34.41 49.35 34.71 50.07 34.95L50.16 34.98C50.46 35.01 50.79 35.01 51.09 34.89C51.21 34.83 51.72 34.71 51.63 34.68Z" fill="#100F4A"/>
<path d="M53.58 49.5C53.58 49.5 49.65 39.48 49.53 38.04C49.53 38.04 47.34 36.72 45 35.64C42.54 34.5 38.4 33.12 38.4 33.12C38.4 33.12 44.31 38.91 44.61 40.35C44.91 41.79 48.45 57.27 48.45 57.27C48.45 57.27 53.73 50.85 53.58 49.5Z" fill="white"/>
<path d="M54.03 49.62C53.04 47.1 52.08 44.55 51.18 42C50.91 41.25 50.64 40.5 50.4 39.75C50.31 39.48 50.22 39.21 50.16 38.94C50.13 38.82 50.1 38.73 50.07 38.61C50.07 38.58 50.04 38.52 50.04 38.49C50.04 38.46 50.07 38.61 50.04 38.49C49.92 37.56 48.63 37.08 47.91 36.69C46.65 35.97 45.33 35.34 44.01 34.74C42.09 33.9 40.08 33.18 38.1 32.52C37.89 32.46 37.83 32.64 37.86 32.79C37.92 33.06 38.07 33.3 38.25 33.48C38.64 33.87 39.03 34.26 39.42 34.65C39.81 35.04 40.2 35.46 40.59 35.88C40.8 36.09 40.98 36.3 41.19 36.51L41.46 36.81L41.61 36.99L41.76 37.14C42.15 37.59 42.54 38.04 42.93 38.49C43.11 38.7 43.29 38.91 43.44 39.15C43.5 39.24 43.56 39.33 43.62 39.39L43.65 39.42L43.77 39.6C43.8 39.66 43.86 39.75 43.89 39.81C43.92 39.87 43.95 39.9 43.95 39.93C43.89 39.78 44.04 40.05 43.95 39.93C43.98 39.99 44.04 40.2 43.98 40.02C43.98 40.08 44.01 40.11 44.01 40.17C44.04 40.38 44.1 40.56 44.13 40.77C45.03 44.88 45.99 48.96 46.92 53.07C47.22 54.39 47.52 55.74 47.85 57.06C47.94 57.33 48.09 57.57 48.3 57.75C48.39 57.81 48.69 58.08 48.81 57.93C49.44 57.18 50.04 56.4 50.64 55.65C51.66 54.36 52.62 53.01 53.46 51.57C53.73 51.12 54.09 50.55 54.03 49.98C53.97 49.62 53.76 49.32 53.49 49.11C53.34 48.99 52.95 48.84 52.98 49.17C52.98 49.2 52.98 49.23 52.98 49.29C52.98 49.35 53.01 49.23 52.98 49.35C52.95 49.44 52.92 49.56 52.89 49.65C52.8 49.92 52.68 50.16 52.53 50.4C52.17 51.06 51.75 51.69 51.33 52.32C50.46 53.58 49.53 54.78 48.57 55.98C48.36 56.25 48.15 56.52 47.94 56.79L48.93 57.63C48.12 54.18 47.34 50.73 46.56 47.28C46.14 45.36 45.69 43.47 45.27 41.55C45.18 41.01 45.03 40.47 44.79 39.99C44.25 39.09 43.59 38.22 42.87 37.44C41.49 35.85 40.02 34.32 38.49 32.85L38.64 33.81C41.82 34.83 44.91 36.12 47.88 37.68C48.48 38.01 49.08 38.34 49.65 38.7L48.96 37.74C49.05 38.34 49.2 38.97 49.44 39.54C49.74 40.47 50.07 41.4 50.4 42.33C51.12 44.28 51.84 46.23 52.59 48.18L53.07 49.47C53.19 49.8 53.46 50.07 53.79 50.19C54.18 50.16 54.12 49.83 54.03 49.62Z" fill="#100F4A"/>
<path d="M42.3 41.43C42.3 41.43 41.13 36.33 40.17 36.51C39.21 36.69 32.76 39.93 30.81 40.95C28.86 41.97 26.7 43.77 27 45.15C27.54 47.52 36.42 43.2 36.42 43.2L42.3 41.43Z" fill="#100F4A"/>
<path d="M42.72 41.94C42.48 40.8 42.15 39.69 41.73 38.58C41.46 37.77 41.04 37.02 40.53 36.36C40.38 36.18 40.17 35.91 39.9 35.85C39.72 35.85 39.57 35.88 39.42 35.94C37.98 36.51 36.57 37.14 35.22 37.86C33.69 38.61 32.16 39.36 30.66 40.14C29.64 40.65 28.71 41.28 27.87 42.03C27.21 42.66 26.43 43.56 26.61 44.52C26.73 45.15 27.21 45.99 27.81 46.29C28.26 46.47 28.77 46.5 29.25 46.41C30.69 46.26 32.1 45.75 33.45 45.24C34.53 44.85 35.55 44.4 36.6 43.89C37.23 43.62 37.89 43.41 38.55 43.26L42.42 42.09L42.69 42C42.78 41.97 42.21 40.65 41.91 40.74L39.15 41.58C38.13 41.88 37.05 42.15 36.06 42.51C35.49 42.72 34.95 43.02 34.41 43.26C33.15 43.8 31.86 44.28 30.57 44.7C29.94 44.91 29.31 45.03 28.68 45.12C28.2 45.21 27.72 45.21 27.24 45.06C27.18 45.03 27.06 44.97 27.03 44.94C26.97 44.85 27 44.91 27.03 44.94C27.09 45.09 27.24 45.24 27.3 45.36C27.33 45.42 27.45 45.69 27.45 45.63C27.45 45.48 27.45 45.3 27.45 45.15C27.48 44.91 27.57 44.7 27.69 44.49C28.23 43.56 29.13 42.87 30 42.27C31.32 41.37 32.82 40.71 34.23 40.02C35.76 39.24 37.29 38.49 38.88 37.8C39.36 37.56 39.87 37.35 40.41 37.17C40.53 37.11 40.65 37.11 40.8 37.14C40.89 37.17 40.86 37.2 40.8 37.11C40.8 37.11 40.74 36.99 40.77 37.08C40.74 36.93 40.74 37.02 40.74 37.05C40.8 37.17 40.71 36.99 40.77 37.08C41.28 38.22 41.64 39.39 41.91 40.62L41.97 40.89C42.06 41.22 42.24 41.52 42.48 41.79C42.48 41.88 42.78 42.24 42.72 41.94Z" fill="#100F4A"/>
<path d="M47.91 58.23L42.3 41.43C42.3 41.43 40.53 41.07 37.41 42C34.29 42.93 29.4 44.4 30.84 44.4C32.28 44.4 36.54 44.76 36.54 44.76C36.54 44.76 40.35 62.97 41.07 62.97C41.79 62.97 47.91 58.23 47.91 58.23Z" fill="white"/>
<path d="M48.6 58.5L46.71 52.83L43.68 43.77L42.96 41.7C42.78 41.37 42.45 41.1 42.06 41.04C40.98 40.86 39.9 40.89 38.82 41.1C36.93 41.43 35.04 42.09 33.21 42.66C32.46 42.9 31.71 43.14 30.99 43.41C30.75 43.5 30.51 43.59 30.27 43.71C30.18 43.77 29.97 43.83 29.91 43.95C29.76 44.22 30.27 44.52 30.45 44.61C30.72 44.76 31.02 44.82 31.32 44.82C31.92 44.82 32.55 44.85 33.15 44.91C34.41 45 35.64 45.09 36.87 45.21L35.82 44.52C36.06 45.69 36.33 46.86 36.57 48.03C37.11 50.49 37.65 52.92 38.22 55.38C38.7 57.45 39.18 59.55 39.81 61.56C39.96 62.04 40.11 62.67 40.53 63C40.89 63.36 41.4 63.48 41.88 63.3C42.24 63.12 42.6 62.94 42.93 62.7C44.79 61.47 46.59 60.12 48.36 58.74L48.48 58.65C48.81 58.38 47.58 57.6 47.28 57.84C45.78 59.01 44.25 60.15 42.66 61.26C42.21 61.56 41.79 61.86 41.34 62.13C41.19 62.22 41.01 62.34 40.86 62.43L40.65 62.52L40.59 62.55C40.59 62.55 40.56 62.55 40.68 62.55L41.46 62.91C41.46 62.91 41.58 63.03 41.55 63C41.52 62.97 41.61 63.12 41.58 63.03C41.55 62.94 41.52 62.88 41.46 62.82C41.4 62.76 41.43 62.7 41.4 62.67L41.37 62.55C41.31 62.4 41.28 62.28 41.22 62.13C40.59 60.21 40.14 58.2 39.69 56.22C39.12 53.85 38.61 51.48 38.07 49.11C37.77 47.79 37.56 46.41 37.2 45.09C37.2 45.06 37.2 45.06 37.2 45.03C37.11 44.67 36.48 44.37 36.15 44.34C35.28 44.28 34.44 44.19 33.57 44.13C32.91 44.07 32.25 44.04 31.59 44.01C31.29 44.01 31.02 43.98 30.75 43.98H30.39C30.27 43.98 30.45 43.95 30.36 43.98H30.33C30 43.92 30.27 44.07 31.17 44.43L31.29 44.64C31.32 44.7 31.23 44.7 31.29 44.67C31.35 44.64 31.47 44.58 31.53 44.55C31.8 44.43 32.07 44.31 32.34 44.22C33.21 43.92 34.08 43.62 34.95 43.35C37.02 42.69 39.12 41.94 41.31 41.82C41.64 41.79 41.97 41.79 42.3 41.82L42.57 41.85C42.63 41.85 42.84 41.91 42.54 41.85L41.64 41.19L43.53 46.86L46.56 55.92L47.25 57.99C47.4 58.29 47.67 58.5 47.97 58.59C48.03 58.59 48.66 58.77 48.6 58.5Z" fill="#100F4A"/>
<path d="M52.74 74.4L54.15 76.35L114.51 71.22C114.51 71.22 93.33 29.91 89.25 30.96C85.17 32.01 52.74 74.4 52.74 74.4Z" fill="#100F4A"/>
<path d="M52.08 74.1L53.07 75.45C53.22 75.63 53.34 75.87 53.49 76.02C53.67 76.2 53.88 76.32 54.12 76.41C54.33 76.53 54.57 76.62 54.81 76.65C54.99 76.65 55.14 76.62 55.32 76.62L58.77 76.32L64.83 75.84L72.75 75.18L81.69 74.43L90.93 73.65L99.66 72.9L107.1 72.27L112.5 71.82L114.21 71.67C114.51 71.67 114.81 71.64 115.08 71.61C115.11 71.61 115.14 71.61 115.2 71.61C115.23 71.61 115.26 71.58 115.23 71.55C114.42 69.96 113.58 68.4 112.77 66.81C110.82 63.12 108.84 59.43 106.8 55.77C104.43 51.51 102.03 47.28 99.48 43.11C97.5 39.84 95.46 36.51 93 33.57C92.28 32.7 91.5 31.83 90.51 31.26C90.03 30.99 89.37 30.6 88.8 30.66C88.53 30.72 88.29 30.81 88.08 30.99C87.24 31.59 86.49 32.25 85.8 33C84.66 34.14 83.55 35.34 82.47 36.54C79.5 39.87 76.65 43.26 73.83 46.71C70.65 50.55 67.5 54.45 64.41 58.38C61.74 61.74 59.1 65.1 56.49 68.46C55.08 70.26 53.7 72.06 52.32 73.86L52.08 74.1C52.02 74.13 53.28 74.94 53.43 74.73C54.06 73.92 54.69 73.08 55.32 72.27C56.94 70.17 58.59 68.04 60.24 65.94C62.49 63.06 64.77 60.18 67.02 57.33C69.51 54.21 72.03 51.09 74.55 48C76.89 45.15 79.26 42.3 81.69 39.51C83.49 37.44 85.32 35.34 87.3 33.42C87.87 32.82 88.5 32.28 89.16 31.77C89.37 31.62 89.58 31.5 89.79 31.38C89.85 31.35 89.94 31.32 90 31.32C90.06 31.32 90.09 31.32 90.15 31.32C90.09 31.32 90.3 31.38 90.15 31.32L90.09 31.29C90.24 31.35 89.94 31.23 90.03 31.26C89.91 31.2 89.88 31.2 89.79 31.14C89.91 31.2 89.61 31.05 89.76 31.11C89.64 31.02 89.91 31.17 89.76 31.11L89.85 31.17C89.79 31.14 89.94 31.23 89.85 31.17L89.97 31.26C90.27 31.5 90.57 31.77 90.84 32.07C91.62 32.91 92.34 33.81 93 34.74C94.95 37.38 96.69 40.17 98.4 42.96C100.41 46.29 102.36 49.65 104.25 53.04C106.02 56.22 107.76 59.4 109.5 62.61C110.7 64.83 111.87 67.05 113.04 69.3C113.31 69.81 113.55 70.29 113.82 70.8C113.85 70.86 113.88 70.89 113.88 70.95C113.88 71.01 113.88 70.95 113.91 70.92C113.82 70.95 113.76 70.95 113.67 70.95L109.53 71.28L101.34 71.97L90.69 72.87L79.08 73.86L68.1 74.79L59.31 75.54L54.21 75.96L53.55 76.02L54.87 76.65L53.46 74.7C53.22 74.49 52.95 74.31 52.65 74.25C52.53 74.19 52.02 74.04 52.08 74.1Z" fill="#100F4A"/>
<path d="M46.02 77.94C46.02 77.94 51.84 77.22 54.15 76.35C56.46 75.48 82.56 45.12 90.51 33.63C90.51 33.63 113.46 70.35 114.51 71.22C115.17 71.76 115.98 72.12 116.82 72.24C116.82 72.24 92.19 31.68 90.12 31.77C88.05 31.86 46.02 77.94 46.02 77.94Z" fill="#A88307"/>
<path d="M46.11 78.54C48.18 78.3 50.25 77.97 52.26 77.52C52.86 77.4 53.46 77.25 54.03 77.04C54.27 76.98 54.51 76.86 54.75 76.74C55.05 76.53 55.35 76.32 55.62 76.05C56.55 75.24 57.39 74.34 58.23 73.44C59.52 72.09 60.81 70.68 62.07 69.3C65.4 65.58 68.67 61.83 71.91 58.02C75.45 53.85 78.93 49.65 82.35 45.42C85.14 41.94 87.9 38.46 90.48 34.86C90.72 34.53 90.93 34.2 91.17 33.87L89.79 33.75C90.6 35.07 91.44 36.39 92.25 37.68C94.2 40.8 96.18 43.95 98.13 47.07C100.5 50.82 102.87 54.57 105.24 58.32C107.22 61.44 109.2 64.56 111.24 67.65C111.87 68.58 112.47 69.54 113.13 70.47C113.31 70.74 113.49 70.98 113.67 71.25C114.09 71.73 114.6 72.12 115.2 72.33C115.68 72.54 116.16 72.69 116.67 72.78C117.06 72.81 117.81 72.51 117.48 72L116.61 70.56C115.83 69.27 115.02 67.98 114.24 66.69C113.1 64.83 111.96 62.97 110.79 61.14C109.41 58.95 108.06 56.73 106.68 54.54C105.21 52.23 103.77 49.92 102.3 47.61C100.92 45.45 99.51 43.32 98.1 41.19C96.9 39.39 95.7 37.62 94.47 35.85C93.63 34.68 92.79 33.48 91.83 32.37C91.32 31.77 90.6 30.87 89.73 31.14C89.4 31.26 89.13 31.44 88.86 31.68C88.53 31.95 88.2 32.22 87.9 32.52C86.88 33.42 85.89 34.38 84.93 35.37C83.55 36.75 82.17 38.13 80.82 39.54C79.17 41.22 77.55 42.93 75.93 44.64C74.13 46.53 72.33 48.42 70.56 50.34C68.7 52.32 66.84 54.3 64.98 56.31C63.18 58.26 61.38 60.18 59.58 62.13C57.93 63.93 56.25 65.73 54.6 67.53C53.19 69.03 51.81 70.56 50.43 72.06C49.41 73.17 48.36 74.31 47.34 75.42C46.77 76.02 46.2 76.65 45.66 77.25L45.45 77.49C44.85 78.15 46.08 78.93 46.59 78.36L47.46 77.4L49.89 74.76C51.12 73.44 52.32 72.09 53.55 70.77C55.05 69.12 56.58 67.47 58.11 65.82C59.85 63.96 61.56 62.07 63.3 60.21C65.13 58.23 66.96 56.28 68.79 54.33C70.62 52.38 72.45 50.43 74.28 48.48C75.99 46.65 77.73 44.85 79.44 43.05C80.94 41.49 82.44 39.93 83.97 38.37C85.17 37.17 86.37 35.97 87.6 34.77C88.38 34.05 89.13 33.27 89.97 32.61C90.03 32.55 90.09 32.52 90.15 32.46C90.27 32.37 90.03 32.55 90.12 32.49L90.21 32.43C90.3 32.4 90.39 32.34 90.48 32.28C90.39 32.37 90.09 32.34 89.94 32.28C90.12 32.34 89.85 32.19 89.91 32.25C89.97 32.31 90.03 32.31 90.06 32.37C90.09 32.4 90.12 32.43 90.15 32.43C90.3 32.55 90.09 32.37 90.12 32.4C90.15 32.43 90.24 32.52 90.33 32.61C90.48 32.79 90.66 32.97 90.81 33.15C91.23 33.63 91.62 34.14 92.01 34.68C93.12 36.18 94.17 37.68 95.22 39.24C96.57 41.22 97.86 43.2 99.15 45.18C100.59 47.4 102.03 49.65 103.47 51.9C104.85 54.09 106.26 56.31 107.67 58.56C108.93 60.6 110.19 62.61 111.45 64.65C112.41 66.24 113.4 67.8 114.36 69.36C114.9 70.26 115.44 71.13 115.98 72.03L116.19 72.39L117 71.61C116.55 71.55 116.1 71.4 115.71 71.19C115.56 71.1 115.38 71.01 115.26 70.89C115.2 70.83 115.11 70.77 115.05 70.71C115.02 70.65 115.17 70.89 115.17 70.83C115.17 70.77 115.11 70.77 115.11 70.77C114.96 70.59 114.81 70.38 114.69 70.2C114.09 69.36 113.55 68.52 112.98 67.68C111.06 64.74 109.17 61.77 107.28 58.8C104.94 55.14 102.66 51.51 100.35 47.85C98.34 44.64 96.3 41.43 94.29 38.19L91.32 33.45L91.29 33.39C90.99 32.91 90.27 32.76 89.91 33.27C87.54 36.69 84.96 39.93 82.38 43.17C79.05 47.34 75.63 51.48 72.18 55.56C68.88 59.46 65.55 63.3 62.16 67.14C59.88 69.69 57.63 72.27 55.14 74.64C54.81 74.94 54.51 75.24 54.18 75.51C54.12 75.54 54.06 75.6 54 75.66C53.91 75.75 54.18 75.57 53.97 75.69C53.94 75.72 53.88 75.75 53.85 75.75L53.79 75.78C53.73 75.81 54 75.72 53.82 75.78C53.73 75.81 53.64 75.84 53.55 75.87C52.32 76.23 51.09 76.53 49.83 76.71C48.66 76.92 47.64 77.07 46.56 77.22L46.02 77.28C45.69 77.31 45.3 77.52 45.36 77.91C45.42 78.3 45.75 78.57 46.11 78.54Z" fill="#4D4FB0"/>
<path d="M24.09 63.66C24.09 63.66 44.01 50.7 53.7 36.3L63.42 21.9C63.42 21.9 89.16 28.2 90.93 29.67C92.7 31.14 118.62 70.8 118.29 71.43C117.96 72.06 116.82 72.24 116.82 72.24C116.82 72.24 90.9 31.77 90.09 31.77C89.28 31.77 72.45 53.13 61.11 65.1C49.77 77.07 44.91 79.02 42.66 79.02C40.41 79.02 23.28 65.91 24.09 63.66Z" fill="#EFCA4E"/>
<path d="M24.42 63.93C26.31 62.7 28.14 61.35 29.97 60.03C34.2 56.91 38.28 53.55 42.15 50.01C46.59 45.93 50.82 41.49 54.21 36.48C57 32.37 59.76 28.23 62.55 24.12C63.06 23.43 63.57 22.71 63.99 21.96L62.88 22.38C64.47 22.77 66.09 23.19 67.68 23.58C71.1 24.45 74.55 25.35 77.97 26.25C81.18 27.12 84.39 27.96 87.54 29.01C88.41 29.25 89.28 29.58 90.12 29.97C90.03 29.91 90.18 30 90.12 29.97L90.18 30L90.3 30.09C90.36 30.12 90.39 30.18 90.42 30.21C90.48 30.27 90.54 30.33 90.6 30.42L90.69 30.54C90.72 30.57 90.75 30.6 90.75 30.63C91.92 32.16 93 33.75 94.11 35.34C95.88 37.92 97.65 40.53 99.36 43.14C101.4 46.2 103.41 49.26 105.42 52.35C107.37 55.32 109.29 58.32 111.21 61.29C112.71 63.63 114.18 65.94 115.62 68.28C116.07 69.03 116.52 69.75 116.94 70.5C117.12 70.89 117.33 71.28 117.54 71.64C117.6 71.73 117.45 71.46 117.57 71.49C117.57 71.49 117.24 71.67 117.21 71.67C117.12 71.7 117.03 71.7 116.94 71.73C117 71.7 117.03 71.7 116.94 71.73L117.42 71.91C116.25 70.08 115.08 68.25 113.91 66.45C111.24 62.31 108.6 58.17 105.9 54.06C102.99 49.56 100.05 45.09 97.11 40.62C95.22 37.77 93.39 34.86 91.32 32.16C91.14 31.89 90.96 31.65 90.72 31.41C90.27 31.05 89.67 31.41 89.31 31.71C88.14 32.7 87.21 33.99 86.22 35.13C81.9 40.2 77.67 45.33 73.35 50.43C68.19 56.49 63 62.55 57.36 68.19C54.78 70.77 52.14 73.29 49.2 75.45C48.3 76.14 47.34 76.77 46.38 77.34L46.32 77.37L46.2 77.43L45.87 77.61C45.69 77.7 45.51 77.79 45.33 77.88C45.15 77.97 45 78.03 44.82 78.09L44.61 78.18H44.64L44.49 78.24C44.22 78.33 43.95 78.42 43.65 78.48C43.47 78.51 43.8 78.45 43.62 78.48L43.44 78.51C43.32 78.54 43.23 78.54 43.11 78.54H42.96C42.78 78.57 43.08 78.54 42.93 78.54C42.9 78.54 42.87 78.54 42.81 78.54C42.66 78.54 42.9 78.57 42.78 78.54C42.51 78.45 42.27 78.36 42 78.24C40.14 77.34 38.28 75.99 36.57 74.76C34.23 73.08 31.98 71.31 29.82 69.42C28.17 68.01 26.4 66.51 25.14 64.74C24.96 64.5 24.81 64.23 24.69 63.96C24.66 63.9 24.63 63.84 24.63 63.78C24.6 63.66 24.63 63.75 24.63 63.72C24.63 63.69 24.63 63.63 24.63 63.6C24.63 63.45 24.6 63.66 24.63 63.57C24.87 62.88 23.43 63.24 23.28 63.72C23.13 64.2 23.43 64.83 23.73 65.25C24.27 66.03 24.9 66.75 25.59 67.41C27.51 69.3 29.52 71.07 31.65 72.72C33.78 74.4 35.97 76.05 38.25 77.52C39.06 78.06 39.9 78.57 40.77 79.02C41.25 79.29 41.76 79.47 42.3 79.5C43.62 79.5 44.94 78.99 46.11 78.39C48.33 77.28 50.34 75.72 52.23 74.16C58.32 69.03 63.69 63 68.94 56.97C73.89 51.3 78.72 45.51 83.55 39.72C85.2 37.74 86.85 35.79 88.53 33.84L88.98 33.33L89.28 33C89.49 32.79 89.67 32.55 89.88 32.34L90.12 32.13C90.15 32.1 90.18 32.07 90.21 32.07C90.33 31.95 90.09 32.16 90.15 32.1C90.21 32.04 90.09 32.13 90.03 32.16C89.82 32.22 89.61 32.25 89.43 32.22C89.31 32.22 89.34 32.13 89.4 32.22C89.46 32.31 89.52 32.37 89.61 32.46L89.7 32.55C89.76 32.64 89.7 32.55 89.7 32.58L89.88 32.82C90.21 33.27 90.54 33.72 90.87 34.17C91.89 35.61 92.88 37.08 93.84 38.55C96.66 42.78 99.45 47.04 102.21 51.3C105.09 55.71 107.97 60.12 110.82 64.53C112.47 67.08 114.12 69.66 115.77 72.21L116.01 72.57C116.13 72.72 116.31 72.78 116.49 72.75C117.27 72.63 119.22 71.97 118.74 70.89C118.5 70.38 118.23 69.9 117.93 69.42C116.73 67.38 115.47 65.4 114.21 63.42C112.38 60.54 110.55 57.66 108.66 54.78C106.62 51.6 104.55 48.45 102.45 45.3C100.56 42.45 98.67 39.6 96.75 36.78C95.4 34.8 94.08 32.82 92.67 30.9C92.31 30.39 91.95 29.91 91.53 29.46C91.17 29.07 90.63 28.89 90.15 28.71C87.45 27.66 84.6 26.94 81.81 26.16C78.21 25.17 74.61 24.21 70.98 23.28C68.67 22.68 66.36 22.11 64.05 21.54L63.69 21.45C63.27 21.36 62.85 21.54 62.58 21.87L61.59 23.37L54.51 33.87C52.77 36.54 50.88 39.09 48.87 41.55C46.89 43.86 44.82 46.05 42.63 48.12C38.7 51.87 34.59 55.35 30.24 58.59C28.08 60.21 25.86 61.77 23.61 63.27C23.58 63.3 23.55 63.33 23.52 63.33C23.31 63.45 23.01 63.78 23.25 64.02C23.49 64.26 24.21 64.08 24.42 63.93Z" fill="#4D4FB0"/>
<path d="M69.06 35.64C69.6 35.79 69.96 36.3 69.93 36.87C69.87 37.62 69.48 38.28 68.88 38.73C68.16 39.27 67.32 39.57 66.42 39.63C65.52 39.75 64.62 39.69 63.75 39.42C62.97 39.09 62.31 38.55 61.83 37.86C61.68 37.68 61.56 37.47 61.56 37.23C61.59 37.02 61.77 36.9 61.98 36.93C62.01 36.93 62.01 36.93 62.04 36.93C62.31 37.05 62.52 37.23 62.64 37.5C62.88 37.86 63.06 38.22 63.21 38.61C63.48 39.33 63.6 40.11 63.27 40.83C62.88 41.61 62.1 42.09 61.23 42.03C60.51 42 59.91 41.49 59.76 40.8L59.46 41.37C60.03 41.28 60.6 41.49 60.96 41.94C61.26 42.36 61.11 42.96 60.84 43.35C60.51 43.86 59.94 44.19 59.34 44.19C58.8 44.19 58.32 43.89 58.05 43.44L58.11 44.25C58.26 44.13 58.47 44.04 58.68 44.07L57.9 43.05C57.9 44.94 56.67 46.59 54.87 47.16C54.54 47.25 54.72 47.85 54.81 48.06C54.93 48.36 55.26 48.54 55.59 48.48C57.63 47.79 59.01 45.84 58.98 43.68C58.98 43.23 58.68 42.69 58.2 42.69C57.81 42.69 57.45 42.84 57.21 43.11C57 43.29 57.15 43.71 57.27 43.92C57.72 44.85 58.62 45.48 59.64 45.6C60.63 45.69 61.56 45.15 61.98 44.28C62.97 42.36 61.23 39.75 59.01 40.08C58.74 40.11 58.68 40.41 58.71 40.65C58.89 41.85 59.7 42.87 60.81 43.35C61.83 43.74 63 43.5 63.78 42.72C64.62 41.91 64.71 40.62 64.47 39.54C64.2 38.37 63.63 37.05 62.73 36.21C62.34 35.85 61.77 35.55 61.23 35.7C60.75 35.88 60.45 36.33 60.51 36.84C60.51 38.04 61.41 39.03 62.25 39.81C63.21 40.65 64.44 41.13 65.7 41.13C66.93 41.16 68.25 41.01 69.3 40.35C70.38 39.72 71.04 38.55 71.01 37.32C70.95 36.03 70.11 34.71 68.82 34.35C68.49 34.26 68.34 34.62 68.4 34.89C68.46 35.19 68.7 35.52 69.06 35.64Z" fill="#100F4A"/>
<path d="M49.86 53.58C49.83 53.73 49.83 53.91 49.92 54.06C50.07 54.27 50.31 54.42 50.55 54.48C50.85 54.54 51.15 54.57 51.45 54.51C51.6 54.48 51.75 54.42 51.9 54.36C52.08 54.27 52.2 54.09 52.23 53.91C52.23 53.85 52.2 53.79 52.14 53.76C51.99 53.64 51.78 53.58 51.6 53.52C51.27 53.46 50.91 53.43 50.58 53.49C50.25 53.52 49.95 53.67 49.71 53.91C49.65 54 49.71 54.09 49.77 54.12C49.83 54.15 49.89 54.18 49.95 54.21C50.04 54.24 50.13 54.27 50.19 54.27C50.37 54.3 50.58 54.3 50.76 54.27C50.88 54.27 51 54.21 51.12 54.12C51.15 54.09 51.21 54.03 51.24 54L51.15 54.06C51.21 54.03 51.27 53.97 51.33 53.94L51.21 54C51.24 53.97 51.3 53.97 51.33 53.97L51.18 54L51.3 53.97L51.12 54H51.18C51.27 54 50.94 54 51.06 54C51.18 54 50.82 53.97 50.94 54H51L50.82 53.97C50.85 53.97 50.88 53.97 50.91 54L50.76 53.94C50.79 53.94 50.82 53.97 50.88 53.97L50.76 53.91L50.82 53.94L50.73 53.79C50.73 53.82 50.73 53.85 50.7 53.88L50.73 53.82C50.7 53.91 50.64 53.97 50.58 54L50.67 53.94C50.64 53.97 50.58 54 50.55 54L50.64 53.97C50.61 53.97 50.58 54 50.55 54L50.7 53.97H50.64L50.82 53.94H50.79C50.73 53.94 50.76 53.94 50.94 53.94C50.85 53.94 51.18 53.97 51.06 53.94L51.24 53.97H51.21L51.36 54.03L51.3 54L51.42 54.06C51.39 54.03 51.36 54.03 51.33 54L51.39 54.06C51.33 54 51.27 53.91 51.27 53.85L51.3 53.94C51.27 53.85 51.27 53.73 51.3 53.64C51.33 53.55 51.12 53.46 51.09 53.43C50.76 53.31 50.37 53.31 50.04 53.4L49.92 53.46C49.92 53.49 49.89 53.52 49.86 53.58Z" fill="#100F4A"/>
<path d="M73.14 81.36C73.14 81.36 57.51 84.66 58.86 76.65C60.21 68.64 72.78 57.21 82.08 55.92C91.38 54.63 96.63 67.77 92.1 70.65C87.57 73.53 73.14 81.36 73.14 81.36Z" fill="#63BAC2"/>
<path d="M72.87 80.7C71.31 81 69.75 81.21 68.19 81.3C66.84 81.39 65.49 81.39 64.14 81.27C62.91 81.18 61.71 80.85 60.6 80.28C60.39 80.16 60.18 80.01 60 79.86C60 79.86 59.94 79.83 59.94 79.8L59.79 79.65C59.76 79.62 59.64 79.47 59.76 79.62C59.73 79.56 59.67 79.5 59.64 79.47C59.61 79.44 59.52 79.29 59.61 79.44C59.58 79.38 59.55 79.32 59.52 79.26C59.46 79.14 59.58 79.41 59.49 79.23C59.46 79.17 59.43 79.08 59.4 79.02C59.37 78.96 59.43 79.05 59.43 79.08C59.43 79.11 59.4 79.02 59.4 78.99C59.4 78.96 59.37 78.84 59.34 78.78C59.31 78.72 59.34 78.75 59.34 78.78L59.31 78.66C59.31 78.57 59.28 78.48 59.28 78.42C59.16 76.95 59.79 75.33 60.42 73.98C62.22 70.17 65.16 66.9 68.28 64.14C71.52 61.29 75.3 58.77 79.41 57.39C81.12 56.82 82.95 56.43 84.78 56.64C86.4 56.88 87.96 57.54 89.22 58.59C90.39 59.55 91.35 60.72 92.07 62.04C92.13 62.13 92.16 62.22 92.22 62.31C92.28 62.4 92.25 62.4 92.28 62.43C92.22 62.31 92.28 62.43 92.28 62.46C92.37 62.64 92.46 62.82 92.52 63.03C92.67 63.39 92.79 63.72 92.88 63.99C93.09 64.65 93.24 65.31 93.3 66C93.39 67.08 93.27 68.31 92.61 69.27C92.31 69.69 91.89 70.02 91.44 70.29C90.87 70.65 90.3 70.98 89.76 71.31C86.64 73.17 83.46 74.94 80.31 76.68C77.94 78 75.57 79.29 73.2 80.58L72.84 80.79C72.45 81 73.17 82.32 73.56 82.11C75.39 81.12 77.22 80.1 79.05 79.08C82.41 77.22 85.74 75.36 89.04 73.44C89.73 73.05 90.42 72.63 91.11 72.21C91.65 71.91 92.19 71.58 92.7 71.22C93.66 70.5 94.11 69.33 94.2 68.16C94.5 64.92 92.91 61.53 90.87 59.13C89.76 57.78 88.35 56.73 86.76 56.01C85.11 55.29 83.28 55.08 81.51 55.38C77.25 56.07 73.29 58.38 69.87 60.96C66.3 63.66 63 66.96 60.66 70.8C59.67 72.36 58.92 74.1 58.5 75.9C58.14 77.34 58.41 78.87 59.25 80.1C60.81 82.35 63.93 82.74 66.45 82.77C68.67 82.8 70.89 82.59 73.08 82.17L73.44 82.11C73.95 81.93 73.29 80.61 72.87 80.7Z" fill="#100F4A"/>
<path d="M96.63 52.92C97.2 49.05 93.6 46.02 89.04 45.36C84.48 44.7 77.94 46.08 76.53 56.31C75.69 62.4 72.69 64.47 72.69 64.47C72.69 64.47 78.81 67.2 84.36 65.73C89.91 64.26 95.79 58.5 96.63 52.92Z" fill="white"/>
<path d="M97.38 53.04C97.89 49.47 95.1 46.68 91.98 45.48C89.61 44.55 87.03 44.34 84.54 44.85C82.14 45.36 79.98 46.74 78.54 48.72C77.61 50.01 76.92 51.45 76.5 52.98C75.96 54.87 75.84 56.82 75.3 58.71C74.91 60.21 74.22 61.59 73.32 62.85C73.05 63.18 72.78 63.51 72.48 63.78C72.66 63.6 72.39 63.84 72.33 63.9C72.3 63.93 72.27 63.96 72.24 63.96C71.76 64.29 72.03 64.92 72.48 65.13C73.5 65.55 74.55 65.91 75.63 66.15C77.85 66.75 80.13 66.99 82.44 66.81C87.12 66.39 91.35 63.45 94.23 59.82C95.76 57.84 96.99 55.56 97.38 53.04C97.5 52.2 96.03 51.96 95.91 52.83C95.61 54.84 94.65 56.73 93.45 58.38C92.16 60.15 90.54 61.71 88.74 62.94C87 64.17 85.02 65.01 82.89 65.37C80.7 65.64 78.48 65.52 76.32 64.95C75.18 64.71 74.04 64.35 72.96 63.87L73.2 65.04C74.49 64.14 75.39 62.55 76.02 61.14C76.77 59.43 77.1 57.63 77.4 55.8C77.64 54.15 78.15 52.53 78.87 51.03C79.41 49.92 80.16 48.93 81.09 48.09C81.9 47.37 82.83 46.83 83.82 46.47C84.06 46.38 84.27 46.32 84.51 46.26L84.9 46.17C84.75 46.2 84.96 46.17 84.96 46.17L85.17 46.14C85.65 46.05 86.16 45.99 86.64 45.96C86.88 45.93 87.12 45.93 87.39 45.93C87.42 45.93 87.63 45.93 87.45 45.93H87.63L87.99 45.96C88.56 45.99 89.13 46.08 89.7 46.2C92.91 46.83 96.45 49.17 95.94 52.86C95.79 53.67 97.26 53.91 97.38 53.04Z" fill="#100F4A"/>
<path d="M95.16 64.62C98.58 62.01 96.03 52.08 96.03 52.08C94.44 51.51 91.95 49.53 91.95 49.53C92.01 54.66 85.89 55.14 85.89 55.14C85.11 52.23 81.81 52.71 81.57 55.38C81.33 58.05 83.82 58.74 83.82 58.74C83.82 58.74 81.45 65.07 81.54 66.15C81.54 66.15 85.35 69.84 88.68 66.45C88.65 66.45 92.82 66.39 95.16 64.62Z" fill="white"/>
<path d="M95.73 65.07C96.75 64.29 97.2 62.97 97.44 61.74C97.68 60.3 97.71 58.86 97.56 57.42C97.44 56.13 97.26 54.84 97.02 53.55C96.96 53.19 96.87 52.8 96.78 52.44C96.72 52.02 96.45 51.69 96.06 51.54C95.97 51.51 96 51.51 95.85 51.45C95.7 51.39 95.64 51.36 95.52 51.3C95.31 51.18 95.1 51.06 94.89 50.94C94.47 50.7 94.08 50.43 93.69 50.16C93.24 49.83 92.76 49.5 92.34 49.14C92.1 48.96 91.23 48.72 91.23 49.26C91.26 50.79 90.54 52.26 89.28 53.16C88.77 53.52 88.23 53.79 87.66 54C87.39 54.09 87.12 54.18 86.85 54.27L86.79 54.3L86.64 54.33L86.31 54.39C86.07 54.42 85.83 54.48 85.59 54.51L86.58 55.14C86.31 54.03 85.56 53.13 84.51 52.71C83.67 52.38 82.71 52.5 81.96 53.04C81.15 53.61 80.82 54.66 80.85 55.62C80.88 56.67 81.36 57.63 82.17 58.32C82.65 58.74 83.19 59.04 83.79 59.22L83.16 58.35C82.47 60.21 81.81 62.07 81.24 63.99C81.09 64.47 80.97 64.98 80.88 65.49C80.85 65.61 80.85 65.73 80.85 65.88C80.85 66.15 81 66.39 81.21 66.51C82.02 67.23 82.92 67.74 83.94 68.1C85.8 68.76 87.9 68.28 89.28 66.87L89.01 66.99C89.85 66.96 90.66 66.87 91.47 66.72C92.94 66.45 94.47 66 95.73 65.07C96.3 64.62 95.1 63.78 94.56 64.17C92.91 65.4 90.63 65.76 88.62 65.88C88.35 65.85 88.05 65.97 87.87 66.18C87.39 66.66 86.76 67.02 86.1 67.2C85.62 67.32 85.11 67.32 84.63 67.23C84.18 67.14 83.76 66.99 83.37 66.78C83.25 66.72 83.16 66.66 83.04 66.6C82.98 66.57 82.71 66.42 82.86 66.48C82.68 66.36 82.5 66.24 82.35 66.12C82.23 66.03 82.14 65.97 82.05 65.88C81.93 65.79 81.96 65.79 82.05 65.88L82.23 66.3C82.23 65.91 82.29 65.52 82.41 65.16C82.56 64.56 82.74 63.99 82.92 63.42C83.31 62.19 83.73 60.99 84.18 59.79L84.48 59.01C84.63 58.59 84.21 58.23 83.85 58.14L83.79 58.11L83.73 58.08C83.61 58.05 83.88 58.14 83.79 58.11C83.7 58.08 83.61 58.02 83.52 57.99C83.43 57.96 83.43 57.93 83.37 57.9C83.22 57.81 83.46 57.96 83.31 57.87C83.1 57.72 82.89 57.57 82.74 57.36C82.56 57.12 82.41 56.82 82.32 56.52C82.11 55.77 82.26 54.96 82.68 54.3C82.86 54.09 83.07 53.91 83.34 53.79C83.55 53.7 83.79 53.64 84.03 53.67C84.24 53.67 84.45 53.79 84.6 53.94C84.87 54.24 85.05 54.6 85.17 54.99C85.32 55.41 85.74 55.65 86.16 55.62C88.32 55.44 90.69 54.42 91.86 52.56C92.37 51.69 92.64 50.7 92.61 49.68L91.5 49.8C92.85 50.88 94.32 51.93 95.94 52.53L95.31 51.93C95.58 53.07 95.82 54.21 95.97 55.35C96.27 57.42 96.42 59.58 95.97 61.62C95.76 62.58 95.34 63.51 94.59 64.08C93.99 64.62 95.22 65.46 95.73 65.07Z" fill="#100F4A"/>
<path d="M86.64 58.5C86.19 59.55 85.98 60.96 87.03 61.74C87.45 62.01 87.93 62.13 88.44 62.04C88.56 62.01 88.68 61.92 88.71 61.77C88.74 61.59 88.71 61.44 88.65 61.29C88.53 60.99 88.23 60.66 87.87 60.69C87.75 60.72 87.66 60.72 87.54 60.72H87.69C87.63 60.72 87.54 60.72 87.48 60.72L87.39 60.69C87.36 60.69 87.24 60.66 87.36 60.69L87.3 60.66C87.24 60.63 87.48 60.78 87.36 60.69C87.3 60.66 87.24 60.57 87.42 60.75L87.39 60.72C87.3 60.63 87.51 60.9 87.45 60.81L87.42 60.75C87.39 60.69 87.48 60.9 87.48 60.9C87.48 60.9 87.48 60.87 87.45 60.87C87.45 60.84 87.45 60.84 87.42 60.81C87.39 60.78 87.48 61.02 87.45 60.9C87.45 60.84 87.42 60.81 87.42 60.75C87.42 60.87 87.45 60.96 87.42 60.75C87.42 60.69 87.42 60.63 87.42 60.57C87.42 60.54 87.42 60.54 87.42 60.51C87.42 60.39 87.42 60.48 87.42 60.51C87.42 60.54 87.42 60.63 87.42 60.51C87.42 60.48 87.42 60.45 87.42 60.42C87.45 60.24 87.51 60.06 87.57 59.88C87.6 59.76 87.66 59.64 87.69 59.52L87.63 59.64V59.61C87.69 59.46 87.72 59.31 87.69 59.16C87.63 58.98 87.54 58.8 87.42 58.65C87.3 58.53 87.15 58.44 87 58.38C86.88 58.38 86.7 58.38 86.67 58.5H86.64Z" fill="#100F4A"/>
<path d="M93.51 56.91C94.32 57.78 95.28 58.53 96.3 59.13C99.75 61.23 99.69 62.67 98.25 62.94C96.81 63.21 91.98 60.66 91.98 60.66" fill="white"/>
<path d="M92.97 57.27C93.81 58.2 94.8 59.01 95.91 59.64C96.66 60.06 97.35 60.57 97.98 61.17L98.13 61.32C98.04 61.23 98.16 61.35 98.19 61.41C98.28 61.5 98.34 61.62 98.4 61.71C98.46 61.8 98.34 61.56 98.4 61.74L98.46 61.86C98.46 61.89 98.52 62.04 98.49 61.92C98.46 61.8 98.49 61.98 98.49 62.01C98.49 62.04 98.49 61.86 98.49 61.98C98.49 62.01 98.46 62.13 98.49 62.01C98.52 61.89 98.49 62.01 98.46 62.04C98.4 62.1 98.58 61.92 98.46 62.01C98.43 62.04 98.43 62.07 98.4 62.1C98.34 62.19 98.49 62.04 98.43 62.07C98.37 62.1 98.19 62.22 98.28 62.16C98.37 62.1 98.16 62.19 98.1 62.22L97.98 62.25C97.86 62.28 98.13 62.25 97.98 62.25H97.74C97.62 62.22 97.65 62.25 97.74 62.25L97.56 62.22C97.05 62.13 96.54 61.98 96.03 61.77L95.85 61.71L95.7 61.65L95.25 61.47C94.98 61.35 94.71 61.23 94.41 61.11C93.66 60.78 92.91 60.42 92.19 60.03C91.92 59.85 91.53 59.94 91.35 60.24C91.32 60.27 91.32 60.3 91.29 60.33C91.17 60.72 91.35 61.11 91.71 61.29C92.37 61.65 93.06 61.98 93.75 62.28C94.89 62.79 96.09 63.36 97.32 63.6C98.19 63.78 99.42 63.63 99.75 62.64C100.17 61.32 98.79 60.12 97.86 59.43C96.93 58.74 95.91 58.2 94.98 57.45C94.71 57.21 94.41 56.97 94.17 56.73C94.08 56.67 94.02 56.58 93.93 56.49C93.78 56.34 94.02 56.58 93.96 56.52C93.72 56.25 93.33 56.04 93 56.28C92.76 56.55 92.73 56.97 92.97 57.27Z" fill="#100F4A"/>
<path d="M91.44 55.56C91.74 55.65 91.92 55.95 91.83 56.25C91.83 56.28 91.8 56.31 91.8 56.34C91.56 56.91 90.87 56.61 90.93 56.07C90.93 55.8 91.11 55.59 91.38 55.59C91.38 55.56 91.41 55.56 91.44 55.56Z" fill="#100F4A"/>
<path d="M95.52 55.86C95.82 55.95 96 56.25 95.91 56.55C95.91 56.58 95.88 56.61 95.88 56.64C95.64 57.21 94.95 56.91 95.01 56.37C95.01 56.1 95.19 55.89 95.46 55.89C95.46 55.86 95.49 55.86 95.52 55.86Z" fill="#100F4A"/>
<path d="M80.19 51.81C81.72 51.72 83.25 51.99 84.75 51.72C85.44 51.6 86.1 51.36 86.73 51C87.33 50.61 87.87 50.13 88.32 49.59C88.5 49.38 88.74 49.02 88.44 48.81C88.14 48.6 87.69 48.81 87.48 49.02C87.12 49.44 86.7 49.83 86.25 50.16C85.77 50.43 85.23 50.61 84.69 50.67C83.37 50.85 82.02 50.61 80.7 50.7C80.31 50.7 79.98 50.94 79.8 51.27C79.68 51.45 79.74 51.69 79.92 51.81C80.01 51.81 80.1 51.84 80.19 51.81Z" fill="#100F4A"/>
<path d="M79.26 59.19L76.98 64.23C76.89 64.44 77.52 64.26 77.55 64.23C77.79 64.14 78.24 63.99 78.33 63.75L80.61 58.71C80.7 58.5 80.07 58.68 80.04 58.71C79.8 58.8 79.38 58.95 79.26 59.19Z" fill="#100F4A"/>
<path d="M80.04 65.52C80.04 65.52 79.86 74.97 80.61 76.29C81.36 77.61 88.8 81.12 90.78 81.66C92.76 82.2 101.79 77.73 101.79 77.73L102.42 63.87L91.77 69.81L80.04 65.52Z" fill="#CA3150"/>
<path d="M79.29 65.49C79.26 67.53 79.26 69.57 79.32 71.61C79.32 72.87 79.44 74.13 79.62 75.39C79.65 75.72 79.74 76.08 79.92 76.38C80.19 76.74 80.55 77.04 80.94 77.28C82.14 78.09 83.43 78.81 84.75 79.44C86.13 80.13 87.51 80.76 88.95 81.33C89.43 81.54 89.91 81.69 90.42 81.81C90.99 81.93 91.56 81.93 92.13 81.81C93.42 81.57 94.68 81.18 95.88 80.67C98.07 79.83 100.23 78.9 102.33 77.85L102.45 77.79C102.51 77.76 102.54 77.73 102.57 77.67L102.78 72.99L103.11 65.52L103.2 63.81C103.2 63.45 101.97 63.57 101.82 63.66L92.49 68.88L91.17 69.63L92.34 69.6L82.08 65.85L80.64 65.31C80.31 65.19 79.92 65.19 79.59 65.28C79.32 65.37 79.32 65.52 79.59 65.61L89.91 69.39C90.36 69.57 90.84 69.75 91.29 69.9C92.07 70.14 92.52 69.87 93.15 69.51L98.64 66.45L103.14 63.93L101.76 63.78L101.55 68.46L101.19 75.93L101.1 77.64L101.22 77.52C99.51 78.36 97.77 79.14 96 79.89C94.77 80.4 93.54 80.85 92.25 81.21C92.04 81.27 91.8 81.33 91.56 81.36C91.5 81.36 91.17 81.42 91.38 81.39H91.23C91.05 81.42 91.32 81.39 91.23 81.39C91.14 81.39 91.2 81.39 91.29 81.39C91.17 81.39 91.26 81.39 91.32 81.39C91.2 81.36 91.35 81.39 91.32 81.39L91.17 81.36C90.96 81.3 90.72 81.21 90.51 81.12C89.22 80.64 87.96 80.07 86.7 79.44C85.35 78.81 84.06 78.09 82.8 77.31C82.14 76.89 81.42 76.47 81.24 75.66C81.03 74.55 80.91 73.41 80.91 72.27C80.85 70.89 80.82 69.51 80.82 68.1C80.82 67.23 80.85 66.36 80.85 65.52C80.85 65.46 80.85 65.43 80.85 65.37C80.79 65.19 79.29 65.16 79.29 65.49Z" fill="#100F4A"/>
<path d="M80.7 65.73C80.7 65.73 81.99 64.98 82.32 65.07C82.65 65.16 91.92 69.12 91.92 69.12L100.71 63.9L101.88 64.2L91.77 70.32L80.7 65.73Z" fill="#900D0F"/>
<path d="M81.3 66.03C81.66 65.82 82.05 65.61 82.44 65.46C82.8 65.34 82.5 65.58 82.08 65.37C82.08 65.37 82.11 65.37 82.14 65.4C82.17 65.4 82.2 65.43 82.23 65.43C82.08 65.37 82.41 65.49 82.23 65.43C82.89 65.7 83.55 65.97 84.18 66.24C86.07 67.05 87.93 67.83 89.82 68.64C90.36 68.88 90.87 69.09 91.41 69.3C91.77 69.51 92.19 69.54 92.55 69.42C92.67 69.36 92.76 69.3 92.88 69.24L97.35 66.57L101.34 64.2H100.47L101.64 64.5L101.28 63.9L92.4 69.27L91.14 70.02L92.16 70.08L82.5 66.09L81.12 65.52C80.82 65.4 80.37 65.28 80.1 65.46C79.83 65.64 80.07 65.88 80.28 65.97L90.06 70.02C90.48 70.2 90.9 70.38 91.35 70.56C92.1 70.86 92.46 70.59 93.06 70.23L98.25 67.08L102.51 64.53C102.87 64.32 102.39 63.99 102.18 63.96C101.52 63.78 100.62 63.39 99.99 63.75L98.22 64.8L92.7 68.01L91.32 68.85L92.34 68.91C89.22 67.59 86.13 66.21 82.98 64.95C82.56 64.74 82.08 64.68 81.6 64.77C81.06 64.92 80.55 65.16 80.07 65.46C79.77 65.64 80.04 65.88 80.25 65.97C80.58 66.15 80.97 66.15 81.3 66.03Z" fill="#100F4A"/>
<path d="M79.65 70.14C79.65 70.14 82.59 68.88 83.49 69.78C84.39 70.68 83.4 72.36 83.4 72.36C83.4 72.36 84.93 73.71 83.76 74.79C83.76 74.79 84.66 75.6 83.4 77.1C82.14 78.63 79.08 80.61 73.14 81.39C73.14 81.39 70.14 76.44 72.96 72.12C72.96 72.12 74.4 67.17 79.83 67.68" fill="white"/>
<path d="M80.37 70.17C80.67 70.05 80.97 69.93 81.27 69.84C81.57 69.75 81.84 69.69 82.14 69.63C82.26 69.6 82.38 69.6 82.5 69.57C82.62 69.54 82.5 69.57 82.38 69.57C82.17 69.57 82.26 69.54 82.35 69.57C82.95 69.84 83.16 70.41 83.07 71.07C83.01 71.52 82.86 71.97 82.62 72.36L82.65 72.39C83.34 72.99 83.76 74.01 83.01 74.76C82.98 74.79 82.98 74.79 83.01 74.82C83.4 75.18 83.31 75.87 83.13 76.32C82.8 76.98 82.29 77.58 81.69 78C80.28 79.08 78.69 79.89 76.98 80.37C75.54 80.82 74.07 81.12 72.6 81.33L73.89 81.42C72.6 79.26 72.09 76.35 72.84 73.95C72.99 73.47 73.17 73.02 73.41 72.6C73.5 72.45 73.62 72.27 73.68 72.09C73.77 71.88 73.83 71.67 73.92 71.49C74.31 70.65 74.85 69.87 75.54 69.24C76.56 68.31 78 67.65 79.41 67.8C79.71 67.83 80.16 67.92 80.43 67.77C80.7 67.62 80.28 67.62 80.16 67.62C78.45 67.47 76.59 67.56 75.06 68.46C74.1 69.03 73.29 69.87 72.75 70.83C72.45 71.37 72.27 71.94 71.97 72.45C71.01 74.19 70.74 76.26 71.19 78.18C71.4 79.32 71.79 80.4 72.36 81.39C72.42 81.51 72.72 81.48 72.81 81.51C73.08 81.54 73.35 81.54 73.62 81.51C76.02 81.18 78.42 80.67 80.64 79.65C81.96 79.11 83.13 78.27 84.06 77.22C84.54 76.65 85.08 75.72 84.57 74.97C84.57 74.94 84.45 74.85 84.45 74.82C84.45 74.79 84.75 74.49 84.78 74.4C84.93 73.98 84.9 73.53 84.66 73.17C84.51 72.9 84.27 72.72 84.12 72.45C84.06 72.33 84.09 72.48 84.12 72.36C84.15 72.24 84.24 72.12 84.27 72.03C84.57 71.31 84.78 70.2 84 69.69C83.58 69.42 82.95 69.39 82.47 69.39C81.87 69.39 81.3 69.42 80.73 69.54C80.1 69.69 79.47 69.87 78.87 70.11C78.75 70.17 79.35 70.26 79.38 70.26C79.77 70.29 80.07 70.29 80.37 70.17Z" fill="#100F4A"/>
<path d="M76.11 71.58C77.4 71.37 78.69 71.1 79.95 70.8C80.67 70.62 79.98 69.3 79.35 69.45C78.09 69.78 76.8 70.02 75.51 70.23C75.15 70.29 75.18 70.8 75.3 71.04C75.42 71.37 75.75 71.61 76.11 71.58Z" fill="#100F4A"/>
<path d="M82.8 71.91C82.74 72 82.65 72.09 82.56 72.18C82.47 72.27 82.35 72.36 82.26 72.45L82.08 72.6C82.14 72.54 82.05 72.63 82.05 72.63L81.93 72.72C81.09 73.35 80.16 73.77 79.14 74.04C79.02 74.07 79.02 74.22 79.02 74.31C79.05 74.46 79.14 74.61 79.29 74.73C79.5 75 79.86 75.12 80.19 75.06C81.21 74.82 82.17 74.37 83.01 73.74C83.4 73.47 83.73 73.17 84.03 72.81C84.24 72.57 83.82 72.18 83.67 72.06C83.52 71.94 83.01 71.67 82.8 71.91Z" fill="#100F4A"/>
<path d="M83.16 74.55C83.07 74.64 82.95 74.73 82.86 74.82C83.04 74.64 82.86 74.82 82.8 74.85L82.62 75C82.47 75.12 82.32 75.24 82.17 75.36C82.02 75.48 81.84 75.6 81.66 75.72C81.57 75.78 81.48 75.84 81.39 75.9C81.36 75.93 81.3 75.96 81.24 75.99C81.12 76.05 81.39 75.93 81.21 75.99C81.03 76.08 80.82 76.17 80.64 76.26C80.58 76.29 80.55 76.29 80.49 76.32C80.55 76.29 80.67 76.23 80.49 76.32C80.43 76.35 80.28 76.38 80.19 76.38C79.89 76.44 79.5 76.71 79.56 77.04C79.62 77.37 80.13 77.4 80.4 77.37C81.36 77.19 82.26 76.65 83.04 76.08C83.49 75.75 83.94 75.39 84.36 75C84.54 74.85 84.54 74.58 84.39 74.43C84.33 74.37 84.27 74.34 84.21 74.31C83.85 74.19 83.43 74.28 83.16 74.55Z" fill="#100F4A"/>
<path d="M91.35 70.2C91.38 73.29 91.38 76.38 91.32 79.47C91.35 79.83 91.53 80.13 91.8 80.37C91.92 80.49 92.25 80.7 92.28 80.37C92.34 77.28 92.37 74.19 92.31 71.1C92.25 70.74 92.1 70.44 91.83 70.2C91.71 70.08 91.35 69.84 91.35 70.2Z" fill="#100F4A"/>
<path d="M102.72 69.54C102.72 69.54 99.51 69.42 99 70.59C98.49 71.76 100.02 72.99 100.02 72.99C100.02 72.99 99.09 74.79 100.56 75.36C100.56 75.36 100.02 76.44 101.73 77.4C102.27 77.67 102.87 77.88 103.5 78C106.53 78.66 109.53 76.74 110.19 73.71C110.25 73.41 110.28 73.14 110.31 72.84C110.31 72.81 110.31 72.78 110.31 72.72C110.4 69.72 108.09 67.23 105.09 67.11C104.43 67.08 103.8 67.17 103.17 67.38L103.02 67.41" fill="white"/>
<path d="M102.72 69.45C101.46 69.42 97.44 69.39 98.25 71.61C98.46 72.12 98.76 72.54 99.18 72.9C99.21 72.93 99.27 72.96 99.3 72.99C99.33 73.02 99.27 72.96 99.27 73.02C99.24 73.17 99.15 73.32 99.09 73.47C98.91 73.92 98.97 74.43 99.18 74.85C99.24 74.97 99.33 75.06 99.45 75.12C99.51 75.18 99.78 75.27 99.81 75.33C99.78 75.42 99.78 75.48 99.75 75.57C99.54 76.98 101.52 77.7 102.57 77.97C104.16 78.39 105.84 78.33 107.4 77.79C110.19 76.74 111.75 73.56 110.76 70.71C109.56 67.32 105.48 66.3 102.33 67.38C102.21 67.41 102.81 67.53 102.84 67.53C103.14 67.56 103.47 67.56 103.77 67.47C104.37 67.23 105.06 67.17 105.69 67.35C107.94 68.01 109.53 70.05 109.56 72.39C109.59 73.98 108.93 75.51 107.76 76.59C107.19 77.1 106.53 77.52 105.81 77.76C105.18 78 104.49 78.06 103.86 77.88C102.96 77.64 101.82 77.25 101.37 76.35C101.22 76.05 101.19 75.69 101.31 75.36L101.28 75.33C100.32 74.91 100.35 73.8 100.77 72.99L100.74 72.96C99.93 72.3 99.03 70.8 100.26 70.11C100.77 69.87 101.34 69.72 101.91 69.69L102.12 69.66H102.27C102.33 69.66 102.36 69.66 102.42 69.66H102.57C102.72 69.66 102.39 69.66 102.54 69.66H102.72C102.81 69.66 103.47 69.69 103.47 69.57C103.47 69.45 102.75 69.45 102.72 69.45Z" fill="#100F4A"/>
<path d="M106.29 68.22C105 68.49 103.71 68.7 102.42 68.88C102.06 68.91 102.09 69.45 102.21 69.69C102.33 70.02 102.69 70.26 103.05 70.23C104.34 70.08 105.63 69.84 106.92 69.57C107.28 69.51 107.25 69.03 107.13 68.76C107.01 68.49 106.65 68.16 106.29 68.22Z" fill="#100F4A"/>
<path d="M99.93 73.41C100.38 73.65 100.86 73.83 101.34 73.95C102.42 74.25 103.59 74.34 104.7 74.22C105.03 74.19 104.94 73.83 104.79 73.65C104.61 73.41 104.22 73.11 103.89 73.14C103.35 73.2 102.81 73.23 102.27 73.17C102.03 73.14 101.82 73.11 101.58 73.08L101.25 73.02L101.13 72.99L101.04 72.96H101.07C100.77 72.87 100.5 72.78 100.2 72.66C100.08 72.6 100.08 72.6 100.2 72.66L100.11 72.63L100.02 72.6C99.84 72.51 99.39 72.33 99.33 72.66C99.27 72.99 99.72 73.26 99.93 73.41Z" fill="#100F4A"/>
<path d="M100.11 75.84C100.59 76.02 101.1 76.2 101.61 76.32C102.6 76.62 103.62 76.71 104.64 76.56C104.91 76.5 105.33 76.23 105.24 75.9C105.15 75.57 104.67 75.54 104.4 75.57C104.25 75.6 104.34 75.54 104.4 75.57C104.34 75.57 104.31 75.57 104.25 75.6C104.13 75.6 104.04 75.6 103.92 75.6H103.83C103.95 75.6 103.77 75.6 103.74 75.6C103.62 75.6 103.53 75.57 103.41 75.57C103.2 75.54 102.96 75.51 102.75 75.45L102.45 75.39C102.3 75.36 102.57 75.42 102.42 75.39L102.27 75.36C101.82 75.24 101.37 75.09 100.92 74.91C100.56 74.79 100.17 74.88 99.9 75.15C99.72 75.3 99.72 75.57 99.87 75.72C99.96 75.78 100.02 75.81 100.11 75.84Z" fill="#100F4A"/>
<path d="M97.47 74.91C97.14 74.76 96.81 74.55 96.51 74.34L96.57 74.37C96.36 74.22 96.15 74.04 95.97 73.86C95.88 73.77 95.79 73.68 95.7 73.59C95.61 73.53 95.55 73.41 95.52 73.32V73.38C95.52 73.35 95.52 73.32 95.52 73.29L95.4 73.47V73.44L94.98 73.77L95.01 73.74L94.53 73.95H94.56H94.35C94.53 74.01 94.68 74.1 94.8 74.22L95.25 74.49C95.4 74.58 95.55 74.73 95.76 74.73C96 74.7 96.21 74.61 96.39 74.49C96.6 74.37 96.78 74.22 96.9 74.01C97.02 73.74 96.93 73.38 96.9 73.11C96.87 72.96 96.87 72.81 96.9 72.69C96.9 72.57 96.96 72.45 97.02 72.33L95.76 72.96L96.33 75.54C96.36 75.63 96.57 75.57 96.6 75.57C96.78 75.51 96.93 75.45 97.08 75.36C97.26 75.24 97.65 75.03 97.59 74.76L97.05 72.21C97.02 72.15 96.87 72.15 96.84 72.18C96.72 72.21 96.57 72.24 96.45 72.3C96.18 72.42 95.97 72.6 95.79 72.84C95.64 73.11 95.55 73.41 95.58 73.71C95.58 73.86 95.61 74.01 95.61 74.16C95.61 74.22 95.61 74.31 95.61 74.37C95.61 74.43 95.61 74.46 95.61 74.49C95.61 74.52 95.58 74.58 95.61 74.52L95.79 74.31L95.76 74.34L96.39 73.95H96.36L96.63 73.89C96.69 73.89 96.57 73.83 96.54 73.8L96.42 73.71L96.12 73.5C95.94 73.38 95.76 73.23 95.55 73.14C95.37 73.08 95.19 73.08 95.04 73.17C94.74 73.29 94.47 73.47 94.26 73.71C94.11 73.86 94.08 74.07 94.23 74.25L94.26 74.28C94.8 74.88 95.46 75.39 96.18 75.72C96.27 75.75 96.48 75.69 96.54 75.66C96.72 75.6 96.9 75.51 97.05 75.39C97.26 75.39 97.68 75.03 97.47 74.91Z" fill="#100F4A"/>
<path d="M117.33 35.37L118.5 29.76L107.64 25.41L117.33 35.37Z" fill="white"/>
<path d="M117.78 35.97L118.95 30.36C118.98 30.18 118.71 29.82 118.62 29.7C118.5 29.52 118.35 29.22 118.14 29.16L108.6 25.32L107.25 24.78C107.1 24.72 107.31 25.14 107.31 25.14C107.46 25.41 107.64 25.65 107.85 25.89L111.15 29.28L116.37 34.65L117.57 35.88C117.75 36.06 117.81 36 117.72 35.79C117.57 35.46 117.36 35.16 117.12 34.92L113.82 31.53L108.6 26.16L107.4 24.9L108 26.01L117.51 29.82L118.86 30.36L118.05 29.16L116.91 34.8C116.88 35.04 117.21 35.46 117.36 35.61C117.39 35.67 117.75 36.12 117.78 35.97Z" fill="#4D4FB0"/>
<path d="M115.59 31.95L117.33 35.37L114.48 32.91L115.59 31.95Z" fill="white"/>
<path d="M114.93 31.89L116.46 34.89L116.67 35.31L117.9 35.37L115.38 33.21L115.02 32.91L115.08 33.27L116.19 32.34C116.52 32.04 115.23 31.38 114.9 31.68L113.79 32.61C113.67 32.73 113.76 32.88 113.85 32.97L116.37 35.13L116.73 35.43C117 35.64 117.3 35.76 117.63 35.79C117.84 35.79 118.08 35.73 117.96 35.49L116.43 32.49L116.22 32.07C116.13 31.95 116.01 31.83 115.86 31.77C115.68 31.68 115.5 31.62 115.32 31.59C115.11 31.56 114.78 31.59 114.93 31.89Z" fill="#4D4FB0"/>
<path d="M118.5 29.76L121.08 27.42L105.63 24.18L110.43 36.3L115.59 31.95L107.64 25.41L118.5 29.76Z" fill="white"/>
<path d="M119.1 30.18L121.65 27.84C121.98 27.54 121.05 27.06 120.84 27.03L115.62 25.92L107.31 24.18L105.39 23.79C105.18 23.76 104.82 23.73 104.97 24.03L106.59 28.14L109.17 34.65L109.77 36.15C109.92 36.36 110.13 36.54 110.37 36.63C110.52 36.69 110.88 36.87 111.03 36.72L115.53 32.94L116.19 32.4C116.37 32.25 116.16 32.04 116.04 31.95L109.08 26.22L108.06 25.38L107.64 25.77L117.15 29.58L118.5 30.12C118.65 30.18 119.13 30.33 119.13 30.03C119.13 29.73 118.59 29.49 118.41 29.4L108.9 25.59L107.55 25.05C107.4 24.99 107.07 24.87 106.95 25.02C106.83 25.17 107.01 25.35 107.13 25.44L114.09 31.17L115.11 32.01L114.96 31.56L110.46 35.34L109.8 35.88L111.03 36.45L109.41 32.34L106.83 25.83L106.23 24.33L105.81 24.57L111.06 25.68L119.37 27.42L121.29 27.81L120.48 27L117.9 29.34C117.54 29.67 118.8 30.45 119.1 30.18Z" fill="#4D4FB0"/>
<path d="M119.7 37.77C120.66 38.37 121.53 39.06 122.28 39.87C124.14 41.73 125.52 43.98 126.36 46.47C127.59 50.13 127.47 54.15 126.45 57.84C126.03 59.46 125.31 60.99 124.32 62.37C123.9 62.91 123.45 63.45 122.94 63.9C122.73 64.08 122.46 64.32 122.19 64.5C122.07 64.59 121.95 64.68 121.83 64.74C121.8 64.77 121.62 64.86 121.74 64.8L121.53 64.95C121.26 65.1 120.99 65.25 120.72 65.37C120.69 65.4 120.48 65.49 120.66 65.4L120.48 65.46C120.33 65.52 120.21 65.58 120.06 65.64C119.91 65.7 119.79 65.73 119.67 65.79C119.61 65.82 119.46 65.85 119.61 65.82C119.55 65.85 119.46 65.85 119.4 65.88C119.13 65.94 118.86 66 118.62 66.06L118.44 66.09C118.38 66.09 118.29 66.12 118.41 66.09C118.29 66.12 118.14 66.12 118.02 66.15C117.78 66.18 117.54 66.18 117.27 66.18H117.09C116.94 66.18 117.15 66.18 117.03 66.18H116.7C116.49 66.15 116.28 66.15 116.07 66.12L115.77 66.06C115.74 66.06 115.59 66.03 115.74 66.06L115.59 66.03C115.41 66 115.26 65.94 115.11 65.88C114.96 65.82 114.81 65.76 114.66 65.67L114.57 65.61C114.51 65.58 114.45 65.52 114.42 65.49C114.33 65.43 114.24 65.34 114.18 65.25C114.24 65.34 114.18 65.22 114.15 65.19C114.12 65.16 114.12 65.1 114.09 65.04C114.06 64.98 114.06 64.86 114.06 64.98C114.06 64.92 114.06 64.89 114.06 64.83C114.06 64.8 114.09 64.65 114.06 64.74C114.03 64.83 114.09 64.68 114.12 64.62C114.15 64.56 114.15 64.56 114.15 64.56C114.15 64.56 114.06 64.65 114.15 64.59C114.18 64.56 114.33 64.41 114.24 64.47C114.15 64.53 114.42 64.38 114.18 64.53C114.21 64.5 114.3 64.47 114.15 64.53C113.94 64.62 114.3 64.5 114.06 64.56C113.91 64.59 114 64.59 114.03 64.56C114 64.56 113.82 64.59 113.94 64.59C113.76 64.56 114.06 64.59 113.94 64.59C114.03 64.59 113.82 64.53 113.97 64.59L114.12 64.65C114.24 64.71 114.12 64.62 114.18 64.68C114.24 64.74 114.3 64.77 114.36 64.8C114.48 64.89 114.6 64.98 114.69 65.1C114.93 65.34 115.14 65.61 115.32 65.88C116.46 67.56 117.12 69.57 117.54 71.52C118.02 73.74 118.14 76.11 117.51 78.3C117.36 78.81 117.15 79.29 116.91 79.74C116.67 80.19 116.37 80.61 116.01 81C115.92 81.09 115.83 81.18 115.74 81.27C115.71 81.3 115.59 81.42 115.68 81.33C115.62 81.39 115.56 81.42 115.5 81.48C115.38 81.57 115.29 81.66 115.17 81.72C115.11 81.75 115.05 81.81 114.99 81.84C114.84 81.93 115.02 81.81 114.9 81.9C114.78 81.99 114.66 82.05 114.57 82.11L114.39 82.2L114.27 82.26C114.18 82.32 114.39 82.2 114.27 82.26C113.97 82.38 113.67 82.5 113.37 82.59L113.25 82.62L113.01 82.68C112.86 82.71 112.68 82.74 112.5 82.8C112.32 82.86 112.26 82.83 112.11 82.86C111.93 82.89 111.72 82.92 111.51 82.92C111.21 82.95 110.73 83.1 110.61 83.4C110.49 83.7 110.79 83.82 111.06 83.79C113.85 83.55 116.58 82.38 118.05 79.89C119.28 77.79 119.43 75.21 119.19 72.87C118.98 70.59 118.35 68.34 117.3 66.3C116.67 65.13 115.65 63.36 114.06 63.75C113.4 63.9 112.59 64.53 112.59 65.28C112.59 65.91 113.16 66.3 113.64 66.57C115.38 67.44 117.69 67.23 119.49 66.69C122.34 65.85 124.77 63.93 126.27 61.38C127.26 59.67 127.92 57.81 128.25 55.89C128.67 53.79 128.76 51.63 128.52 49.47C128.16 46.29 126.9 43.29 124.92 40.77C123.87 39.39 122.58 38.19 121.14 37.2C121.08 37.14 120.99 37.11 120.93 37.08C120.63 36.93 120.27 36.96 119.97 37.14C119.91 37.2 119.4 37.59 119.7 37.77Z" fill="#100F4A"/>
<path d="M36.57 63.72C36.54 62.4 35.52 61.5 34.59 60.72C33.63 59.85 32.55 59.1 31.38 58.53C29.31 57.57 26.73 57.69 25.05 59.37C24.24 60.15 23.82 61.26 24 62.37C24.15 63.3 25.02 63.93 25.95 63.78C26.19 63.75 26.4 63.66 26.61 63.51C27.78 62.79 27.33 61.32 26.31 60.72C25.38 60.18 24.18 60.24 23.16 60.6C20.67 61.47 18.9 64.14 18.87 66.75C18.87 67.65 20.28 67.35 20.31 66.57C20.34 64.92 21.12 63.36 22.44 62.4C23.01 61.95 23.73 61.68 24.48 61.68C24.81 61.68 25.11 61.77 25.41 61.92C25.62 62.07 25.8 62.31 25.92 62.55L26.01 62.49C26.01 62.49 25.92 62.55 25.89 62.55C25.95 62.55 25.77 62.52 25.77 62.52C25.44 62.4 25.38 61.92 25.38 61.59C25.44 60.96 25.77 60.39 26.25 60.03C27.54 59.04 29.22 59.19 30.66 59.82C31.65 60.3 32.55 60.93 33.36 61.65C34.05 62.22 35.16 63 35.19 63.99C35.19 64.83 36.63 64.53 36.57 63.72Z" fill="#100F4A"/>
</svg>
