<svg width="400" height="150" viewBox="0 0 400 150" fill="none" xmlns="http://www.w3.org/2000/svg">
<rect width="400" height="150" rx="15" fill="#4D4FB0"/>
<path d="M37.0199 71.64C37.0199 71.64 101.16 60.12 108.66 60.12C116.16 60.12 156.75 74.64 162.51 78.9C168.27 83.16 169.77 99.93 163.02 105.72C156.27 111.51 79.3499 124.77 76.8299 124.77C74.3099 124.77 34.5299 99.69 34.5299 99.69L48.2999 94.92L43.5299 76.89L41.7299 74.04L37.0199 71.64Z" fill="#100F4A"/>
<path d="M37.6799 71.94C39.6899 71.58 41.6699 71.22 43.6799 70.86C48.5699 69.99 53.4599 69.15 58.3199 68.28C64.5299 67.2 70.7699 66.15 76.9799 65.1C82.9499 64.11 88.8899 63.12 94.8599 62.22C98.9399 61.59 103.05 60.93 107.19 60.54C108.27 60.39 109.38 60.39 110.46 60.51C112.5 60.81 114.51 61.26 116.49 61.8C122.64 63.42 128.7 65.43 134.7 67.53C140.97 69.72 147.21 72.03 153.36 74.58C155.46 75.48 157.71 76.44 159.66 77.43C161.37 78.3 162.72 79.14 163.83 80.82C165.66 83.64 166.44 87.12 166.71 90.42C167.01 93.96 166.71 97.68 165.36 100.98C164.58 102.93 163.35 104.94 161.46 105.96C160.26 106.59 158.97 107.13 157.68 107.52C153.39 109.02 148.98 110.13 144.57 111.18C138.69 112.62 132.78 113.91 126.87 115.14C120.54 116.46 114.24 117.72 107.88 118.89C102.24 119.97 96.5999 120.99 90.9299 121.98C87.0899 122.64 83.2199 123.33 79.3499 123.93C78.4199 124.08 77.5499 124.23 76.6499 124.32C76.5599 124.32 76.4399 124.32 76.3499 124.35C76.2599 124.38 76.4099 124.38 76.4699 124.38C76.4399 124.38 76.3799 124.35 76.3499 124.35C76.2899 124.38 76.4999 124.41 76.3799 124.35L76.0799 124.23C76.3499 124.35 75.9599 124.17 75.8999 124.14L75.4799 123.93C74.0099 123.21 72.3299 122.28 70.7999 121.38C68.5199 120.09 66.2699 118.74 63.9899 117.42C58.7099 114.3 53.4899 111.12 48.2999 107.91C44.4599 105.54 40.6199 103.17 36.8099 100.77L35.0699 99.69L35.1899 99.93L47.2199 95.76L48.9599 95.16C48.9899 95.16 49.0199 95.13 49.0199 95.1V95.07L46.0799 83.97L44.4599 78C44.3999 77.7 44.3099 77.4 44.2199 77.1C44.0099 76.68 43.7399 76.29 43.4699 75.9C43.1699 75.42 42.8699 74.91 42.5399 74.43C42.0899 73.77 41.0399 73.47 40.3499 73.11L37.4399 71.61C37.1999 71.49 36.7199 71.19 36.4499 71.31C36.1799 71.43 36.4499 71.55 36.5999 71.64L41.3099 74.04L41.0399 73.8L41.9999 75.33C42.2999 75.75 42.5999 76.2 42.8399 76.65C43.0499 77.28 43.2299 77.91 43.3499 78.57L45.8099 87.87L46.9799 92.37L47.3699 93.87C47.4599 94.11 47.5199 94.38 47.5799 94.62C47.5799 94.74 47.6399 94.56 47.6099 94.59C47.5199 94.62 47.4299 94.65 47.3399 94.68L46.1399 95.1L41.7599 96.6L33.8399 99.33C33.6899 99.39 33.9299 99.54 33.9599 99.57C36.2399 101.01 38.5199 102.42 40.7999 103.86C45.8099 106.98 50.7899 110.07 55.7999 113.1C60.6599 116.07 65.5199 119.01 70.4999 121.8C72.0599 122.67 73.6199 123.57 75.2399 124.32C76.0199 124.68 76.8599 125.13 77.7299 125.04C80.2499 124.8 82.7699 124.29 85.2599 123.87C90.2099 123.06 95.1299 122.19 100.05 121.29C106.26 120.15 112.47 118.98 118.68 117.75C125.04 116.49 131.37 115.2 137.7 113.76C143.04 112.56 148.38 111.33 153.63 109.83C155.55 109.29 157.47 108.72 159.33 108.06C160.59 107.64 161.82 107.13 162.99 106.47C165.03 105.27 166.29 102.96 167.04 100.8C168.24 97.38 168.45 93.63 168.03 90.06C167.67 86.85 166.83 83.43 164.88 80.79C163.74 79.23 162.18 78.3 160.47 77.43C155.46 74.88 150.18 72.87 144.93 70.86C138.33 68.37 131.67 66.03 124.95 63.9C122.07 62.97 119.13 62.1 116.22 61.32C114.12 60.72 111.99 60.27 109.83 59.91C107.01 59.49 104.07 60.09 101.28 60.48C96.0299 61.2 90.7799 62.01 85.5599 62.85C79.1999 63.87 72.8099 64.95 66.4499 66.03C60.5999 67.02 54.7499 68.04 48.8999 69.06C45.2399 69.69 41.5799 70.35 37.8899 71.01L36.3599 71.28C36.1499 71.31 36.7499 71.67 36.7799 71.67C37.0499 71.88 37.3799 71.94 37.6799 71.94Z" fill="#4D4FB0"/>
<path d="M155.91 79.0378C155.91 79.0378 164.67 77.7778 164.16 89.8078C163.65 101.838 157.65 105.078 143.61 108.108C129.57 111.138 76.5 121.398 76.5 121.398L72 91.0678C72.03 91.0678 131.34 79.5478 155.91 79.0378Z" fill="white"/>
<path d="M156.48 79.53C156.66 79.5 156.3 79.53 156.42 79.53C156.54 79.53 156.66 79.5 156.78 79.5C156.96 79.5 157.14 79.5 157.32 79.5C157.41 79.5 157.53 79.5 157.62 79.53H157.77C158.01 79.56 157.74 79.53 157.83 79.53C158.1 79.56 158.37 79.62 158.64 79.68C158.79 79.71 158.94 79.74 159.06 79.8L159.27 79.86C159.45 79.92 159.24 79.83 159.39 79.89C159.72 80.01 160.02 80.16 160.32 80.34L160.53 80.46L160.65 80.52C160.8 80.64 160.95 80.76 161.1 80.88C162.51 82.08 163.26 83.97 163.59 85.86C163.8 87.3 163.86 88.77 163.74 90.21C163.68 91.44 163.53 92.64 163.29 93.84C162.9 95.85 162.12 97.74 160.95 99.39C159.81 100.92 158.34 102.21 156.66 103.11C152.43 105.48 147.48 106.47 142.8 107.46C139.53 108.15 136.29 108.81 133.02 109.47C128.67 110.34 124.29 111.21 119.94 112.08C115.2 113.01 110.46 113.94 105.72 114.9L92.3699 117.51L82.0799 119.52L76.9499 120.51L76.7099 120.54L77.6099 120.99L76.1099 110.76L73.7099 94.44L73.1399 90.69L72.5999 91.47C74.6099 91.08 76.6499 90.69 78.6599 90.33C83.7899 89.37 88.9499 88.44 94.1099 87.57C100.95 86.37 107.82 85.23 114.72 84.18C121.89 83.07 129.09 82.05 136.29 81.18C142.32 80.46 148.38 79.8 154.47 79.56C155.07 79.53 155.67 79.53 156.3 79.5C157.23 79.47 157.26 78.18 156.33 78.21C150.36 78.33 144.42 78.93 138.48 79.62C131.34 80.43 124.2 81.42 117.09 82.5C110.1 83.55 103.11 84.69 96.1499 85.89C90.7199 86.82 85.2599 87.78 79.8299 88.8C77.3399 89.25 74.8199 89.64 72.3599 90.21L72.2399 90.24C71.8799 90.3 71.6399 90.63 71.6999 90.99V91.02L73.1999 101.25L75.5999 117.57L76.1699 121.32C76.2299 121.71 76.7699 121.86 77.0699 121.77L80.7599 121.05L90.3299 119.19L103.44 116.64C108.27 115.68 113.1 114.75 117.9 113.79C122.46 112.89 127.02 111.99 131.58 111.06C135.12 110.34 138.63 109.65 142.14 108.9C146.76 107.94 151.5 106.98 155.82 105C157.77 104.16 159.54 102.96 161.04 101.49C162.48 100.02 163.53 98.25 164.19 96.3C164.97 93.87 165.36 91.32 165.33 88.77C165.36 86.31 165 83.67 163.62 81.57C162.09 79.29 159.48 77.97 156.75 78.12C156.54 78.12 156.33 78.15 156.12 78.18C155.76 78.24 155.52 78.57 155.58 78.93V78.96C155.67 79.47 156.12 79.59 156.48 79.53Z" fill="#4D4FB0"/>
<path d="M41.7299 74.04C41.7299 74.04 46.1999 87.48 41.3699 99.21C41.3699 99.21 74.0999 121.26 76.8599 121.26C76.8599 121.26 79.9499 104.01 72.3899 90.93L41.7299 74.04Z" fill="white"/>
<path d="M41.0099 73.86C41.5499 75.57 41.9699 77.31 42.2399 79.08C42.9599 83.07 43.0799 87.15 42.6599 91.2C42.3599 93.9 41.6999 96.51 40.6799 99.03C40.6799 99.06 40.7099 99.12 40.7699 99.12C41.8799 99.87 42.9899 100.62 44.1299 101.37C46.7999 103.14 49.4999 104.94 52.1699 106.68C55.4699 108.84 58.7999 111 62.1299 113.13C65.0699 114.99 68.0399 116.85 71.0399 118.62C72.0899 119.22 73.1699 119.85 74.2499 120.39C75.0299 120.81 75.8399 121.14 76.6799 121.35C76.9199 121.41 77.1599 121.44 77.3999 121.47C77.3999 121.47 77.6399 121.5 77.6399 121.44C77.8499 120.27 77.9699 119.04 78.0599 117.87C78.2999 114.93 78.3299 111.96 78.1199 108.99C77.8799 105.15 77.1899 101.34 76.0199 97.65C75.3899 95.7 74.6099 93.81 73.6499 92.01C73.4699 91.68 73.3199 91.2 73.0199 90.99C72.9299 90.93 72.8399 90.9 72.7499 90.84L69.5399 89.07L63.8999 85.98L57.1499 82.26L50.4899 78.57L45.1799 75.66C44.2799 75.18 43.3799 74.67 42.4799 74.19L42.3599 74.13C42.0599 73.98 41.6999 73.89 41.3699 73.86C41.2799 73.86 40.7999 73.83 41.0699 73.98L42.9299 75L47.6999 77.61L54.1199 81.15L60.9599 84.9L66.9599 88.2L70.9199 90.36C71.2199 90.48 71.4899 90.63 71.7299 90.81C71.7599 90.81 71.7599 90.81 71.7899 90.84C71.8199 90.87 71.8199 90.96 71.8499 90.99C71.9699 91.23 72.1199 91.47 72.2699 91.74C72.7499 92.67 73.1999 93.63 73.6199 94.59C75.0899 98.25 76.0499 102.12 76.4699 106.05C76.8299 109.26 76.9199 112.53 76.7399 115.77C76.6499 117.48 76.4999 119.16 76.2299 120.84L76.1999 121.08L76.4399 121.05C76.3199 121.05 76.6499 121.08 76.6199 121.08C76.7099 121.11 76.7699 121.11 76.8299 121.14C76.7099 121.11 77.0099 121.2 76.7999 121.14L76.7099 121.11C76.5899 121.08 76.8599 121.17 76.7099 121.11L76.2299 120.9L75.9599 120.78L75.8399 120.72C75.9599 120.78 75.7499 120.69 75.7199 120.66C74.6999 120.15 73.6799 119.58 72.6899 119.01C69.7499 117.3 66.8999 115.5 64.0199 113.7C60.7499 111.63 57.4799 109.53 54.2399 107.4C51.4799 105.6 48.7499 103.8 45.9899 101.97L43.3199 100.17C42.9299 99.87 42.5099 99.57 42.0599 99.3C42.0299 99.3 42.0299 99.27 41.9999 99.27L42.0899 99.36C43.8599 95.07 44.4599 90.39 44.3099 85.77C44.2199 82.47 43.7399 79.2 42.9299 75.99C42.7799 75.39 42.6299 74.79 42.4199 74.19C42.3599 74.01 41.8799 73.92 41.7299 73.89C41.6999 73.89 40.9799 73.8 41.0099 73.86Z" fill="#4D4FB0"/>
<path d="M34.5299 99.69C34.5299 99.69 35.0099 101.85 35.4299 102.66C35.8499 103.47 73.3799 128.1 75.8099 128.1C78.2399 128.1 156.81 112.53 163.68 107.49C170.55 102.45 171.75 85.47 164.88 79.2C158.01 72.93 72.3899 90.9 72.3899 90.9L37.0199 71.64C37.0199 71.64 37.5599 73.5 37.9199 73.86C38.2799 74.22 71.7299 92.85 72.8699 92.85C74.0099 92.85 156.81 77.64 161.79 79.74C166.77 81.84 170.16 98.58 162.27 105.33C154.38 112.08 76.8299 124.74 76.8299 124.74L34.5299 99.69Z" fill="white"/>
<path d="M33.8399 99.48C33.9599 100.05 34.1099 100.62 34.2899 101.19C34.4099 101.64 34.5299 102.21 34.8299 102.57C35.0399 102.81 35.2799 102.99 35.5499 103.17C36.7199 104.04 37.9199 104.85 39.1199 105.66C43.3199 108.51 47.5799 111.3 51.8099 114.06C56.5799 117.15 61.3499 120.21 66.1799 123.15C68.0099 124.29 69.8699 125.4 71.7599 126.45C72.8999 127.14 74.0999 127.74 75.3299 128.25C75.9299 128.49 76.5599 128.52 77.1899 128.4C78.1799 128.25 79.1699 128.07 80.1599 127.89C83.8499 127.23 87.5099 126.51 91.1699 125.79C96.3899 124.74 101.61 123.69 106.83 122.61C112.74 121.38 118.62 120.12 124.5 118.8C130.2 117.54 135.9 116.22 141.57 114.84C146.25 113.7 150.9 112.53 155.52 111.18C158.25 110.37 161.19 109.62 163.71 108.27C165.54 107.28 166.89 105.39 167.82 103.59C169.35 100.56 170.07 97.14 170.19 93.75C170.31 90.36 169.89 86.91 168.57 83.79C167.76 81.9 166.5 79.71 164.58 78.75C162.18 77.55 159.15 77.61 156.54 77.61C152.22 77.67 147.9 77.94 143.58 78.45C138.12 79.02 132.69 79.77 127.26 80.58C121.44 81.45 115.62 82.41 109.83 83.4C104.37 84.33 98.9099 85.32 93.4799 86.37C89.1299 87.18 84.7799 88.02 80.4299 88.89C77.9099 89.4 75.4199 89.91 72.8999 90.42L71.9099 90.63L72.7199 90.84L60.7199 84.3L41.6699 73.92L37.2899 71.52C37.1999 71.49 36.2399 71.13 36.3299 71.43C36.5399 72.18 36.7499 73.32 37.4099 73.83C37.6799 74.01 37.9499 74.19 38.2499 74.34C39.4799 75.06 40.7399 75.75 41.9999 76.47C46.3499 78.9 50.6999 81.33 55.0499 83.73C59.3699 86.1 63.6899 88.47 68.0699 90.78C69.3299 91.44 70.5899 92.13 71.9099 92.73C72.4799 93 73.0799 93.3 73.7399 93.21C75.5699 93 77.3999 92.61 79.2299 92.28C82.9499 91.62 86.6699 90.99 90.3899 90.33C95.3099 89.49 100.26 88.62 105.18 87.78C110.61 86.85 116.07 85.95 121.5 85.08C126.81 84.21 132.15 83.37 137.46 82.59C141.96 81.93 146.46 81.27 150.96 80.73C153.96 80.37 156.96 79.98 159.99 79.92C160.5 79.92 160.77 79.92 161.22 79.92C161.37 79.92 161.55 79.95 161.7 79.95C161.85 79.95 161.64 79.95 161.76 79.95C161.88 79.95 162 80.04 161.79 79.95C161.97 80.04 161.67 79.89 161.76 79.92C161.85 79.98 161.97 80.04 162.06 80.1C162.42 80.37 162.75 80.7 163.05 81.06C163.77 82.02 164.37 83.07 164.79 84.21C165.87 87.03 166.41 90 166.35 93C166.32 96.06 165.75 99.24 164.22 101.94C163.32 103.53 162.12 104.94 160.5 105.84C159.36 106.44 158.16 106.98 156.93 107.4C153.21 108.78 149.37 109.8 145.5 110.79C140.46 112.08 135.39 113.25 130.29 114.33C124.74 115.53 119.13 116.67 113.55 117.75C108.24 118.77 102.93 119.79 97.6199 120.75C93.3299 121.53 89.0699 122.28 84.7799 123C82.2899 123.42 79.8299 123.84 77.3399 124.26L76.3499 124.41L77.3399 124.71L73.1399 122.22L62.9999 116.22L50.7899 108.99L40.2299 102.75C38.5199 101.73 36.8099 100.71 35.0699 99.69L35.0099 99.66C34.7999 99.54 34.2899 99.24 34.0199 99.36C33.7499 99.48 33.9899 99.63 34.1699 99.75L41.7599 104.25L57.8099 113.7L72.4199 122.34L76.1099 124.53C76.6799 124.86 77.2199 125.13 77.8799 125.01C80.7299 124.53 83.5799 124.05 86.3999 123.57C91.8899 122.61 97.3799 121.65 102.87 120.63C109.62 119.4 116.37 118.08 123.12 116.73C129.69 115.38 136.23 114 142.74 112.41C147.75 111.21 152.79 109.95 157.68 108.21C159.21 107.7 160.65 107.07 162.06 106.29C164.37 104.94 165.9 102.39 166.74 99.93C167.94 96.36 168 92.4 167.34 88.71C166.8 85.86 165.81 82.5 163.56 80.49C161.4 78.57 158.22 79.14 155.58 79.35C150.75 79.77 145.95 80.43 141.15 81.12C134.79 82.02 128.46 83.01 122.13 84.03C115.44 85.11 108.75 86.22 102.06 87.36C96.2999 88.35 90.5399 89.34 84.7799 90.33C81.2399 90.96 77.6999 91.59 74.1299 92.19C73.7099 92.25 73.3199 92.34 72.8999 92.4C72.7799 92.43 72.6599 92.43 72.5399 92.46C72.5099 92.46 72.4799 92.46 72.4199 92.46C72.3299 92.49 72.4199 92.43 72.4199 92.46C72.4199 92.46 72.8399 92.52 72.6599 92.49C72.9299 92.52 72.7199 92.49 72.5699 92.46C72.5099 92.43 72.4499 92.43 72.4199 92.4L71.9999 92.19C71.2199 91.83 70.4699 91.44 69.6899 91.02C64.3799 88.26 59.1299 85.38 53.9099 82.47C49.2299 79.89 44.5199 77.31 39.8999 74.64C39.4499 74.4 39.0299 74.13 38.5799 73.86C38.5499 73.83 38.4899 73.8 38.4599 73.77C38.4299 73.74 38.5499 73.86 38.5499 73.83C38.5499 73.8 38.6399 74.01 38.5799 73.86C38.5499 73.8 38.5199 73.74 38.4899 73.68C38.1899 73.08 37.9499 72.42 37.7999 71.76L36.8399 71.67L45.8399 76.59L62.6999 85.77L69.2999 89.37C70.2599 89.91 71.2199 90.48 72.2099 90.96C72.9299 91.29 73.3799 91.11 74.0999 90.96C75.2999 90.72 76.5299 90.45 77.7599 90.21C82.1699 89.31 86.5799 88.44 91.0199 87.6C97.1399 86.43 103.29 85.29 109.41 84.24C116.13 83.07 122.85 81.96 129.6 80.97C135.72 80.07 141.87 79.26 148.05 78.69C152.4 78.3 156.87 77.91 161.25 78.3C161.91 78.36 162.57 78.45 163.23 78.6C163.29 78.6 163.38 78.63 163.47 78.66C163.65 78.69 163.41 78.63 163.5 78.66C163.59 78.69 163.77 78.75 163.92 78.78C164.01 78.81 163.74 78.72 163.95 78.78L164.1 78.84C163.8 78.72 164.4 78.99 164.13 78.84C164.25 78.9 164.34 78.99 164.28 78.93C164.43 79.05 164.55 79.17 164.7 79.29C165.33 79.92 165.87 80.61 166.32 81.36C167.28 82.98 167.97 84.78 168.36 86.61C169.2 90.6 169.11 94.74 168.09 98.67C167.28 101.76 165.81 105.3 163.05 107.16C162.06 107.82 160.86 108.24 159.75 108.66C157.86 109.35 155.94 109.92 154.02 110.49C148.53 112.08 142.98 113.46 137.43 114.78C130.68 116.4 123.9 117.9 117.12 119.37C110.52 120.81 103.95 122.19 97.3499 123.51C92.2799 124.53 87.1799 125.55 82.0799 126.51C80.5199 126.81 78.9899 127.08 77.4299 127.35C76.9799 127.44 76.4999 127.5 76.0499 127.56C75.8999 127.59 75.7799 127.59 75.6299 127.62C75.5999 127.62 75.5399 127.62 75.4799 127.62C75.3299 127.65 75.5099 127.62 75.4799 127.62C75.4499 127.62 75.5999 127.62 75.5699 127.65C75.5399 127.65 75.5099 127.62 75.4499 127.62C75.6899 127.77 75.5099 127.65 75.4199 127.62C75.2699 127.56 75.1199 127.47 75.2399 127.56L74.8199 127.35C74.0699 126.99 73.3799 126.6 72.7199 126.21C70.4999 124.95 68.3099 123.63 66.1199 122.28C60.4799 118.8 54.9299 115.23 49.3799 111.63C45.2999 108.96 41.1599 106.29 37.1999 103.47C36.8699 103.23 36.5399 102.96 36.2099 102.72C36.2399 102.75 36.2699 102.81 36.2099 102.72C36.3299 102.93 36.1499 102.54 36.1199 102.51C36.0299 102.3 35.9699 102.09 35.9099 101.91C35.6999 101.22 35.5199 100.53 35.3399 99.81C35.1299 99.54 33.7799 99.21 33.8399 99.48Z" fill="#4D4FB0"/>
<path d="M78.9899 107.64C86.6099 106.5 94.1999 105.24 101.76 103.8C103.89 103.41 106.02 102.99 108.15 102.54C108.45 102.48 107.94 102.36 107.88 102.36C107.55 102.3 107.19 102.27 106.86 102.33C99.2999 103.86 91.7399 105.21 84.1199 106.44C81.9899 106.8 79.8299 107.13 77.6699 107.43C77.3699 107.46 77.8799 107.61 77.9399 107.61C78.2999 107.67 78.6299 107.7 78.9899 107.64Z" fill="#4D4FB0"/>
<path d="M114.06 96.69L132.69 92.88C133.02 92.82 133.44 92.61 133.44 92.22C133.41 91.89 133.11 91.65 132.78 91.71C132.75 91.71 132.75 91.71 132.72 91.71C126.51 92.97 120.3 94.26 114.09 95.52C113.76 95.58 113.34 95.79 113.34 96.18C113.37 96.51 113.67 96.75 114 96.69C114 96.69 114.03 96.69 114.06 96.69Z" fill="#4D4FB0"/>
<path d="M52.1399 91.26C56.7299 93.87 61.2899 96.6 65.8199 99.39C65.9999 99.51 66.2399 99.48 66.3599 99.3C66.4199 99.24 66.4499 99.15 66.4199 99.06C66.4199 98.67 66.2099 98.34 65.9099 98.13C61.4099 95.34 56.8499 92.61 52.2299 90C52.0499 89.88 51.8099 89.91 51.6899 90.09C51.6299 90.15 51.6299 90.24 51.6299 90.33C51.6299 90.72 51.8099 91.05 52.1399 91.26Z" fill="#4D4FB0"/>
<path d="M66.3299 108.36C66.7799 108.3 67.2599 108.57 67.6499 108.78C68.1599 109.05 68.6399 109.35 69.1199 109.62L72.2399 111.45C72.5399 111.63 72.9299 111.66 73.2599 111.54C73.4399 111.48 73.8299 111.24 73.5299 111.06L69.8399 108.9C68.6099 108.15 67.3799 107.52 65.9099 107.7C65.6999 107.73 65.2499 107.85 65.3999 108.15C65.5199 108.42 66.0899 108.39 66.3299 108.36Z" fill="#4D4FB0"/>
<path d="M77.91 34.8C77.91 34.8 67.26 30.99 66 30.39C64.74 29.79 61.62 29.22 63.69 32.1C65.76 34.98 70.5 37.2 70.98 37.68C71.46 38.16 75.72 38.61 76.53 38.04C77.34 37.47 77.91 34.8 77.91 34.8Z" fill="#100F4A"/>
<path d="M78.63 34.68C76.74 34.02 74.88 33.33 72.99 32.64C70.83 31.86 68.67 31.08 66.54 30.21C66 30 65.43 29.85 64.83 29.79C64.41 29.76 64.02 29.79 63.6 29.85C63.21 29.88 62.85 29.97 62.49 30.18C62.01 30.51 62.28 31.17 62.49 31.59C63 32.43 63.63 33.21 64.38 33.84C65.76 35.04 67.26 36.06 68.85 36.96C69.3 37.2 69.72 37.47 70.14 37.74C70.5 37.98 70.92 38.13 71.37 38.19C72.99 38.52 74.64 38.55 76.26 38.25C76.59 38.22 76.92 38.1 77.22 37.95C77.46 37.77 77.64 37.5 77.79 37.23C78.12 36.57 78.36 35.85 78.54 35.13C78.6 35.01 78.63 34.86 78.63 34.68C78.66 34.65 77.94 34.71 77.91 34.74C77.79 34.77 77.22 34.8 77.19 34.95C77.1 35.37 76.98 35.82 76.83 36.24C76.62 36.84 76.41 37.65 75.9 38.1C75.84 38.16 75.75 38.19 75.69 38.22C75.69 38.22 75.51 38.25 75.81 38.19C75.84 38.19 75.9 38.19 75.93 38.16C75.84 38.16 76.05 38.13 75.93 38.16H75.6C75.42 38.16 75.24 38.16 75.06 38.16C74.34 38.13 73.62 38.07 72.9 37.95C72.48 37.92 72.06 37.77 71.7 37.56C71.37 37.32 71.04 37.11 70.68 36.93C69.24 36.12 67.89 35.22 66.6 34.23C65.88 33.66 65.22 33.03 64.65 32.31C64.29 31.83 63.66 31.08 63.75 30.39C63.75 30.3 63.81 30.21 63.84 30.15C63.9 30.09 63.99 30.06 64.05 30C64.05 30 63.42 30.12 63.39 30.09C63.36 30.06 63.42 30.09 63.45 30.09C63.57 30.12 63.72 30.12 63.84 30.12C64.35 30.21 64.83 30.36 65.28 30.57C67.23 31.41 69.27 32.1 71.25 32.82L74.94 34.17C75.66 34.41 76.35 34.71 77.07 34.95L77.16 34.98C77.46 35.01 77.79 35.01 78.09 34.89C78.21 34.83 78.72 34.71 78.63 34.68Z" fill="#100F4A"/>
<path d="M80.58 49.5C80.58 49.5 76.65 39.48 76.53 38.04C76.53 38.04 74.34 36.72 72 35.64C69.54 34.5 65.4 33.12 65.4 33.12C65.4 33.12 71.31 38.91 71.61 40.35C71.91 41.79 75.45 57.27 75.45 57.27C75.45 57.27 80.73 50.85 80.58 49.5Z" fill="white"/>
<path d="M81.03 49.62C80.04 47.1 79.08 44.55 78.18 42C77.91 41.25 77.64 40.5 77.4 39.75C77.31 39.48 77.22 39.21 77.16 38.94C77.13 38.82 77.1 38.73 77.07 38.61C77.07 38.58 77.04 38.52 77.04 38.49C77.04 38.46 77.07 38.61 77.04 38.49C76.92 37.56 75.63 37.08 74.91 36.69C73.65 35.97 72.33 35.34 71.01 34.74C69.09 33.9 67.08 33.18 65.1 32.52C64.89 32.46 64.83 32.64 64.86 32.79C64.92 33.06 65.07 33.3 65.25 33.48C65.64 33.87 66.03 34.26 66.42 34.65C66.81 35.04 67.2 35.46 67.59 35.88C67.8 36.09 67.98 36.3 68.19 36.51L68.46 36.81L68.61 36.99L68.76 37.14C69.15 37.59 69.54 38.04 69.93 38.49C70.11 38.7 70.29 38.91 70.44 39.15C70.5 39.24 70.56 39.33 70.62 39.39L70.65 39.42L70.77 39.6C70.8 39.66 70.86 39.75 70.89 39.81C70.92 39.87 70.95 39.9 70.95 39.93C70.89 39.78 71.04 40.05 70.95 39.93C70.98 39.99 71.04 40.2 70.98 40.02C70.98 40.08 71.01 40.11 71.01 40.17C71.04 40.38 71.1 40.56 71.13 40.77C72.03 44.88 72.99 48.96 73.92 53.07C74.22 54.39 74.52 55.74 74.85 57.06C74.94 57.33 75.09 57.57 75.3 57.75C75.39 57.81 75.69 58.08 75.81 57.93C76.44 57.18 77.04 56.4 77.64 55.65C78.66 54.36 79.62 53.01 80.46 51.57C80.73 51.12 81.09 50.55 81.03 49.98C80.97 49.62 80.76 49.32 80.49 49.11C80.34 48.99 79.95 48.84 79.98 49.17C79.98 49.2 79.98 49.23 79.98 49.29C79.98 49.35 80.01 49.23 79.98 49.35C79.95 49.44 79.92 49.56 79.89 49.65C79.8 49.92 79.68 50.16 79.53 50.4C79.17 51.06 78.75 51.69 78.33 52.32C77.46 53.58 76.53 54.78 75.57 55.98C75.36 56.25 75.15 56.52 74.94 56.79L75.93 57.63C75.12 54.18 74.34 50.73 73.56 47.28C73.14 45.36 72.69 43.47 72.27 41.55C72.18 41.01 72.03 40.47 71.79 39.99C71.25 39.09 70.59 38.22 69.87 37.44C68.49 35.85 67.02 34.32 65.49 32.85L65.64 33.81C68.82 34.83 71.91 36.12 74.88 37.68C75.48 38.01 76.08 38.34 76.65 38.7L75.96 37.74C76.05 38.34 76.2 38.97 76.44 39.54C76.74 40.47 77.07 41.4 77.4 42.33C78.12 44.28 78.84 46.23 79.59 48.18L80.07 49.47C80.19 49.8 80.46 50.07 80.79 50.19C81.18 50.16 81.12 49.83 81.03 49.62Z" fill="#100F4A"/>
<path d="M69.3 41.43C69.3 41.43 68.13 36.33 67.17 36.51C66.21 36.69 59.76 39.93 57.81 40.95C55.86 41.97 53.7 43.77 54 45.15C54.54 47.52 63.42 43.2 63.42 43.2L69.3 41.43Z" fill="#100F4A"/>
<path d="M69.72 41.94C69.48 40.8 69.15 39.69 68.73 38.58C68.46 37.77 68.04 37.02 67.53 36.36C67.38 36.18 67.17 35.91 66.9 35.85C66.72 35.85 66.57 35.88 66.42 35.94C64.98 36.51 63.57 37.14 62.22 37.86C60.69 38.61 59.16 39.36 57.66 40.14C56.64 40.65 55.71 41.28 54.87 42.03C54.21 42.66 53.43 43.56 53.61 44.52C53.73 45.15 54.21 45.99 54.81 46.29C55.26 46.47 55.77 46.5 56.25 46.41C57.69 46.26 59.1 45.75 60.45 45.24C61.53 44.85 62.55 44.4 63.6 43.89C64.23 43.62 64.89 43.41 65.55 43.26L69.42 42.09L69.69 42C69.78 41.97 69.21 40.65 68.91 40.74L66.15 41.58C65.13 41.88 64.05 42.15 63.06 42.51C62.49 42.72 61.95 43.02 61.41 43.26C60.15 43.8 58.86 44.28 57.57 44.7C56.94 44.91 56.31 45.03 55.68 45.12C55.2 45.21 54.72 45.21 54.24 45.06C54.18 45.03 54.06 44.97 54.03 44.94C53.97 44.85 54 44.91 54.03 44.94C54.09 45.09 54.24 45.24 54.3 45.36C54.33 45.42 54.45 45.69 54.45 45.63C54.45 45.48 54.45 45.3 54.45 45.15C54.48 44.91 54.57 44.7 54.69 44.49C55.23 43.56 56.13 42.87 57 42.27C58.32 41.37 59.82 40.71 61.23 40.02C62.76 39.24 64.29 38.49 65.88 37.8C66.36 37.56 66.87 37.35 67.41 37.17C67.53 37.11 67.65 37.11 67.8 37.14C67.89 37.17 67.86 37.2 67.8 37.11C67.8 37.11 67.74 36.99 67.77 37.08C67.74 36.93 67.74 37.02 67.74 37.05C67.8 37.17 67.71 36.99 67.77 37.08C68.28 38.22 68.64 39.39 68.91 40.62L68.97 40.89C69.06 41.22 69.24 41.52 69.48 41.79C69.48 41.88 69.78 42.24 69.72 41.94Z" fill="#100F4A"/>
<path d="M74.91 58.23L69.3 41.43C69.3 41.43 67.53 41.07 64.41 42C61.29 42.93 56.4 44.4 57.84 44.4C59.28 44.4 63.54 44.76 63.54 44.76C63.54 44.76 67.35 62.97 68.07 62.97C68.79 62.97 74.91 58.23 74.91 58.23Z" fill="white"/>
<path d="M75.6 58.5L73.71 52.83L70.68 43.77L69.96 41.7C69.78 41.37 69.45 41.1 69.06 41.04C67.98 40.86 66.9 40.89 65.82 41.1C63.93 41.43 62.04 42.09 60.21 42.66C59.46 42.9 58.71 43.14 57.99 43.41C57.75 43.5 57.51 43.59 57.27 43.71C57.18 43.77 56.97 43.83 56.91 43.95C56.76 44.22 57.27 44.52 57.45 44.61C57.72 44.76 58.02 44.82 58.32 44.82C58.92 44.82 59.55 44.85 60.15 44.91C61.41 45 62.64 45.09 63.87 45.21L62.82 44.52C63.06 45.69 63.33 46.86 63.57 48.03C64.11 50.49 64.65 52.92 65.22 55.38C65.7 57.45 66.18 59.55 66.81 61.56C66.96 62.04 67.11 62.67 67.53 63C67.89 63.36 68.4 63.48 68.88 63.3C69.24 63.12 69.6 62.94 69.93 62.7C71.79 61.47 73.59 60.12 75.36 58.74L75.48 58.65C75.81 58.38 74.58 57.6 74.28 57.84C72.78 59.01 71.25 60.15 69.66 61.26C69.21 61.56 68.79 61.86 68.34 62.13C68.19 62.22 68.01 62.34 67.86 62.43L67.65 62.52L67.59 62.55C67.59 62.55 67.56 62.55 67.68 62.55L68.46 62.91C68.46 62.91 68.58 63.03 68.55 63C68.52 62.97 68.61 63.12 68.58 63.03C68.55 62.94 68.52 62.88 68.46 62.82C68.4 62.76 68.43 62.7 68.4 62.67L68.37 62.55C68.31 62.4 68.28 62.28 68.22 62.13C67.59 60.21 67.14 58.2 66.69 56.22C66.12 53.85 65.61 51.48 65.07 49.11C64.77 47.79 64.56 46.41 64.2 45.09C64.2 45.06 64.2 45.06 64.2 45.03C64.11 44.67 63.48 44.37 63.15 44.34C62.28 44.28 61.44 44.19 60.57 44.13C59.91 44.07 59.25 44.04 58.59 44.01C58.29 44.01 58.02 43.98 57.75 43.98H57.39C57.27 43.98 57.45 43.95 57.36 43.98H57.33C57 43.92 57.27 44.07 58.17 44.43L58.29 44.64C58.32 44.7 58.23 44.7 58.29 44.67C58.35 44.64 58.47 44.58 58.53 44.55C58.8 44.43 59.07 44.31 59.34 44.22C60.21 43.92 61.08 43.62 61.95 43.35C64.02 42.69 66.12 41.94 68.31 41.82C68.64 41.79 68.97 41.79 69.3 41.82L69.57 41.85C69.63 41.85 69.84 41.91 69.54 41.85L68.64 41.19L70.53 46.86L73.56 55.92L74.25 57.99C74.4 58.29 74.67 58.5 74.97 58.59C75.03 58.59 75.66 58.77 75.6 58.5Z" fill="#100F4A"/>
<path d="M79.74 74.4L81.15 76.35L141.51 71.22C141.51 71.22 120.33 29.91 116.25 30.96C112.17 32.01 79.74 74.4 79.74 74.4Z" fill="#100F4A"/>
<path d="M79.08 74.1L80.07 75.45C80.22 75.63 80.34 75.87 80.49 76.02C80.67 76.2 80.88 76.32 81.12 76.41C81.33 76.53 81.57 76.62 81.81 76.65C81.99 76.65 82.14 76.62 82.32 76.62L85.77 76.32L91.83 75.84L99.75 75.18L108.69 74.43L117.93 73.65L126.66 72.9L134.1 72.27L139.5 71.82L141.21 71.67C141.51 71.67 141.81 71.64 142.08 71.61C142.11 71.61 142.14 71.61 142.2 71.61C142.23 71.61 142.26 71.58 142.23 71.55C141.42 69.96 140.58 68.4 139.77 66.81C137.82 63.12 135.84 59.43 133.8 55.77C131.43 51.51 129.03 47.28 126.48 43.11C124.5 39.84 122.46 36.51 120 33.57C119.28 32.7 118.5 31.83 117.51 31.26C117.03 30.99 116.37 30.6 115.8 30.66C115.53 30.72 115.29 30.81 115.08 30.99C114.24 31.59 113.49 32.25 112.8 33C111.66 34.14 110.55 35.34 109.47 36.54C106.5 39.87 103.65 43.26 100.83 46.71C97.65 50.55 94.5 54.45 91.41 58.38C88.74 61.74 86.1 65.1 83.49 68.46C82.08 70.26 80.7 72.06 79.32 73.86L79.08 74.1C79.02 74.13 80.28 74.94 80.43 74.73C81.06 73.92 81.69 73.08 82.32 72.27C83.94 70.17 85.59 68.04 87.24 65.94C89.49 63.06 91.77 60.18 94.02 57.33C96.51 54.21 99.03 51.09 101.55 48C103.89 45.15 106.26 42.3 108.69 39.51C110.49 37.44 112.32 35.34 114.3 33.42C114.87 32.82 115.5 32.28 116.16 31.77C116.37 31.62 116.58 31.5 116.79 31.38C116.85 31.35 116.94 31.32 117 31.32C117.06 31.32 117.09 31.32 117.15 31.32C117.09 31.32 117.3 31.38 117.15 31.32L117.09 31.29C117.24 31.35 116.94 31.23 117.03 31.26C116.91 31.2 116.88 31.2 116.79 31.14C116.91 31.2 116.61 31.05 116.76 31.11C116.64 31.02 116.91 31.17 116.76 31.11L116.85 31.17C116.79 31.14 116.94 31.23 116.85 31.17L116.97 31.26C117.27 31.5 117.57 31.77 117.84 32.07C118.62 32.91 119.34 33.81 120 34.74C121.95 37.38 123.69 40.17 125.4 42.96C127.41 46.29 129.36 49.65 131.25 53.04C133.02 56.22 134.76 59.4 136.5 62.61C137.7 64.83 138.87 67.05 140.04 69.3C140.31 69.81 140.55 70.29 140.82 70.8C140.85 70.86 140.88 70.89 140.88 70.95C140.88 71.01 140.88 70.95 140.91 70.92C140.82 70.95 140.76 70.95 140.67 70.95L136.53 71.28L128.34 71.97L117.69 72.87L106.08 73.86L95.1 74.79L86.31 75.54L81.21 75.96L80.55 76.02L81.87 76.65L80.46 74.7C80.22 74.49 79.95 74.31 79.65 74.25C79.53 74.19 79.02 74.04 79.08 74.1Z" fill="#100F4A"/>
<path d="M73.02 77.94C73.02 77.94 78.84 77.22 81.15 76.35C83.46 75.48 109.56 45.12 117.51 33.63C117.51 33.63 140.46 70.35 141.51 71.22C142.17 71.76 142.98 72.12 143.82 72.24C143.82 72.24 119.19 31.68 117.12 31.77C115.05 31.86 73.02 77.94 73.02 77.94Z" fill="#A88307"/>
<path d="M73.11 78.54C75.18 78.3 77.25 77.97 79.26 77.52C79.86 77.4 80.46 77.25 81.03 77.04C81.27 76.98 81.51 76.86 81.75 76.74C82.05 76.53 82.35 76.32 82.62 76.05C83.55 75.24 84.39 74.34 85.23 73.44C86.52 72.09 87.81 70.68 89.07 69.3C92.4 65.58 95.67 61.83 98.91 58.02C102.45 53.85 105.93 49.65 109.35 45.42C112.14 41.94 114.9 38.46 117.48 34.86C117.72 34.53 117.93 34.2 118.17 33.87L116.79 33.75C117.6 35.07 118.44 36.39 119.25 37.68C121.2 40.8 123.18 43.95 125.13 47.07C127.5 50.82 129.87 54.57 132.24 58.32C134.22 61.44 136.2 64.56 138.24 67.65C138.87 68.58 139.47 69.54 140.13 70.47C140.31 70.74 140.49 70.98 140.67 71.25C141.09 71.73 141.6 72.12 142.2 72.33C142.68 72.54 143.16 72.69 143.67 72.78C144.06 72.81 144.81 72.51 144.48 72L143.61 70.56C142.83 69.27 142.02 67.98 141.24 66.69C140.1 64.83 138.96 62.97 137.79 61.14C136.41 58.95 135.06 56.73 133.68 54.54C132.21 52.23 130.77 49.92 129.3 47.61C127.92 45.45 126.51 43.32 125.1 41.19C123.9 39.39 122.7 37.62 121.47 35.85C120.63 34.68 119.79 33.48 118.83 32.37C118.32 31.77 117.6 30.87 116.73 31.14C116.4 31.26 116.13 31.44 115.86 31.68C115.53 31.95 115.2 32.22 114.9 32.52C113.88 33.42 112.89 34.38 111.93 35.37C110.55 36.75 109.17 38.13 107.82 39.54C106.17 41.22 104.55 42.93 102.93 44.64C101.13 46.53 99.33 48.42 97.56 50.34C95.7 52.32 93.84 54.3 91.98 56.31C90.18 58.26 88.38 60.18 86.58 62.13C84.93 63.93 83.25 65.73 81.6 67.53C80.19 69.03 78.81 70.56 77.43 72.06C76.41 73.17 75.36 74.31 74.34 75.42C73.77 76.02 73.2 76.65 72.66 77.25L72.45 77.49C71.85 78.15 73.08 78.93 73.59 78.36L74.46 77.4L76.89 74.76C78.12 73.44 79.32 72.09 80.55 70.77C82.05 69.12 83.58 67.47 85.11 65.82C86.85 63.96 88.56 62.07 90.3 60.21C92.13 58.23 93.96 56.28 95.79 54.33C97.62 52.38 99.45 50.43 101.28 48.48C102.99 46.65 104.73 44.85 106.44 43.05C107.94 41.49 109.44 39.93 110.97 38.37C112.17 37.17 113.37 35.97 114.6 34.77C115.38 34.05 116.13 33.27 116.97 32.61C117.03 32.55 117.09 32.52 117.15 32.46C117.27 32.37 117.03 32.55 117.12 32.49L117.21 32.43C117.3 32.4 117.39 32.34 117.48 32.28C117.39 32.37 117.09 32.34 116.94 32.28C117.12 32.34 116.85 32.19 116.91 32.25C116.97 32.31 117.03 32.31 117.06 32.37C117.09 32.4 117.12 32.43 117.15 32.43C117.3 32.55 117.09 32.37 117.12 32.4C117.15 32.43 117.24 32.52 117.33 32.61C117.48 32.79 117.66 32.97 117.81 33.15C118.23 33.63 118.62 34.14 119.01 34.68C120.12 36.18 121.17 37.68 122.22 39.24C123.57 41.22 124.86 43.2 126.15 45.18C127.59 47.4 129.03 49.65 130.47 51.9C131.85 54.09 133.26 56.31 134.67 58.56C135.93 60.6 137.19 62.61 138.45 64.65C139.41 66.24 140.4 67.8 141.36 69.36C141.9 70.26 142.44 71.13 142.98 72.03L143.19 72.39L144 71.61C143.55 71.55 143.1 71.4 142.71 71.19C142.56 71.1 142.38 71.01 142.26 70.89C142.2 70.83 142.11 70.77 142.05 70.71C142.02 70.65 142.17 70.89 142.17 70.83C142.17 70.77 142.11 70.77 142.11 70.77C141.96 70.59 141.81 70.38 141.69 70.2C141.09 69.36 140.55 68.52 139.98 67.68C138.06 64.74 136.17 61.77 134.28 58.8C131.94 55.14 129.66 51.51 127.35 47.85C125.34 44.64 123.3 41.43 121.29 38.19L118.32 33.45L118.29 33.39C117.99 32.91 117.27 32.76 116.91 33.27C114.54 36.69 111.96 39.93 109.38 43.17C106.05 47.34 102.63 51.48 99.18 55.56C95.88 59.46 92.55 63.3 89.16 67.14C86.88 69.69 84.63 72.27 82.14 74.64C81.81 74.94 81.51 75.24 81.18 75.51C81.12 75.54 81.06 75.6 81 75.66C80.91 75.75 81.18 75.57 80.97 75.69C80.94 75.72 80.88 75.75 80.85 75.75L80.79 75.78C80.73 75.81 81 75.72 80.82 75.78C80.73 75.81 80.64 75.84 80.55 75.87C79.32 76.23 78.09 76.53 76.83 76.71C75.66 76.92 74.64 77.07 73.56 77.22L73.02 77.28C72.69 77.31 72.3 77.52 72.36 77.91C72.42 78.3 72.75 78.57 73.11 78.54Z" fill="#4D4FB0"/>
<path d="M51.09 63.66C51.09 63.66 71.01 50.7 80.7 36.3L90.42 21.9C90.42 21.9 116.16 28.2 117.93 29.67C119.7 31.14 145.62 70.8 145.29 71.43C144.96 72.06 143.82 72.24 143.82 72.24C143.82 72.24 117.9 31.77 117.09 31.77C116.28 31.77 99.45 53.13 88.11 65.1C76.77 77.07 71.91 79.02 69.66 79.02C67.41 79.02 50.28 65.91 51.09 63.66Z" fill="#EFCA4E"/>
<path d="M51.42 63.93C53.31 62.7 55.14 61.35 56.97 60.03C61.2 56.91 65.28 53.55 69.15 50.01C73.59 45.93 77.82 41.49 81.21 36.48C84 32.37 86.76 28.23 89.55 24.12C90.06 23.43 90.57 22.71 90.99 21.96L89.88 22.38C91.47 22.77 93.09 23.19 94.68 23.58C98.1 24.45 101.55 25.35 104.97 26.25C108.18 27.12 111.39 27.96 114.54 29.01C115.41 29.25 116.28 29.58 117.12 29.97C117.03 29.91 117.18 30 117.12 29.97L117.18 30L117.3 30.09C117.36 30.12 117.39 30.18 117.42 30.21C117.48 30.27 117.54 30.33 117.6 30.42L117.69 30.54C117.72 30.57 117.75 30.6 117.75 30.63C118.92 32.16 120 33.75 121.11 35.34C122.88 37.92 124.65 40.53 126.36 43.14C128.4 46.2 130.41 49.26 132.42 52.35C134.37 55.32 136.29 58.32 138.21 61.29C139.71 63.63 141.18 65.94 142.62 68.28C143.07 69.03 143.52 69.75 143.94 70.5C144.12 70.89 144.33 71.28 144.54 71.64C144.6 71.73 144.45 71.46 144.57 71.49C144.57 71.49 144.24 71.67 144.21 71.67C144.12 71.7 144.03 71.7 143.94 71.73C144 71.7 144.03 71.7 143.94 71.73L144.42 71.91C143.25 70.08 142.08 68.25 140.91 66.45C138.24 62.31 135.6 58.17 132.9 54.06C129.99 49.56 127.05 45.09 124.11 40.62C122.22 37.77 120.39 34.86 118.32 32.16C118.14 31.89 117.96 31.65 117.72 31.41C117.27 31.05 116.67 31.41 116.31 31.71C115.14 32.7 114.21 33.99 113.22 35.13C108.9 40.2 104.67 45.33 100.35 50.43C95.19 56.49 90 62.55 84.36 68.19C81.78 70.77 79.14 73.29 76.2 75.45C75.3 76.14 74.34 76.77 73.38 77.34L73.32 77.37L73.2 77.43L72.87 77.61C72.69 77.7 72.51 77.79 72.33 77.88C72.15 77.97 72 78.03 71.82 78.09L71.61 78.18H71.64L71.49 78.24C71.22 78.33 70.95 78.42 70.65 78.48C70.47 78.51 70.8 78.45 70.62 78.48L70.44 78.51C70.32 78.54 70.23 78.54 70.11 78.54H69.96C69.78 78.57 70.08 78.54 69.93 78.54C69.9 78.54 69.87 78.54 69.81 78.54C69.66 78.54 69.9 78.57 69.78 78.54C69.51 78.45 69.27 78.36 69 78.24C67.14 77.34 65.28 75.99 63.57 74.76C61.23 73.08 58.98 71.31 56.82 69.42C55.17 68.01 53.4 66.51 52.14 64.74C51.96 64.5 51.81 64.23 51.69 63.96C51.66 63.9 51.63 63.84 51.63 63.78C51.6 63.66 51.63 63.75 51.63 63.72C51.63 63.69 51.63 63.63 51.63 63.6C51.63 63.45 51.6 63.66 51.63 63.57C51.87 62.88 50.43 63.24 50.28 63.72C50.13 64.2 50.43 64.83 50.73 65.25C51.27 66.03 51.9 66.75 52.59 67.41C54.51 69.3 56.52 71.07 58.65 72.72C60.78 74.4 62.97 76.05 65.25 77.52C66.06 78.06 66.9 78.57 67.77 79.02C68.25 79.29 68.76 79.47 69.3 79.5C70.62 79.5 71.94 78.99 73.11 78.39C75.33 77.28 77.34 75.72 79.23 74.16C85.32 69.03 90.69 63 95.94 56.97C100.89 51.3 105.72 45.51 110.55 39.72C112.2 37.74 113.85 35.79 115.53 33.84L115.98 33.33L116.28 33C116.49 32.79 116.67 32.55 116.88 32.34L117.12 32.13C117.15 32.1 117.18 32.07 117.21 32.07C117.33 31.95 117.09 32.16 117.15 32.1C117.21 32.04 117.09 32.13 117.03 32.16C116.82 32.22 116.61 32.25 116.43 32.22C116.31 32.22 116.34 32.13 116.4 32.22C116.46 32.31 116.52 32.37 116.61 32.46L116.7 32.55C116.76 32.64 116.7 32.55 116.7 32.58L116.88 32.82C117.21 33.27 117.54 33.72 117.87 34.17C118.89 35.61 119.88 37.08 120.84 38.55C123.66 42.78 126.45 47.04 129.21 51.3C132.09 55.71 134.97 60.12 137.82 64.53C139.47 67.08 141.12 69.66 142.77 72.21L143.01 72.57C143.13 72.72 143.31 72.78 143.49 72.75C144.27 72.63 146.22 71.97 145.74 70.89C145.5 70.38 145.23 69.9 144.93 69.42C143.73 67.38 142.47 65.4 141.21 63.42C139.38 60.54 137.55 57.66 135.66 54.78C133.62 51.6 131.55 48.45 129.45 45.3C127.56 42.45 125.67 39.6 123.75 36.78C122.4 34.8 121.08 32.82 119.67 30.9C119.31 30.39 118.95 29.91 118.53 29.46C118.17 29.07 117.63 28.89 117.15 28.71C114.45 27.66 111.6 26.94 108.81 26.16C105.21 25.17 101.61 24.21 97.98 23.28C95.67 22.68 93.36 22.11 91.05 21.54L90.69 21.45C90.27 21.36 89.85 21.54 89.58 21.87L88.59 23.37L81.51 33.87C79.77 36.54 77.88 39.09 75.87 41.55C73.89 43.86 71.82 46.05 69.63 48.12C65.7 51.87 61.59 55.35 57.24 58.59C55.08 60.21 52.86 61.77 50.61 63.27C50.58 63.3 50.55 63.33 50.52 63.33C50.31 63.45 50.01 63.78 50.25 64.02C50.49 64.26 51.21 64.08 51.42 63.93Z" fill="#4D4FB0"/>
<path d="M96.06 35.64C96.6 35.79 96.96 36.3 96.93 36.87C96.87 37.62 96.48 38.28 95.88 38.73C95.16 39.27 94.32 39.57 93.42 39.63C92.52 39.75 91.62 39.69 90.75 39.42C89.97 39.09 89.31 38.55 88.83 37.86C88.68 37.68 88.56 37.47 88.56 37.23C88.59 37.02 88.77 36.9 88.98 36.93C89.01 36.93 89.01 36.93 89.04 36.93C89.31 37.05 89.52 37.23 89.64 37.5C89.88 37.86 90.06 38.22 90.21 38.61C90.48 39.33 90.6 40.11 90.27 40.83C89.88 41.61 89.1 42.09 88.23 42.03C87.51 42 86.91 41.49 86.76 40.8L86.46 41.37C87.03 41.28 87.6 41.49 87.96 41.94C88.26 42.36 88.11 42.96 87.84 43.35C87.51 43.86 86.94 44.19 86.34 44.19C85.8 44.19 85.32 43.89 85.05 43.44L85.11 44.25C85.26 44.13 85.47 44.04 85.68 44.07L84.9 43.05C84.9 44.94 83.67 46.59 81.87 47.16C81.54 47.25 81.72 47.85 81.81 48.06C81.93 48.36 82.26 48.54 82.59 48.48C84.63 47.79 86.01 45.84 85.98 43.68C85.98 43.23 85.68 42.69 85.2 42.69C84.81 42.69 84.45 42.84 84.21 43.11C84 43.29 84.15 43.71 84.27 43.92C84.72 44.85 85.62 45.48 86.64 45.6C87.63 45.69 88.56 45.15 88.98 44.28C89.97 42.36 88.23 39.75 86.01 40.08C85.74 40.11 85.68 40.41 85.71 40.65C85.89 41.85 86.7 42.87 87.81 43.35C88.83 43.74 90 43.5 90.78 42.72C91.62 41.91 91.71 40.62 91.47 39.54C91.2 38.37 90.63 37.05 89.73 36.21C89.34 35.85 88.77 35.55 88.23 35.7C87.75 35.88 87.45 36.33 87.51 36.84C87.51 38.04 88.41 39.03 89.25 39.81C90.21 40.65 91.44 41.13 92.7 41.13C93.93 41.16 95.25 41.01 96.3 40.35C97.38 39.72 98.04 38.55 98.01 37.32C97.95 36.03 97.11 34.71 95.82 34.35C95.49 34.26 95.34 34.62 95.4 34.89C95.46 35.19 95.7 35.52 96.06 35.64Z" fill="#100F4A"/>
<path d="M76.86 53.58C76.83 53.73 76.83 53.91 76.92 54.06C77.07 54.27 77.31 54.42 77.55 54.48C77.85 54.54 78.15 54.57 78.45 54.51C78.6 54.48 78.75 54.42 78.9 54.36C79.08 54.27 79.2 54.09 79.23 53.91C79.23 53.85 79.2 53.79 79.14 53.76C78.99 53.64 78.78 53.58 78.6 53.52C78.27 53.46 77.91 53.43 77.58 53.49C77.25 53.52 76.95 53.67 76.71 53.91C76.65 54 76.71 54.09 76.77 54.12C76.83 54.15 76.89 54.18 76.95 54.21C77.04 54.24 77.13 54.27 77.19 54.27C77.37 54.3 77.58 54.3 77.76 54.27C77.88 54.27 78 54.21 78.12 54.12C78.15 54.09 78.21 54.03 78.24 54L78.15 54.06C78.21 54.03 78.27 53.97 78.33 53.94L78.21 54C78.24 53.97 78.3 53.97 78.33 53.97L78.18 54L78.3 53.97L78.12 54H78.18C78.27 54 77.94 54 78.06 54C78.18 54 77.82 53.97 77.94 54H78L77.82 53.97C77.85 53.97 77.88 53.97 77.91 54L77.76 53.94C77.79 53.94 77.82 53.97 77.88 53.97L77.76 53.91L77.82 53.94L77.73 53.79C77.73 53.82 77.73 53.85 77.7 53.88L77.73 53.82C77.7 53.91 77.64 53.97 77.58 54L77.67 53.94C77.64 53.97 77.58 54 77.55 54L77.64 53.97C77.61 53.97 77.58 54 77.55 54L77.7 53.97H77.64L77.82 53.94H77.79C77.73 53.94 77.76 53.94 77.94 53.94C77.85 53.94 78.18 53.97 78.06 53.94L78.24 53.97H78.21L78.36 54.03L78.3 54L78.42 54.06C78.39 54.03 78.36 54.03 78.33 54L78.39 54.06C78.33 54 78.27 53.91 78.27 53.85L78.3 53.94C78.27 53.85 78.27 53.73 78.3 53.64C78.33 53.55 78.12 53.46 78.09 53.43C77.76 53.31 77.37 53.31 77.04 53.4L76.92 53.46C76.92 53.49 76.89 53.52 76.86 53.58Z" fill="#100F4A"/>
<path d="M100.14 81.36C100.14 81.36 84.51 84.66 85.86 76.65C87.21 68.64 99.78 57.21 109.08 55.92C118.38 54.63 123.63 67.77 119.1 70.65C114.57 73.53 100.14 81.36 100.14 81.36Z" fill="#63BAC2"/>
<path d="M99.87 80.7C98.31 81 96.75 81.21 95.19 81.3C93.84 81.39 92.49 81.39 91.14 81.27C89.91 81.18 88.71 80.85 87.6 80.28C87.39 80.16 87.18 80.01 87 79.86C87 79.86 86.94 79.83 86.94 79.8L86.79 79.65C86.76 79.62 86.64 79.47 86.76 79.62C86.73 79.56 86.67 79.5 86.64 79.47C86.61 79.44 86.52 79.29 86.61 79.44C86.58 79.38 86.55 79.32 86.52 79.26C86.46 79.14 86.58 79.41 86.49 79.23C86.46 79.17 86.43 79.08 86.4 79.02C86.37 78.96 86.43 79.05 86.43 79.08C86.43 79.11 86.4 79.02 86.4 78.99C86.4 78.96 86.37 78.84 86.34 78.78C86.31 78.72 86.34 78.75 86.34 78.78L86.31 78.66C86.31 78.57 86.28 78.48 86.28 78.42C86.16 76.95 86.79 75.33 87.42 73.98C89.22 70.17 92.16 66.9 95.28 64.14C98.52 61.29 102.3 58.77 106.41 57.39C108.12 56.82 109.95 56.43 111.78 56.64C113.4 56.88 114.96 57.54 116.22 58.59C117.39 59.55 118.35 60.72 119.07 62.04C119.13 62.13 119.16 62.22 119.22 62.31C119.28 62.4 119.25 62.4 119.28 62.43C119.22 62.31 119.28 62.43 119.28 62.46C119.37 62.64 119.46 62.82 119.52 63.03C119.67 63.39 119.79 63.72 119.88 63.99C120.09 64.65 120.24 65.31 120.3 66C120.39 67.08 120.27 68.31 119.61 69.27C119.31 69.69 118.89 70.02 118.44 70.29C117.87 70.65 117.3 70.98 116.76 71.31C113.64 73.17 110.46 74.94 107.31 76.68C104.94 78 102.57 79.29 100.2 80.58L99.84 80.79C99.45 81 100.17 82.32 100.56 82.11C102.39 81.12 104.22 80.1 106.05 79.08C109.41 77.22 112.74 75.36 116.04 73.44C116.73 73.05 117.42 72.63 118.11 72.21C118.65 71.91 119.19 71.58 119.7 71.22C120.66 70.5 121.11 69.33 121.2 68.16C121.5 64.92 119.91 61.53 117.87 59.13C116.76 57.78 115.35 56.73 113.76 56.01C112.11 55.29 110.28 55.08 108.51 55.38C104.25 56.07 100.29 58.38 96.87 60.96C93.3 63.66 90 66.96 87.66 70.8C86.67 72.36 85.92 74.1 85.5 75.9C85.14 77.34 85.41 78.87 86.25 80.1C87.81 82.35 90.93 82.74 93.45 82.77C95.67 82.8 97.89 82.59 100.08 82.17L100.44 82.11C100.95 81.93 100.29 80.61 99.87 80.7Z" fill="#100F4A"/>
<path d="M123.63 52.92C124.2 49.05 120.6 46.02 116.04 45.36C111.48 44.7 104.94 46.08 103.53 56.31C102.69 62.4 99.69 64.47 99.69 64.47C99.69 64.47 105.81 67.2 111.36 65.73C116.91 64.26 122.79 58.5 123.63 52.92Z" fill="white"/>
<path d="M124.38 53.04C124.89 49.47 122.1 46.68 118.98 45.48C116.61 44.55 114.03 44.34 111.54 44.85C109.14 45.36 106.98 46.74 105.54 48.72C104.61 50.01 103.92 51.45 103.5 52.98C102.96 54.87 102.84 56.82 102.3 58.71C101.91 60.21 101.22 61.59 100.32 62.85C100.05 63.18 99.78 63.51 99.48 63.78C99.66 63.6 99.39 63.84 99.33 63.9C99.3 63.93 99.27 63.96 99.24 63.96C98.76 64.29 99.03 64.92 99.48 65.13C100.5 65.55 101.55 65.91 102.63 66.15C104.85 66.75 107.13 66.99 109.44 66.81C114.12 66.39 118.35 63.45 121.23 59.82C122.76 57.84 123.99 55.56 124.38 53.04C124.5 52.2 123.03 51.96 122.91 52.83C122.61 54.84 121.65 56.73 120.45 58.38C119.16 60.15 117.54 61.71 115.74 62.94C114 64.17 112.02 65.01 109.89 65.37C107.7 65.64 105.48 65.52 103.32 64.95C102.18 64.71 101.04 64.35 99.96 63.87L100.2 65.04C101.49 64.14 102.39 62.55 103.02 61.14C103.77 59.43 104.1 57.63 104.4 55.8C104.64 54.15 105.15 52.53 105.87 51.03C106.41 49.92 107.16 48.93 108.09 48.09C108.9 47.37 109.83 46.83 110.82 46.47C111.06 46.38 111.27 46.32 111.51 46.26L111.9 46.17C111.75 46.2 111.96 46.17 111.96 46.17L112.17 46.14C112.65 46.05 113.16 45.99 113.64 45.96C113.88 45.93 114.12 45.93 114.39 45.93C114.42 45.93 114.63 45.93 114.45 45.93H114.63L114.99 45.96C115.56 45.99 116.13 46.08 116.7 46.2C119.91 46.83 123.45 49.17 122.94 52.86C122.79 53.67 124.26 53.91 124.38 53.04Z" fill="#100F4A"/>
<path d="M122.16 64.62C125.58 62.01 123.03 52.08 123.03 52.08C121.44 51.51 118.95 49.53 118.95 49.53C119.01 54.66 112.89 55.14 112.89 55.14C112.11 52.23 108.81 52.71 108.57 55.38C108.33 58.05 110.82 58.74 110.82 58.74C110.82 58.74 108.45 65.07 108.54 66.15C108.54 66.15 112.35 69.84 115.68 66.45C115.65 66.45 119.82 66.39 122.16 64.62Z" fill="white"/>
<path d="M122.73 65.07C123.75 64.29 124.2 62.97 124.44 61.74C124.68 60.3 124.71 58.86 124.56 57.42C124.44 56.13 124.26 54.84 124.02 53.55C123.96 53.19 123.87 52.8 123.78 52.44C123.72 52.02 123.45 51.69 123.06 51.54C122.97 51.51 123 51.51 122.85 51.45C122.7 51.39 122.64 51.36 122.52 51.3C122.31 51.18 122.1 51.06 121.89 50.94C121.47 50.7 121.08 50.43 120.69 50.16C120.24 49.83 119.76 49.5 119.34 49.14C119.1 48.96 118.23 48.72 118.23 49.26C118.26 50.79 117.54 52.26 116.28 53.16C115.77 53.52 115.23 53.79 114.66 54C114.39 54.09 114.12 54.18 113.85 54.27L113.79 54.3L113.64 54.33L113.31 54.39C113.07 54.42 112.83 54.48 112.59 54.51L113.58 55.14C113.31 54.03 112.56 53.13 111.51 52.71C110.67 52.38 109.71 52.5 108.96 53.04C108.15 53.61 107.82 54.66 107.85 55.62C107.88 56.67 108.36 57.63 109.17 58.32C109.65 58.74 110.19 59.04 110.79 59.22L110.16 58.35C109.47 60.21 108.81 62.07 108.24 63.99C108.09 64.47 107.97 64.98 107.88 65.49C107.85 65.61 107.85 65.73 107.85 65.88C107.85 66.15 108 66.39 108.21 66.51C109.02 67.23 109.92 67.74 110.94 68.1C112.8 68.76 114.9 68.28 116.28 66.87L116.01 66.99C116.85 66.96 117.66 66.87 118.47 66.72C119.94 66.45 121.47 66 122.73 65.07C123.3 64.62 122.1 63.78 121.56 64.17C119.91 65.4 117.63 65.76 115.62 65.88C115.35 65.85 115.05 65.97 114.87 66.18C114.39 66.66 113.76 67.02 113.1 67.2C112.62 67.32 112.11 67.32 111.63 67.23C111.18 67.14 110.76 66.99 110.37 66.78C110.25 66.72 110.16 66.66 110.04 66.6C109.98 66.57 109.71 66.42 109.86 66.48C109.68 66.36 109.5 66.24 109.35 66.12C109.23 66.03 109.14 65.97 109.05 65.88C108.93 65.79 108.96 65.79 109.05 65.88L109.23 66.3C109.23 65.91 109.29 65.52 109.41 65.16C109.56 64.56 109.74 63.99 109.92 63.42C110.31 62.19 110.73 60.99 111.18 59.79L111.48 59.01C111.63 58.59 111.21 58.23 110.85 58.14L110.79 58.11L110.73 58.08C110.61 58.05 110.88 58.14 110.79 58.11C110.7 58.08 110.61 58.02 110.52 57.99C110.43 57.96 110.43 57.93 110.37 57.9C110.22 57.81 110.46 57.96 110.31 57.87C110.1 57.72 109.89 57.57 109.74 57.36C109.56 57.12 109.41 56.82 109.32 56.52C109.11 55.77 109.26 54.96 109.68 54.3C109.86 54.09 110.07 53.91 110.34 53.79C110.55 53.7 110.79 53.64 111.03 53.67C111.24 53.67 111.45 53.79 111.6 53.94C111.87 54.24 112.05 54.6 112.17 54.99C112.32 55.41 112.74 55.65 113.16 55.62C115.32 55.44 117.69 54.42 118.86 52.56C119.37 51.69 119.64 50.7 119.61 49.68L118.5 49.8C119.85 50.88 121.32 51.93 122.94 52.53L122.31 51.93C122.58 53.07 122.82 54.21 122.97 55.35C123.27 57.42 123.42 59.58 122.97 61.62C122.76 62.58 122.34 63.51 121.59 64.08C120.99 64.62 122.22 65.46 122.73 65.07Z" fill="#100F4A"/>
<path d="M113.64 58.5C113.19 59.55 112.98 60.96 114.03 61.74C114.45 62.01 114.93 62.13 115.44 62.04C115.56 62.01 115.68 61.92 115.71 61.77C115.74 61.59 115.71 61.44 115.65 61.29C115.53 60.99 115.23 60.66 114.87 60.69C114.75 60.72 114.66 60.72 114.54 60.72H114.69C114.63 60.72 114.54 60.72 114.48 60.72L114.39 60.69C114.36 60.69 114.24 60.66 114.36 60.69L114.3 60.66C114.24 60.63 114.48 60.78 114.36 60.69C114.3 60.66 114.24 60.57 114.42 60.75L114.39 60.72C114.3 60.63 114.51 60.9 114.45 60.81L114.42 60.75C114.39 60.69 114.48 60.9 114.48 60.9C114.48 60.9 114.48 60.87 114.45 60.87C114.45 60.84 114.45 60.84 114.42 60.81C114.39 60.78 114.48 61.02 114.45 60.9C114.45 60.84 114.42 60.81 114.42 60.75C114.42 60.87 114.45 60.96 114.42 60.75C114.42 60.69 114.42 60.63 114.42 60.57C114.42 60.54 114.42 60.54 114.42 60.51C114.42 60.39 114.42 60.48 114.42 60.51C114.42 60.54 114.42 60.63 114.42 60.51C114.42 60.48 114.42 60.45 114.42 60.42C114.45 60.24 114.51 60.06 114.57 59.88C114.6 59.76 114.66 59.64 114.69 59.52L114.63 59.64V59.61C114.69 59.46 114.72 59.31 114.69 59.16C114.63 58.98 114.54 58.8 114.42 58.65C114.3 58.53 114.15 58.44 114 58.38C113.88 58.38 113.7 58.38 113.67 58.5H113.64Z" fill="#100F4A"/>
<path d="M120.51 56.91C121.32 57.78 122.28 58.53 123.3 59.13C126.75 61.23 126.69 62.67 125.25 62.94C123.81 63.21 118.98 60.66 118.98 60.66" fill="white"/>
<path d="M119.97 57.27C120.81 58.2 121.8 59.01 122.91 59.64C123.66 60.06 124.35 60.57 124.98 61.17L125.13 61.32C125.04 61.23 125.16 61.35 125.19 61.41C125.28 61.5 125.34 61.62 125.4 61.71C125.46 61.8 125.34 61.56 125.4 61.74L125.46 61.86C125.46 61.89 125.52 62.04 125.49 61.92C125.46 61.8 125.49 61.98 125.49 62.01C125.49 62.04 125.49 61.86 125.49 61.98C125.49 62.01 125.46 62.13 125.49 62.01C125.52 61.89 125.49 62.01 125.46 62.04C125.4 62.1 125.58 61.92 125.46 62.01C125.43 62.04 125.43 62.07 125.4 62.1C125.34 62.19 125.49 62.04 125.43 62.07C125.37 62.1 125.19 62.22 125.28 62.16C125.37 62.1 125.16 62.19 125.1 62.22L124.98 62.25C124.86 62.28 125.13 62.25 124.98 62.25H124.74C124.62 62.22 124.65 62.25 124.74 62.25L124.56 62.22C124.05 62.13 123.54 61.98 123.03 61.77L122.85 61.71L122.7 61.65L122.25 61.47C121.98 61.35 121.71 61.23 121.41 61.11C120.66 60.78 119.91 60.42 119.19 60.03C118.92 59.85 118.53 59.94 118.35 60.24C118.32 60.27 118.32 60.3 118.29 60.33C118.17 60.72 118.35 61.11 118.71 61.29C119.37 61.65 120.06 61.98 120.75 62.28C121.89 62.79 123.09 63.36 124.32 63.6C125.19 63.78 126.42 63.63 126.75 62.64C127.17 61.32 125.79 60.12 124.86 59.43C123.93 58.74 122.91 58.2 121.98 57.45C121.71 57.21 121.41 56.97 121.17 56.73C121.08 56.67 121.02 56.58 120.93 56.49C120.78 56.34 121.02 56.58 120.96 56.52C120.72 56.25 120.33 56.04 120 56.28C119.76 56.55 119.73 56.97 119.97 57.27Z" fill="#100F4A"/>
<path d="M118.44 55.56C118.74 55.65 118.92 55.95 118.83 56.25C118.83 56.28 118.8 56.31 118.8 56.34C118.56 56.91 117.87 56.61 117.93 56.07C117.93 55.8 118.11 55.59 118.38 55.59C118.38 55.56 118.41 55.56 118.44 55.56Z" fill="#100F4A"/>
<path d="M122.52 55.86C122.82 55.95 123 56.25 122.91 56.55C122.91 56.58 122.88 56.61 122.88 56.64C122.64 57.21 121.95 56.91 122.01 56.37C122.01 56.1 122.19 55.89 122.46 55.89C122.46 55.86 122.49 55.86 122.52 55.86Z" fill="#100F4A"/>
<path d="M107.19 51.81C108.72 51.72 110.25 51.99 111.75 51.72C112.44 51.6 113.1 51.36 113.73 51C114.33 50.61 114.87 50.13 115.32 49.59C115.5 49.38 115.74 49.02 115.44 48.81C115.14 48.6 114.69 48.81 114.48 49.02C114.12 49.44 113.7 49.83 113.25 50.16C112.77 50.43 112.23 50.61 111.69 50.67C110.37 50.85 109.02 50.61 107.7 50.7C107.31 50.7 106.98 50.94 106.8 51.27C106.68 51.45 106.74 51.69 106.92 51.81C107.01 51.81 107.1 51.84 107.19 51.81Z" fill="#100F4A"/>
<path d="M106.26 59.19L103.98 64.23C103.89 64.44 104.52 64.26 104.55 64.23C104.79 64.14 105.24 63.99 105.33 63.75L107.61 58.71C107.7 58.5 107.07 58.68 107.04 58.71C106.8 58.8 106.38 58.95 106.26 59.19Z" fill="#100F4A"/>
<path d="M107.04 65.52C107.04 65.52 106.86 74.97 107.61 76.29C108.36 77.61 115.8 81.12 117.78 81.66C119.76 82.2 128.79 77.73 128.79 77.73L129.42 63.87L118.77 69.81L107.04 65.52Z" fill="#CA3150"/>
<path d="M106.29 65.49C106.26 67.53 106.26 69.57 106.32 71.61C106.32 72.87 106.44 74.13 106.62 75.39C106.65 75.72 106.74 76.08 106.92 76.38C107.19 76.74 107.55 77.04 107.94 77.28C109.14 78.09 110.43 78.81 111.75 79.44C113.13 80.13 114.51 80.76 115.95 81.33C116.43 81.54 116.91 81.69 117.42 81.81C117.99 81.93 118.56 81.93 119.13 81.81C120.42 81.57 121.68 81.18 122.88 80.67C125.07 79.83 127.23 78.9 129.33 77.85L129.45 77.79C129.51 77.76 129.54 77.73 129.57 77.67L129.78 72.99L130.11 65.52L130.2 63.81C130.2 63.45 128.97 63.57 128.82 63.66L119.49 68.88L118.17 69.63L119.34 69.6L109.08 65.85L107.64 65.31C107.31 65.19 106.92 65.19 106.59 65.28C106.32 65.37 106.32 65.52 106.59 65.61L116.91 69.39C117.36 69.57 117.84 69.75 118.29 69.9C119.07 70.14 119.52 69.87 120.15 69.51L125.64 66.45L130.14 63.93L128.76 63.78L128.55 68.46L128.19 75.93L128.1 77.64L128.22 77.52C126.51 78.36 124.77 79.14 123 79.89C121.77 80.4 120.54 80.85 119.25 81.21C119.04 81.27 118.8 81.33 118.56 81.36C118.5 81.36 118.17 81.42 118.38 81.39H118.23C118.05 81.42 118.32 81.39 118.23 81.39C118.14 81.39 118.2 81.39 118.29 81.39C118.17 81.39 118.26 81.39 118.32 81.39C118.2 81.36 118.35 81.39 118.32 81.39L118.17 81.36C117.96 81.3 117.72 81.21 117.51 81.12C116.22 80.64 114.96 80.07 113.7 79.44C112.35 78.81 111.06 78.09 109.8 77.31C109.14 76.89 108.42 76.47 108.24 75.66C108.03 74.55 107.91 73.41 107.91 72.27C107.85 70.89 107.82 69.51 107.82 68.1C107.82 67.23 107.85 66.36 107.85 65.52C107.85 65.46 107.85 65.43 107.85 65.37C107.79 65.19 106.29 65.16 106.29 65.49Z" fill="#100F4A"/>
<path d="M107.7 65.73C107.7 65.73 108.99 64.98 109.32 65.07C109.65 65.16 118.92 69.12 118.92 69.12L127.71 63.9L128.88 64.2L118.77 70.32L107.7 65.73Z" fill="#900D0F"/>
<path d="M108.3 66.03C108.66 65.82 109.05 65.61 109.44 65.46C109.8 65.34 109.5 65.58 109.08 65.37C109.08 65.37 109.11 65.37 109.14 65.4C109.17 65.4 109.2 65.43 109.23 65.43C109.08 65.37 109.41 65.49 109.23 65.43C109.89 65.7 110.55 65.97 111.18 66.24C113.07 67.05 114.93 67.83 116.82 68.64C117.36 68.88 117.87 69.09 118.41 69.3C118.77 69.51 119.19 69.54 119.55 69.42C119.67 69.36 119.76 69.3 119.88 69.24L124.35 66.57L128.34 64.2H127.47L128.64 64.5L128.28 63.9L119.4 69.27L118.14 70.02L119.16 70.08L109.5 66.09L108.12 65.52C107.82 65.4 107.37 65.28 107.1 65.46C106.83 65.64 107.07 65.88 107.28 65.97L117.06 70.02C117.48 70.2 117.9 70.38 118.35 70.56C119.1 70.86 119.46 70.59 120.06 70.23L125.25 67.08L129.51 64.53C129.87 64.32 129.39 63.99 129.18 63.96C128.52 63.78 127.62 63.39 126.99 63.75L125.22 64.8L119.7 68.01L118.32 68.85L119.34 68.91C116.22 67.59 113.13 66.21 109.98 64.95C109.56 64.74 109.08 64.68 108.6 64.77C108.06 64.92 107.55 65.16 107.07 65.46C106.77 65.64 107.04 65.88 107.25 65.97C107.58 66.15 107.97 66.15 108.3 66.03Z" fill="#100F4A"/>
<path d="M106.65 70.14C106.65 70.14 109.59 68.88 110.49 69.78C111.39 70.68 110.4 72.36 110.4 72.36C110.4 72.36 111.93 73.71 110.76 74.79C110.76 74.79 111.66 75.6 110.4 77.1C109.14 78.63 106.08 80.61 100.14 81.39C100.14 81.39 97.14 76.44 99.96 72.12C99.96 72.12 101.4 67.17 106.83 67.68" fill="white"/>
<path d="M107.37 70.17C107.67 70.05 107.97 69.93 108.27 69.84C108.57 69.75 108.84 69.69 109.14 69.63C109.26 69.6 109.38 69.6 109.5 69.57C109.62 69.54 109.5 69.57 109.38 69.57C109.17 69.57 109.26 69.54 109.35 69.57C109.95 69.84 110.16 70.41 110.07 71.07C110.01 71.52 109.86 71.97 109.62 72.36L109.65 72.39C110.34 72.99 110.76 74.01 110.01 74.76C109.98 74.79 109.98 74.79 110.01 74.82C110.4 75.18 110.31 75.87 110.13 76.32C109.8 76.98 109.29 77.58 108.69 78C107.28 79.08 105.69 79.89 103.98 80.37C102.54 80.82 101.07 81.12 99.6 81.33L100.89 81.42C99.6 79.26 99.09 76.35 99.84 73.95C99.99 73.47 100.17 73.02 100.41 72.6C100.5 72.45 100.62 72.27 100.68 72.09C100.77 71.88 100.83 71.67 100.92 71.49C101.31 70.65 101.85 69.87 102.54 69.24C103.56 68.31 105 67.65 106.41 67.8C106.71 67.83 107.16 67.92 107.43 67.77C107.7 67.62 107.28 67.62 107.16 67.62C105.45 67.47 103.59 67.56 102.06 68.46C101.1 69.03 100.29 69.87 99.75 70.83C99.45 71.37 99.27 71.94 98.97 72.45C98.01 74.19 97.74 76.26 98.19 78.18C98.4 79.32 98.79 80.4 99.36 81.39C99.42 81.51 99.72 81.48 99.81 81.51C100.08 81.54 100.35 81.54 100.62 81.51C103.02 81.18 105.42 80.67 107.64 79.65C108.96 79.11 110.13 78.27 111.06 77.22C111.54 76.65 112.08 75.72 111.57 74.97C111.57 74.94 111.45 74.85 111.45 74.82C111.45 74.79 111.75 74.49 111.78 74.4C111.93 73.98 111.9 73.53 111.66 73.17C111.51 72.9 111.27 72.72 111.12 72.45C111.06 72.33 111.09 72.48 111.12 72.36C111.15 72.24 111.24 72.12 111.27 72.03C111.57 71.31 111.78 70.2 111 69.69C110.58 69.42 109.95 69.39 109.47 69.39C108.87 69.39 108.3 69.42 107.73 69.54C107.1 69.69 106.47 69.87 105.87 70.11C105.75 70.17 106.35 70.26 106.38 70.26C106.77 70.29 107.07 70.29 107.37 70.17Z" fill="#100F4A"/>
<path d="M103.11 71.58C104.4 71.37 105.69 71.1 106.95 70.8C107.67 70.62 106.98 69.3 106.35 69.45C105.09 69.78 103.8 70.02 102.51 70.23C102.15 70.29 102.18 70.8 102.3 71.04C102.42 71.37 102.75 71.61 103.11 71.58Z" fill="#100F4A"/>
<path d="M109.8 71.91C109.74 72 109.65 72.09 109.56 72.18C109.47 72.27 109.35 72.36 109.26 72.45L109.08 72.6C109.14 72.54 109.05 72.63 109.05 72.63L108.93 72.72C108.09 73.35 107.16 73.77 106.14 74.04C106.02 74.07 106.02 74.22 106.02 74.31C106.05 74.46 106.14 74.61 106.29 74.73C106.5 75 106.86 75.12 107.19 75.06C108.21 74.82 109.17 74.37 110.01 73.74C110.4 73.47 110.73 73.17 111.03 72.81C111.24 72.57 110.82 72.18 110.67 72.06C110.52 71.94 110.01 71.67 109.8 71.91Z" fill="#100F4A"/>
<path d="M110.16 74.55C110.07 74.64 109.95 74.73 109.86 74.82C110.04 74.64 109.86 74.82 109.8 74.85L109.62 75C109.47 75.12 109.32 75.24 109.17 75.36C109.02 75.48 108.84 75.6 108.66 75.72C108.57 75.78 108.48 75.84 108.39 75.9C108.36 75.93 108.3 75.96 108.24 75.99C108.12 76.05 108.39 75.93 108.21 75.99C108.03 76.08 107.82 76.17 107.64 76.26C107.58 76.29 107.55 76.29 107.49 76.32C107.55 76.29 107.67 76.23 107.49 76.32C107.43 76.35 107.28 76.38 107.19 76.38C106.89 76.44 106.5 76.71 106.56 77.04C106.62 77.37 107.13 77.4 107.4 77.37C108.36 77.19 109.26 76.65 110.04 76.08C110.49 75.75 110.94 75.39 111.36 75C111.54 74.85 111.54 74.58 111.39 74.43C111.33 74.37 111.27 74.34 111.21 74.31C110.85 74.19 110.43 74.28 110.16 74.55Z" fill="#100F4A"/>
<path d="M118.35 70.2C118.38 73.29 118.38 76.38 118.32 79.47C118.35 79.83 118.53 80.13 118.8 80.37C118.92 80.49 119.25 80.7 119.28 80.37C119.34 77.28 119.37 74.19 119.31 71.1C119.25 70.74 119.1 70.44 118.83 70.2C118.71 70.08 118.35 69.84 118.35 70.2Z" fill="#100F4A"/>
<path d="M129.72 69.54C129.72 69.54 126.51 69.42 126 70.59C125.49 71.76 127.02 72.99 127.02 72.99C127.02 72.99 126.09 74.79 127.56 75.36C127.56 75.36 127.02 76.44 128.73 77.4C129.27 77.67 129.87 77.88 130.5 78C133.53 78.66 136.53 76.74 137.19 73.71C137.25 73.41 137.28 73.14 137.31 72.84C137.31 72.81 137.31 72.78 137.31 72.72C137.4 69.72 135.09 67.23 132.09 67.11C131.43 67.08 130.8 67.17 130.17 67.38L130.02 67.41" fill="white"/>
<path d="M129.72 69.45C128.46 69.42 124.44 69.39 125.25 71.61C125.46 72.12 125.76 72.54 126.18 72.9C126.21 72.93 126.27 72.96 126.3 72.99C126.33 73.02 126.27 72.96 126.27 73.02C126.24 73.17 126.15 73.32 126.09 73.47C125.91 73.92 125.97 74.43 126.18 74.85C126.24 74.97 126.33 75.06 126.45 75.12C126.51 75.18 126.78 75.27 126.81 75.33C126.78 75.42 126.78 75.48 126.75 75.57C126.54 76.98 128.52 77.7 129.57 77.97C131.16 78.39 132.84 78.33 134.4 77.79C137.19 76.74 138.75 73.56 137.76 70.71C136.56 67.32 132.48 66.3 129.33 67.38C129.21 67.41 129.81 67.53 129.84 67.53C130.14 67.56 130.47 67.56 130.77 67.47C131.37 67.23 132.06 67.17 132.69 67.35C134.94 68.01 136.53 70.05 136.56 72.39C136.59 73.98 135.93 75.51 134.76 76.59C134.19 77.1 133.53 77.52 132.81 77.76C132.18 78 131.49 78.06 130.86 77.88C129.96 77.64 128.82 77.25 128.37 76.35C128.22 76.05 128.19 75.69 128.31 75.36L128.28 75.33C127.32 74.91 127.35 73.8 127.77 72.99L127.74 72.96C126.93 72.3 126.03 70.8 127.26 70.11C127.77 69.87 128.34 69.72 128.91 69.69L129.12 69.66H129.27C129.33 69.66 129.36 69.66 129.42 69.66H129.57C129.72 69.66 129.39 69.66 129.54 69.66H129.72C129.81 69.66 130.47 69.69 130.47 69.57C130.47 69.45 129.75 69.45 129.72 69.45Z" fill="#100F4A"/>
<path d="M133.29 68.22C132 68.49 130.71 68.7 129.42 68.88C129.06 68.91 129.09 69.45 129.21 69.69C129.33 70.02 129.69 70.26 130.05 70.23C131.34 70.08 132.63 69.84 133.92 69.57C134.28 69.51 134.25 69.03 134.13 68.76C134.01 68.49 133.65 68.16 133.29 68.22Z" fill="#100F4A"/>
<path d="M126.93 73.41C127.38 73.65 127.86 73.83 128.34 73.95C129.42 74.25 130.59 74.34 131.7 74.22C132.03 74.19 131.94 73.83 131.79 73.65C131.61 73.41 131.22 73.11 130.89 73.14C130.35 73.2 129.81 73.23 129.27 73.17C129.03 73.14 128.82 73.11 128.58 73.08L128.25 73.02L128.13 72.99L128.04 72.96H128.07C127.77 72.87 127.5 72.78 127.2 72.66C127.08 72.6 127.08 72.6 127.2 72.66L127.11 72.63L127.02 72.6C126.84 72.51 126.39 72.33 126.33 72.66C126.27 72.99 126.72 73.26 126.93 73.41Z" fill="#100F4A"/>
<path d="M127.11 75.84C127.59 76.02 128.1 76.2 128.61 76.32C129.6 76.62 130.62 76.71 131.64 76.56C131.91 76.5 132.33 76.23 132.24 75.9C132.15 75.57 131.67 75.54 131.4 75.57C131.25 75.6 131.34 75.54 131.4 75.57C131.34 75.57 131.31 75.57 131.25 75.6C131.13 75.6 131.04 75.6 130.92 75.6H130.83C130.95 75.6 130.77 75.6 130.74 75.6C130.62 75.6 130.53 75.57 130.41 75.57C130.2 75.54 129.96 75.51 129.75 75.45L129.45 75.39C129.3 75.36 129.57 75.42 129.42 75.39L129.27 75.36C128.82 75.24 128.37 75.09 127.92 74.91C127.56 74.79 127.17 74.88 126.9 75.15C126.72 75.3 126.72 75.57 126.87 75.72C126.96 75.78 127.02 75.81 127.11 75.84Z" fill="#100F4A"/>
<path d="M124.47 74.91C124.14 74.76 123.81 74.55 123.51 74.34L123.57 74.37C123.36 74.22 123.15 74.04 122.97 73.86C122.88 73.77 122.79 73.68 122.7 73.59C122.61 73.53 122.55 73.41 122.52 73.32V73.38C122.52 73.35 122.52 73.32 122.52 73.29L122.4 73.47V73.44L121.98 73.77L122.01 73.74L121.53 73.95H121.56H121.35C121.53 74.01 121.68 74.1 121.8 74.22L122.25 74.49C122.4 74.58 122.55 74.73 122.76 74.73C123 74.7 123.21 74.61 123.39 74.49C123.6 74.37 123.78 74.22 123.9 74.01C124.02 73.74 123.93 73.38 123.9 73.11C123.87 72.96 123.87 72.81 123.9 72.69C123.9 72.57 123.96 72.45 124.02 72.33L122.76 72.96L123.33 75.54C123.36 75.63 123.57 75.57 123.6 75.57C123.78 75.51 123.93 75.45 124.08 75.36C124.26 75.24 124.65 75.03 124.59 74.76L124.05 72.21C124.02 72.15 123.87 72.15 123.84 72.18C123.72 72.21 123.57 72.24 123.45 72.3C123.18 72.42 122.97 72.6 122.79 72.84C122.64 73.11 122.55 73.41 122.58 73.71C122.58 73.86 122.61 74.01 122.61 74.16C122.61 74.22 122.61 74.31 122.61 74.37C122.61 74.43 122.61 74.46 122.61 74.49C122.61 74.52 122.58 74.58 122.61 74.52L122.79 74.31L122.76 74.34L123.39 73.95H123.36L123.63 73.89C123.69 73.89 123.57 73.83 123.54 73.8L123.42 73.71L123.12 73.5C122.94 73.38 122.76 73.23 122.55 73.14C122.37 73.08 122.19 73.08 122.04 73.17C121.74 73.29 121.47 73.47 121.26 73.71C121.11 73.86 121.08 74.07 121.23 74.25L121.26 74.28C121.8 74.88 122.46 75.39 123.18 75.72C123.27 75.75 123.48 75.69 123.54 75.66C123.72 75.6 123.9 75.51 124.05 75.39C124.26 75.39 124.68 75.03 124.47 74.91Z" fill="#100F4A"/>
<path d="M144.33 35.37L145.5 29.76L134.64 25.41L144.33 35.37Z" fill="white"/>
<path d="M144.78 35.97L145.95 30.36C145.98 30.18 145.71 29.82 145.62 29.7C145.5 29.52 145.35 29.22 145.14 29.16L135.6 25.32L134.25 24.78C134.1 24.72 134.31 25.14 134.31 25.14C134.46 25.41 134.64 25.65 134.85 25.89L138.15 29.28L143.37 34.65L144.57 35.88C144.75 36.06 144.81 36 144.72 35.79C144.57 35.46 144.36 35.16 144.12 34.92L140.82 31.53L135.6 26.16L134.4 24.9L135 26.01L144.51 29.82L145.86 30.36L145.05 29.16L143.91 34.8C143.88 35.04 144.21 35.46 144.36 35.61C144.39 35.67 144.75 36.12 144.78 35.97Z" fill="#4D4FB0"/>
<path d="M142.59 31.95L144.33 35.37L141.48 32.91L142.59 31.95Z" fill="white"/>
<path d="M141.93 31.89L143.46 34.89L143.67 35.31L144.9 35.37L142.38 33.21L142.02 32.91L142.08 33.27L143.19 32.34C143.52 32.04 142.23 31.38 141.9 31.68L140.79 32.61C140.67 32.73 140.76 32.88 140.85 32.97L143.37 35.13L143.73 35.43C144 35.64 144.3 35.76 144.63 35.79C144.84 35.79 145.08 35.73 144.96 35.49L143.43 32.49L143.22 32.07C143.13 31.95 143.01 31.83 142.86 31.77C142.68 31.68 142.5 31.62 142.32 31.59C142.11 31.56 141.78 31.59 141.93 31.89Z" fill="#4D4FB0"/>
<path d="M145.5 29.76L148.08 27.42L132.63 24.18L137.43 36.3L142.59 31.95L134.64 25.41L145.5 29.76Z" fill="white"/>
<path d="M146.1 30.18L148.65 27.84C148.98 27.54 148.05 27.06 147.84 27.03L142.62 25.92L134.31 24.18L132.39 23.79C132.18 23.76 131.82 23.73 131.97 24.03L133.59 28.14L136.17 34.65L136.77 36.15C136.92 36.36 137.13 36.54 137.37 36.63C137.52 36.69 137.88 36.87 138.03 36.72L142.53 32.94L143.19 32.4C143.37 32.25 143.16 32.04 143.04 31.95L136.08 26.22L135.06 25.38L134.64 25.77L144.15 29.58L145.5 30.12C145.65 30.18 146.13 30.33 146.13 30.03C146.13 29.73 145.59 29.49 145.41 29.4L135.9 25.59L134.55 25.05C134.4 24.99 134.07 24.87 133.95 25.02C133.83 25.17 134.01 25.35 134.13 25.44L141.09 31.17L142.11 32.01L141.96 31.56L137.46 35.34L136.8 35.88L138.03 36.45L136.41 32.34L133.83 25.83L133.23 24.33L132.81 24.57L138.06 25.68L146.37 27.42L148.29 27.81L147.48 27L144.9 29.34C144.54 29.67 145.8 30.45 146.1 30.18Z" fill="#4D4FB0"/>
<path d="M146.7 37.77C147.66 38.37 148.53 39.06 149.28 39.87C151.14 41.73 152.52 43.98 153.36 46.47C154.59 50.13 154.47 54.15 153.45 57.84C153.03 59.46 152.31 60.99 151.32 62.37C150.9 62.91 150.45 63.45 149.94 63.9C149.73 64.08 149.46 64.32 149.19 64.5C149.07 64.59 148.95 64.68 148.83 64.74C148.8 64.77 148.62 64.86 148.74 64.8L148.53 64.95C148.26 65.1 147.99 65.25 147.72 65.37C147.69 65.4 147.48 65.49 147.66 65.4L147.48 65.46C147.33 65.52 147.21 65.58 147.06 65.64C146.91 65.7 146.79 65.73 146.67 65.79C146.61 65.82 146.46 65.85 146.61 65.82C146.55 65.85 146.46 65.85 146.4 65.88C146.13 65.94 145.86 66 145.62 66.06L145.44 66.09C145.38 66.09 145.29 66.12 145.41 66.09C145.29 66.12 145.14 66.12 145.02 66.15C144.78 66.18 144.54 66.18 144.27 66.18H144.09C143.94 66.18 144.15 66.18 144.03 66.18H143.7C143.49 66.15 143.28 66.15 143.07 66.12L142.77 66.06C142.74 66.06 142.59 66.03 142.74 66.06L142.59 66.03C142.41 66 142.26 65.94 142.11 65.88C141.96 65.82 141.81 65.76 141.66 65.67L141.57 65.61C141.51 65.58 141.45 65.52 141.42 65.49C141.33 65.43 141.24 65.34 141.18 65.25C141.24 65.34 141.18 65.22 141.15 65.19C141.12 65.16 141.12 65.1 141.09 65.04C141.06 64.98 141.06 64.86 141.06 64.98C141.06 64.92 141.06 64.89 141.06 64.83C141.06 64.8 141.09 64.65 141.06 64.74C141.03 64.83 141.09 64.68 141.12 64.62C141.15 64.56 141.15 64.56 141.15 64.56C141.15 64.56 141.06 64.65 141.15 64.59C141.18 64.56 141.33 64.41 141.24 64.47C141.15 64.53 141.42 64.38 141.18 64.53C141.21 64.5 141.3 64.47 141.15 64.53C140.94 64.62 141.3 64.5 141.06 64.56C140.91 64.59 141 64.59 141.03 64.56C141 64.56 140.82 64.59 140.94 64.59C140.76 64.56 141.06 64.59 140.94 64.59C141.03 64.59 140.82 64.53 140.97 64.59L141.12 64.65C141.24 64.71 141.12 64.62 141.18 64.68C141.24 64.74 141.3 64.77 141.36 64.8C141.48 64.89 141.6 64.98 141.69 65.1C141.93 65.34 142.14 65.61 142.32 65.88C143.46 67.56 144.12 69.57 144.54 71.52C145.02 73.74 145.14 76.11 144.51 78.3C144.36 78.81 144.15 79.29 143.91 79.74C143.67 80.19 143.37 80.61 143.01 81C142.92 81.09 142.83 81.18 142.74 81.27C142.71 81.3 142.59 81.42 142.68 81.33C142.62 81.39 142.56 81.42 142.5 81.48C142.38 81.57 142.29 81.66 142.17 81.72C142.11 81.75 142.05 81.81 141.99 81.84C141.84 81.93 142.02 81.81 141.9 81.9C141.78 81.99 141.66 82.05 141.57 82.11L141.39 82.2L141.27 82.26C141.18 82.32 141.39 82.2 141.27 82.26C140.97 82.38 140.67 82.5 140.37 82.59L140.25 82.62L140.01 82.68C139.86 82.71 139.68 82.74 139.5 82.8C139.32 82.86 139.26 82.83 139.11 82.86C138.93 82.89 138.72 82.92 138.51 82.92C138.21 82.95 137.73 83.1 137.61 83.4C137.49 83.7 137.79 83.82 138.06 83.79C140.85 83.55 143.58 82.38 145.05 79.89C146.28 77.79 146.43 75.21 146.19 72.87C145.98 70.59 145.35 68.34 144.3 66.3C143.67 65.13 142.65 63.36 141.06 63.75C140.4 63.9 139.59 64.53 139.59 65.28C139.59 65.91 140.16 66.3 140.64 66.57C142.38 67.44 144.69 67.23 146.49 66.69C149.34 65.85 151.77 63.93 153.27 61.38C154.26 59.67 154.92 57.81 155.25 55.89C155.67 53.79 155.76 51.63 155.52 49.47C155.16 46.29 153.9 43.29 151.92 40.77C150.87 39.39 149.58 38.19 148.14 37.2C148.08 37.14 147.99 37.11 147.93 37.08C147.63 36.93 147.27 36.96 146.97 37.14C146.91 37.2 146.4 37.59 146.7 37.77Z" fill="#100F4A"/>
<path d="M63.57 63.72C63.54 62.4 62.52 61.5 61.59 60.72C60.63 59.85 59.55 59.1 58.38 58.53C56.31 57.57 53.73 57.69 52.05 59.37C51.24 60.15 50.82 61.26 51 62.37C51.15 63.3 52.02 63.93 52.95 63.78C53.19 63.75 53.4 63.66 53.61 63.51C54.78 62.79 54.33 61.32 53.31 60.72C52.38 60.18 51.18 60.24 50.16 60.6C47.67 61.47 45.9 64.14 45.87 66.75C45.87 67.65 47.28 67.35 47.31 66.57C47.34 64.92 48.12 63.36 49.44 62.4C50.01 61.95 50.73 61.68 51.48 61.68C51.81 61.68 52.11 61.77 52.41 61.92C52.62 62.07 52.8 62.31 52.92 62.55L53.01 62.49C53.01 62.49 52.92 62.55 52.89 62.55C52.95 62.55 52.77 62.52 52.77 62.52C52.44 62.4 52.38 61.92 52.38 61.59C52.44 60.96 52.77 60.39 53.25 60.03C54.54 59.04 56.22 59.19 57.66 59.82C58.65 60.3 59.55 60.93 60.36 61.65C61.05 62.22 62.16 63 62.19 63.99C62.19 64.83 63.63 64.53 63.57 63.72Z" fill="#100F4A"/>
<path d="M351.451 105.092C352.183 105.594 352.183 106.41 351.451 106.912L340.203 114.623C339.471 115.126 338.281 115.126 337.549 114.623C336.817 114.121 336.817 113.306 337.549 112.804L347.473 106L337.555 99.196C336.823 98.694 336.823 97.8786 337.555 97.3765C338.287 96.8745 339.477 96.8745 340.209 97.3765L351.457 105.088L351.451 105.092Z" fill="white"/>
<path d="M335.451 105.092C336.183 105.594 336.183 106.41 335.451 106.912L324.203 114.623C323.471 115.126 322.281 115.126 321.549 114.623C320.817 114.121 320.817 113.306 321.549 112.804L331.473 106L321.555 99.196C320.823 98.694 320.823 97.8786 321.555 97.3765C322.287 96.8745 323.477 96.8745 324.209 97.3765L335.457 105.088L335.451 105.092Z" fill="white" fill-opacity="0.5"/>
<path d="M204.752 66.0566V68H197.203V66.0566H204.752ZM197.896 53.7812V68H195.445V53.7812H197.896ZM203.766 59.7188V61.6328H197.203V59.7188H203.766ZM204.703 53.7812V55.7344H197.203V53.7812H204.703ZM208.316 57.4336L210.328 60.9395L212.379 57.4336H214.967L211.764 62.6191L215.094 68H212.506L210.357 64.3477L208.209 68H205.611L208.932 62.6191L205.738 57.4336H208.316ZM218.941 59.4648V72.0625H216.588V57.4336H218.756L218.941 59.4648ZM225.826 62.6191V62.8242C225.826 63.5924 225.735 64.3053 225.553 64.9629C225.377 65.6139 225.113 66.1836 224.762 66.6719C224.417 67.1536 223.99 67.528 223.482 67.7949C222.975 68.0618 222.389 68.1953 221.725 68.1953C221.067 68.1953 220.491 68.0749 219.996 67.834C219.508 67.5866 219.094 67.2383 218.756 66.7891C218.417 66.3398 218.144 65.8125 217.936 65.207C217.734 64.5951 217.59 63.9245 217.506 63.1953V62.4043C217.59 61.6296 217.734 60.9264 217.936 60.2949C218.144 59.6634 218.417 59.1198 218.756 58.6641C219.094 58.2083 219.508 57.8568 219.996 57.6094C220.484 57.362 221.054 57.2383 221.705 57.2383C222.369 57.2383 222.958 57.3685 223.473 57.6289C223.987 57.8828 224.42 58.2474 224.771 58.7227C225.123 59.1914 225.387 59.7578 225.562 60.4219C225.738 61.0794 225.826 61.8118 225.826 62.6191ZM223.473 62.8242V62.6191C223.473 62.1309 223.427 61.6784 223.336 61.2617C223.245 60.8385 223.102 60.4674 222.906 60.1484C222.711 59.8294 222.46 59.582 222.154 59.4062C221.855 59.224 221.493 59.1328 221.07 59.1328C220.654 59.1328 220.296 59.2044 219.996 59.3477C219.697 59.4844 219.446 59.6764 219.244 59.9238C219.042 60.1712 218.886 60.4609 218.775 60.793C218.665 61.1185 218.587 61.4733 218.541 61.8574V63.752C218.619 64.2207 218.753 64.6504 218.941 65.041C219.13 65.4316 219.397 65.7441 219.742 65.9785C220.094 66.2064 220.543 66.3203 221.09 66.3203C221.513 66.3203 221.874 66.2292 222.174 66.0469C222.473 65.8646 222.717 65.6139 222.906 65.2949C223.102 64.9694 223.245 64.5951 223.336 64.1719C223.427 63.7487 223.473 63.2995 223.473 62.8242ZM230.348 53V68H227.984V53H230.348ZM232.477 62.834V62.6094C232.477 61.8477 232.587 61.1413 232.809 60.4902C233.03 59.8327 233.349 59.263 233.766 58.7812C234.189 58.293 234.703 57.9154 235.309 57.6484C235.921 57.375 236.611 57.2383 237.379 57.2383C238.154 57.2383 238.844 57.375 239.449 57.6484C240.061 57.9154 240.579 58.293 241.002 58.7812C241.425 59.263 241.747 59.8327 241.969 60.4902C242.19 61.1413 242.301 61.8477 242.301 62.6094V62.834C242.301 63.5957 242.19 64.3021 241.969 64.9531C241.747 65.6042 241.425 66.1738 241.002 66.6621C240.579 67.1439 240.064 67.5215 239.459 67.7949C238.854 68.0618 238.167 68.1953 237.398 68.1953C236.624 68.1953 235.93 68.0618 235.318 67.7949C234.713 67.5215 234.199 67.1439 233.775 66.6621C233.352 66.1738 233.03 65.6042 232.809 64.9531C232.587 64.3021 232.477 63.5957 232.477 62.834ZM234.83 62.6094V62.834C234.83 63.3092 234.879 63.7585 234.977 64.1816C235.074 64.6048 235.227 64.9759 235.436 65.2949C235.644 65.6139 235.911 65.8646 236.236 66.0469C236.562 66.2292 236.949 66.3203 237.398 66.3203C237.835 66.3203 238.212 66.2292 238.531 66.0469C238.857 65.8646 239.124 65.6139 239.332 65.2949C239.54 64.9759 239.693 64.6048 239.791 64.1816C239.895 63.7585 239.947 63.3092 239.947 62.834V62.6094C239.947 62.1406 239.895 61.6979 239.791 61.2812C239.693 60.8581 239.537 60.4837 239.322 60.1582C239.114 59.8327 238.847 59.5788 238.521 59.3965C238.202 59.2077 237.822 59.1133 237.379 59.1133C236.936 59.1133 236.552 59.2077 236.227 59.3965C235.908 59.5788 235.644 59.8327 235.436 60.1582C235.227 60.4837 235.074 60.8581 234.977 61.2812C234.879 61.6979 234.83 62.1406 234.83 62.6094ZM246.637 59.4453V68H244.283V57.4336H246.529L246.637 59.4453ZM249.869 57.3652L249.85 59.5527C249.706 59.5267 249.55 59.5072 249.381 59.4941C249.218 59.4811 249.055 59.4746 248.893 59.4746C248.489 59.4746 248.134 59.5332 247.828 59.6504C247.522 59.7611 247.265 59.9238 247.057 60.1387C246.855 60.347 246.699 60.6009 246.588 60.9004C246.477 61.1999 246.412 61.5352 246.393 61.9062L245.855 61.9453C245.855 61.2812 245.921 60.666 246.051 60.0996C246.181 59.5332 246.376 59.0352 246.637 58.6055C246.904 58.1758 247.236 57.8405 247.633 57.5996C248.036 57.3587 248.502 57.2383 249.029 57.2383C249.173 57.2383 249.326 57.2513 249.488 57.2773C249.658 57.3034 249.785 57.3327 249.869 57.3652ZM255.807 68.1953C255.025 68.1953 254.319 68.0684 253.688 67.8145C253.062 67.554 252.529 67.1927 252.086 66.7305C251.65 66.2682 251.314 65.7246 251.08 65.0996C250.846 64.4746 250.729 63.8008 250.729 63.0781V62.6875C250.729 61.8607 250.849 61.112 251.09 60.4414C251.331 59.7708 251.666 59.1979 252.096 58.7227C252.525 58.2409 253.033 57.873 253.619 57.6191C254.205 57.3652 254.84 57.2383 255.523 57.2383C256.279 57.2383 256.939 57.3652 257.506 57.6191C258.072 57.873 258.541 58.2311 258.912 58.6934C259.29 59.1491 259.57 59.6927 259.752 60.3242C259.941 60.9557 260.035 61.6523 260.035 62.4141V63.4199H251.871V61.7305H257.711V61.5449C257.698 61.1217 257.613 60.7246 257.457 60.3535C257.307 59.9824 257.076 59.6829 256.764 59.4551C256.451 59.2272 256.035 59.1133 255.514 59.1133C255.123 59.1133 254.775 59.1979 254.469 59.3672C254.169 59.5299 253.919 59.7676 253.717 60.0801C253.515 60.3926 253.359 60.7702 253.248 61.2129C253.144 61.6491 253.092 62.1406 253.092 62.6875V63.0781C253.092 63.5404 253.154 63.9701 253.277 64.3672C253.408 64.7578 253.596 65.0996 253.844 65.3926C254.091 65.6855 254.391 65.9167 254.742 66.0859C255.094 66.2487 255.494 66.3301 255.943 66.3301C256.51 66.3301 257.014 66.2161 257.457 65.9883C257.9 65.7604 258.284 65.4382 258.609 65.0215L259.85 66.2227C259.622 66.5547 259.326 66.8737 258.961 67.1797C258.596 67.4792 258.15 67.7233 257.623 67.9121C257.102 68.1009 256.497 68.1953 255.807 68.1953ZM269.186 59.6895V68H266.832V57.4336H269.049L269.186 59.6895ZM268.766 62.3262L268.004 62.3164C268.01 61.5677 268.115 60.8809 268.316 60.2559C268.525 59.6309 268.811 59.0938 269.176 58.6445C269.547 58.1953 269.99 57.8503 270.504 57.6094C271.018 57.362 271.591 57.2383 272.223 57.2383C272.73 57.2383 273.189 57.3099 273.6 57.4531C274.016 57.5898 274.371 57.8145 274.664 58.127C274.964 58.4395 275.191 58.8464 275.348 59.3477C275.504 59.8424 275.582 60.4512 275.582 61.1738V68H273.219V61.1641C273.219 60.6562 273.144 60.2559 272.994 59.9629C272.851 59.6634 272.639 59.4518 272.359 59.3281C272.086 59.1979 271.744 59.1328 271.334 59.1328C270.93 59.1328 270.569 59.2174 270.25 59.3867C269.931 59.556 269.661 59.7871 269.439 60.0801C269.225 60.373 269.059 60.7116 268.941 61.0957C268.824 61.4798 268.766 61.89 268.766 62.3262ZM282.643 68.1953C281.861 68.1953 281.155 68.0684 280.523 67.8145C279.898 67.554 279.365 67.1927 278.922 66.7305C278.486 66.2682 278.15 65.7246 277.916 65.0996C277.682 64.4746 277.564 63.8008 277.564 63.0781V62.6875C277.564 61.8607 277.685 61.112 277.926 60.4414C278.167 59.7708 278.502 59.1979 278.932 58.7227C279.361 58.2409 279.869 57.873 280.455 57.6191C281.041 57.3652 281.676 57.2383 282.359 57.2383C283.115 57.2383 283.775 57.3652 284.342 57.6191C284.908 57.873 285.377 58.2311 285.748 58.6934C286.126 59.1491 286.406 59.6927 286.588 60.3242C286.777 60.9557 286.871 61.6523 286.871 62.4141V63.4199H278.707V61.7305H284.547V61.5449C284.534 61.1217 284.449 60.7246 284.293 60.3535C284.143 59.9824 283.912 59.6829 283.6 59.4551C283.287 59.2272 282.87 59.1133 282.35 59.1133C281.959 59.1133 281.611 59.1979 281.305 59.3672C281.005 59.5299 280.755 59.7676 280.553 60.0801C280.351 60.3926 280.195 60.7702 280.084 61.2129C279.98 61.6491 279.928 62.1406 279.928 62.6875V63.0781C279.928 63.5404 279.99 63.9701 280.113 64.3672C280.243 64.7578 280.432 65.0996 280.68 65.3926C280.927 65.6855 281.227 65.9167 281.578 66.0859C281.93 66.2487 282.33 66.3301 282.779 66.3301C283.346 66.3301 283.85 66.2161 284.293 65.9883C284.736 65.7604 285.12 65.4382 285.445 65.0215L286.686 66.2227C286.458 66.5547 286.161 66.8737 285.797 67.1797C285.432 67.4792 284.986 67.7233 284.459 67.9121C283.938 68.1009 283.333 68.1953 282.643 68.1953ZM291.578 65.6562L294.02 57.4336H295.523L295.113 59.8945L292.652 68H291.305L291.578 65.6562ZM290.143 57.4336L292.047 65.6953L292.203 68H290.699L287.838 57.4336H290.143ZM297.809 65.5977L299.654 57.4336H301.949L299.098 68H297.594L297.809 65.5977ZM295.777 57.4336L298.189 65.5586L298.492 68H297.145L294.654 59.8848L294.244 57.4336H295.777ZM308.541 53H310.895V65.7441L310.67 68H308.541V53ZM317.789 62.6191V62.8242C317.789 63.6055 317.701 64.3249 317.525 64.9824C317.356 65.6335 317.096 66.1999 316.744 66.6816C316.399 67.1634 315.969 67.5378 315.455 67.8047C314.947 68.0651 314.358 68.1953 313.688 68.1953C313.03 68.1953 312.457 68.0716 311.969 67.8242C311.48 67.5768 311.07 67.2253 310.738 66.7695C310.413 66.3138 310.149 65.7702 309.947 65.1387C309.745 64.5072 309.602 63.8105 309.518 63.0488V62.3945C309.602 61.6263 309.745 60.9297 309.947 60.3047C310.149 59.6732 310.413 59.1296 310.738 58.6738C311.07 58.2116 311.477 57.8568 311.959 57.6094C312.447 57.362 313.017 57.2383 313.668 57.2383C314.345 57.2383 314.941 57.3685 315.455 57.6289C315.976 57.8893 316.409 58.2604 316.754 58.7422C317.099 59.2174 317.356 59.7839 317.525 60.4414C317.701 61.099 317.789 61.8249 317.789 62.6191ZM315.436 62.8242V62.6191C315.436 62.1439 315.396 61.6979 315.318 61.2812C315.24 60.8581 315.11 60.487 314.928 60.168C314.752 59.849 314.511 59.5983 314.205 59.416C313.906 59.2272 313.531 59.1328 313.082 59.1328C312.665 59.1328 312.307 59.2044 312.008 59.3477C311.708 59.4909 311.458 59.6862 311.256 59.9336C311.054 60.181 310.895 60.4674 310.777 60.793C310.667 61.1185 310.592 61.4701 310.553 61.8477V63.6152C310.611 64.1035 310.735 64.5527 310.924 64.9629C311.119 65.3665 311.393 65.6921 311.744 65.9395C312.096 66.1803 312.548 66.3008 313.102 66.3008C313.538 66.3008 313.906 66.2129 314.205 66.0371C314.505 65.8613 314.742 65.6172 314.918 65.3047C315.1 64.9857 315.23 64.6146 315.309 64.1914C315.393 63.7682 315.436 63.3125 315.436 62.8242ZM319.332 62.834V62.6094C319.332 61.8477 319.443 61.1413 319.664 60.4902C319.885 59.8327 320.204 59.263 320.621 58.7812C321.044 58.293 321.559 57.9154 322.164 57.6484C322.776 57.375 323.466 57.2383 324.234 57.2383C325.009 57.2383 325.699 57.375 326.305 57.6484C326.917 57.9154 327.434 58.293 327.857 58.7812C328.281 59.263 328.603 59.8327 328.824 60.4902C329.046 61.1413 329.156 61.8477 329.156 62.6094V62.834C329.156 63.5957 329.046 64.3021 328.824 64.9531C328.603 65.6042 328.281 66.1738 327.857 66.6621C327.434 67.1439 326.92 67.5215 326.314 67.7949C325.709 68.0618 325.022 68.1953 324.254 68.1953C323.479 68.1953 322.786 68.0618 322.174 67.7949C321.568 67.5215 321.054 67.1439 320.631 66.6621C320.208 66.1738 319.885 65.6042 319.664 64.9531C319.443 64.3021 319.332 63.5957 319.332 62.834ZM321.686 62.6094V62.834C321.686 63.3092 321.734 63.7585 321.832 64.1816C321.93 64.6048 322.083 64.9759 322.291 65.2949C322.499 65.6139 322.766 65.8646 323.092 66.0469C323.417 66.2292 323.805 66.3203 324.254 66.3203C324.69 66.3203 325.068 66.2292 325.387 66.0469C325.712 65.8646 325.979 65.6139 326.188 65.2949C326.396 64.9759 326.549 64.6048 326.646 64.1816C326.751 63.7585 326.803 63.3092 326.803 62.834V62.6094C326.803 62.1406 326.751 61.6979 326.646 61.2812C326.549 60.8581 326.393 60.4837 326.178 60.1582C325.969 59.8327 325.702 59.5788 325.377 59.3965C325.058 59.2077 324.677 59.1133 324.234 59.1133C323.792 59.1133 323.408 59.2077 323.082 59.3965C322.763 59.5788 322.499 59.8327 322.291 60.1582C322.083 60.4837 321.93 60.8581 321.832 61.2812C321.734 61.6979 321.686 62.1406 321.686 62.6094ZM330.68 62.834V62.6094C330.68 61.8477 330.79 61.1413 331.012 60.4902C331.233 59.8327 331.552 59.263 331.969 58.7812C332.392 58.293 332.906 57.9154 333.512 57.6484C334.124 57.375 334.814 57.2383 335.582 57.2383C336.357 57.2383 337.047 57.375 337.652 57.6484C338.264 57.9154 338.782 58.293 339.205 58.7812C339.628 59.263 339.951 59.8327 340.172 60.4902C340.393 61.1413 340.504 61.8477 340.504 62.6094V62.834C340.504 63.5957 340.393 64.3021 340.172 64.9531C339.951 65.6042 339.628 66.1738 339.205 66.6621C338.782 67.1439 338.268 67.5215 337.662 67.7949C337.057 68.0618 336.37 68.1953 335.602 68.1953C334.827 68.1953 334.133 68.0618 333.521 67.7949C332.916 67.5215 332.402 67.1439 331.979 66.6621C331.555 66.1738 331.233 65.6042 331.012 64.9531C330.79 64.3021 330.68 63.5957 330.68 62.834ZM333.033 62.6094V62.834C333.033 63.3092 333.082 63.7585 333.18 64.1816C333.277 64.6048 333.43 64.9759 333.639 65.2949C333.847 65.6139 334.114 65.8646 334.439 66.0469C334.765 66.2292 335.152 66.3203 335.602 66.3203C336.038 66.3203 336.415 66.2292 336.734 66.0469C337.06 65.8646 337.327 65.6139 337.535 65.2949C337.743 64.9759 337.896 64.6048 337.994 64.1816C338.098 63.7585 338.15 63.3092 338.15 62.834V62.6094C338.15 62.1406 338.098 61.6979 337.994 61.2812C337.896 60.8581 337.74 60.4837 337.525 60.1582C337.317 59.8327 337.05 59.5788 336.725 59.3965C336.406 59.2077 336.025 59.1133 335.582 59.1133C335.139 59.1133 334.755 59.2077 334.43 59.3965C334.111 59.5788 333.847 59.8327 333.639 60.1582C333.43 60.4837 333.277 60.8581 333.18 61.2812C333.082 61.6979 333.033 62.1406 333.033 62.6094ZM344.85 53V68H342.486V53H344.85ZM351.412 57.4336L346.812 62.5312L344.293 65.1094L343.678 63.1172L345.582 60.7637L348.57 57.4336H351.412ZM349.078 68L345.65 63.0391L347.135 61.3887L351.803 68H349.078ZM358.834 65.1387C358.834 64.9043 358.775 64.6927 358.658 64.5039C358.541 64.3086 358.316 64.1328 357.984 63.9766C357.659 63.8203 357.177 63.6771 356.539 63.5469C355.979 63.4232 355.465 63.2767 354.996 63.1074C354.534 62.9316 354.137 62.7201 353.805 62.4727C353.473 62.2253 353.215 61.9323 353.033 61.5938C352.851 61.2552 352.76 60.8646 352.76 60.4219C352.76 59.9922 352.854 59.5853 353.043 59.2012C353.232 58.8171 353.502 58.4785 353.854 58.1855C354.205 57.8926 354.632 57.6615 355.133 57.4922C355.641 57.3229 356.207 57.2383 356.832 57.2383C357.717 57.2383 358.476 57.388 359.107 57.6875C359.745 57.9805 360.234 58.3809 360.572 58.8887C360.911 59.39 361.08 59.9564 361.08 60.5879H358.727C358.727 60.3079 358.655 60.0475 358.512 59.8066C358.375 59.5592 358.167 59.3607 357.887 59.2109C357.607 59.0547 357.255 58.9766 356.832 58.9766C356.428 58.9766 356.093 59.0417 355.826 59.1719C355.566 59.2956 355.37 59.4583 355.24 59.6602C355.117 59.862 355.055 60.0833 355.055 60.3242C355.055 60.5 355.087 60.6595 355.152 60.8027C355.224 60.9395 355.341 61.0664 355.504 61.1836C355.667 61.2943 355.888 61.3984 356.168 61.4961C356.454 61.5938 356.812 61.6882 357.242 61.7793C358.049 61.9486 358.743 62.1667 359.322 62.4336C359.908 62.694 360.357 63.0326 360.67 63.4492C360.982 63.8594 361.139 64.3802 361.139 65.0117C361.139 65.4805 361.038 65.9102 360.836 66.3008C360.641 66.6849 360.354 67.0202 359.977 67.3066C359.599 67.5866 359.146 67.8047 358.619 67.9609C358.098 68.1172 357.512 68.1953 356.861 68.1953C355.904 68.1953 355.094 68.026 354.43 67.6875C353.766 67.3424 353.261 66.903 352.916 66.3691C352.577 65.8288 352.408 65.2689 352.408 64.6895H354.684C354.71 65.1257 354.83 65.474 355.045 65.7344C355.266 65.9883 355.54 66.1738 355.865 66.291C356.197 66.4017 356.539 66.457 356.891 66.457C357.314 66.457 357.669 66.4017 357.955 66.291C358.242 66.1738 358.46 66.0176 358.609 65.8223C358.759 65.6204 358.834 65.3926 358.834 65.1387ZM365.914 53.7812L365.68 63.8105H363.668L363.424 53.7812H365.914ZM363.355 66.8867C363.355 66.5286 363.473 66.2292 363.707 65.9883C363.948 65.7409 364.28 65.6172 364.703 65.6172C365.12 65.6172 365.449 65.7409 365.689 65.9883C365.93 66.2292 366.051 66.5286 366.051 66.8867C366.051 67.2318 365.93 67.528 365.689 67.7754C365.449 68.0163 365.12 68.1367 364.703 68.1367C364.28 68.1367 363.948 68.0163 363.707 67.7754C363.473 67.528 363.355 67.2318 363.355 66.8867Z" fill="white"/>
</svg>
