<svg xmlns="http://www.w3.org/2000/svg" viewBox="0 0 165.81 160.25"><defs><style>.cls-1{fill:none;stroke:#6d6e71;stroke-miterlimit:10;stroke-width:4px;}.cls-2{fill:#6d6e71;}</style></defs><g id="Layer_2" data-name="Layer 2"><g id="Layer_1-2" data-name="Layer 1"><rect class="cls-1" x="2" y="2" width="47.89" height="155.75" rx="8.5"/><path class="cls-2" d="M25.73,50h.17A7.07,7.07,0,0,1,33,57.07V104a7.07,7.07,0,0,1-7.07,7.07h0A7.07,7.07,0,0,1,18.84,104V56.9a6.9,6.9,0,0,1,6.9-6.9Z"/><rect class="cls-2" x="21.68" y="8.54" width="8.53" height="47.89" transform="translate(58.43 6.54) rotate(90)"/><rect class="cls-2" x="21.68" y="103.5" width="8.53" height="47.89" transform="translate(153.39 101.5) rotate(90)"/><rect class="cls-1" x="58.96" y="22.14" width="47.89" height="135.63" rx="8.5"/><path class="cls-2" d="M83.08,61.9h0A4.09,4.09,0,0,1,87.17,66v47.95A4.09,4.09,0,0,1,83.08,118h-.36a4.09,4.09,0,0,1-4.09-4.09V66.34a4.44,4.44,0,0,1,4.44-4.44Z" transform="translate(165.81 179.91) rotate(180)"/><rect class="cls-2" x="78.64" y="21.45" width="8.53" height="47.85" transform="translate(37.53 128.28) rotate(-90)"/><rect class="cls-2" x="78.64" y="112.13" width="8.53" height="47.89" transform="translate(-53.17 218.98) rotate(-90)"/><rect class="cls-1" x="115.92" y="2.5" width="47.89" height="155.75" rx="8.5"/><path class="cls-2" d="M140.69,50.5h0a6.21,6.21,0,0,1,6.21,6.21v48.64a6.21,6.21,0,0,1-6.21,6.21H139a6.21,6.21,0,0,1-6.21-6.21V58.43a7.93,7.93,0,0,1,7.93-7.93Z"/><rect class="cls-2" x="135.6" y="9.04" width="8.53" height="47.89" transform="translate(172.85 -106.88) rotate(90)"/><rect class="cls-2" x="135.6" y="104" width="8.53" height="47.89" transform="translate(267.81 -11.92) rotate(90)"/></g></g></svg>