<svg xmlns="http://www.w3.org/2000/svg" viewBox="0 0 158.43 157.96"><defs><style>.cls-1{fill:#181544;}.cls-2{fill:#9d5e2f;}.cls-3{fill:#494a8a;}.cls-4{fill:#efca4f;}.cls-5{fill:#5053a3;}.cls-6{fill:#9a98cb;}</style></defs><g id="Layer_2" data-name="Layer 2"><g id="Layer_1-2" data-name="Layer 1"><rect class="cls-1" width="48.52" height="157.81" rx="8.5"/><rect class="cls-2" x="54.96" y="20.54" width="48.52" height="137.42" rx="8.5"/><path class="cls-3" d="M24,48.63h.18a7.16,7.16,0,0,1,7.16,7.16v47.54a7.16,7.16,0,0,1-7.16,7.16h0a7.16,7.16,0,0,1-7.16-7.16V55.62a7,7,0,0,1,7-7Z"/><rect class="cls-3" x="19.94" y="6.63" width="8.64" height="48.52" transform="translate(55.15 6.63) rotate(90)"/><rect class="cls-3" x="19.94" y="102.84" width="8.64" height="48.52" transform="translate(151.37 102.84) rotate(90)"/><path class="cls-4" d="M79.4,60.82h0A4.14,4.14,0,0,1,83.54,65v48.58a4.14,4.14,0,0,1-4.14,4.14H79a4.14,4.14,0,0,1-4.14-4.14V65.32a4.5,4.5,0,0,1,4.5-4.5Z" transform="translate(158.43 178.5) rotate(180)"/><rect class="cls-4" x="74.9" y="19.84" width="8.64" height="48.49" transform="translate(35.13 123.3) rotate(-90)"/><rect class="cls-4" x="74.9" y="111.71" width="8.64" height="48.52" transform="translate(-56.76 215.19) rotate(-90)"/><rect class="cls-5" x="109.91" width="48.52" height="157.81" rx="8.5"/><path class="cls-6" d="M134.43,48.63h0a6.29,6.29,0,0,1,6.29,6.29v49.28a6.29,6.29,0,0,1-6.29,6.29h-1.75a6.29,6.29,0,0,1-6.29-6.29V56.67a8,8,0,0,1,8-8Z"/><rect class="cls-6" x="129.85" y="6.63" width="8.64" height="48.52" transform="translate(165.06 -103.28) rotate(90)"/><rect class="cls-6" x="129.85" y="102.84" width="8.64" height="48.52" transform="translate(261.28 -7.07) rotate(90)"/></g></g></svg>